<mxfile host="Electron" modified="2023-08-14T10:14:07.409Z" agent="Mozilla/5.0 (Macintosh; Intel Mac OS X 10_15_7) AppleWebKit/537.36 (KHTML, like Gecko) draw.io/21.1.2 Chrome/106.0.5249.199 Electron/21.4.3 Safari/537.36" etag="4fZ10KsNaN9PpW0O_PXk" version="21.1.2" type="device">
  <diagram name="第 1 页" id="uL0-IicE9LyE1MRL0NWb">
    <mxGraphModel dx="1089" dy="569" grid="1" gridSize="10" guides="1" tooltips="1" connect="1" arrows="1" fold="1" page="1" pageScale="1" pageWidth="1920" pageHeight="1200" math="0" shadow="0">
      <root>
        <mxCell id="0" />
        <mxCell id="1" parent="0" />
        <mxCell id="llEExxZRJE0HhfkoLZ6r-1" value="" style="shape=image;verticalLabelPosition=bottom;labelBackgroundColor=default;verticalAlign=top;aspect=fixed;imageAspect=0;image=data:image/png,iVBORw0KGgoAAAANSUhEUgAAA2QAAAI4CAYAAAAF0yrwAAAAAXNSR0IArs4c6QAAAIRlWElmTU0AKgAAAAgABQESAAMAAAABAAEAAAEaAAUAAAABAAAASgEbAAUAAAABAAAAUgEoAAMAAAABAAIAAIdpAAQAAAABAAAAWgAAAAAAAACQAAAAAQAAAJAAAAABAAOgAQADAAAAAQABAACgAgAEAAAAAQAAA2SgAwAEAAAAAQAAAjgAAAAAZy5hdwAAAAlwSFlzAAAWJQAAFiUBSVIk8AAAQABJREFUeAHsnQmAjdXfx3/2fd8luwjZk4RQVKhUFNGGSJs2tCglrbTv/rK2y5KtTZZkKZHKFpElW/Z9G7znc+qZ92KGYe7M3Jn5nhr33mc55zyf57nPfb7nt5w0FsdSoECB7BkyZCgXFRVVMW3atIXTpEmT5ejRo2niuLs2EwEREAEREAEREAEREAEREIEUR8DpIieLju47cuTIhvTp0y86ePDgn5s3b94V1wM9paDKmTNn3mzZsj3hGmnt/vIeOnQo4+HDh9O693FtQ9uJgAiIgAiIgAiIgAiIgAiIQIol4ESZpUuX7ogzYB1077e6v8/37Nnz1M6dO7ee6qBPJsgyFCpUCBHWP1OmTEXKli1rNWrUsHr16lmZMmXMiTSjYRUREAEREAEREAEREAEREAERSK0EMFQ58WXLly+3GTNm2Ny5c+3PP/+0AwcOrHd66aGNGzeOcGwOxcYnNkWV1omxYa7ytueee27a5557zqpVq2ZZsmSJrR4tFwEREAEREAEREAEREAEREIFUT2Dfvn3266+/2iOPPGKLFi064ixnH69fv/5mB+ZITHDSHb8wtyt58uQZmzFjxpZdu3ZNM2DAACtRooQ589vxm+qzCIiACIiACIiACIiACIiACIhACAF0U7Fixax9+/bm8m+k+eWXX6pkzZq1nosvG7vflZBN/dsTBJkTYx+6gLTm/fv3tzvvvBNfyOP30WcREAEREAEREAEREAEREAEREIGTEHCJEK1+/fpWtGhR++qrr0o7g9c5u3fv/uz4XY5RW27jPm7HO3BRRNEpRux4XPosAiIgAiIgAiIgAiIgAiIgAnEjgJ6qXLmyFSxY0CZPnnxu9uzZ0ztRNiV072hBlj9//hpuxf+uu+66DD169DAUnYoIiIAIiIAIiIAIiIAIiIAIiED8CCDKVq1aZQsXLqzl8nJ8tXfv3vVBjdGqy7km9smbN2/WPn36yE0xoKNXERABERABERCBMyLgpsixoUOHmpsux+8/depU++23346p66+//rLPP/88ehlZyf744w9bsWKFX/bxxx/bjh07/PtRo0aZC6mwCRMm+DrJarZ06VKf1YzXZcuWmZv3x9z8P/bPP//4z9EVx/CGjGi7du2y0HCOIFMay4M/99BkLkOaffLJJ74W+uYeqGzdunU+kxoLt2/f7vtCPzgG/qjfxY4Yx3065fXXX7dt27adsEtwXPQXrseX77//3vfp+OXBZzcib5MmTfIfYbp169boP5eWO9hMryIgAglEgDAwdFa+fPmyuvdPhzaTng/OhFbVmdOa9+rVy1wMWeh6vRcBERABERABERCB0yawZs0a++CDD+zGG2/0+86ePduKFy9uVapU8Z8nTpzoxdbTTz/tE4fx/EFGMjc4bCtXrvQZyqZNm2YVKlSwt99+24ufzz77zIudIUOGWOfOnb2Yc8Hyvs758+fbo48+6ve95JJLvKgrV65crP2+7LLLvJDKlSuXNWjQwHr37u1DNa688kov6BBnFLJMP/744zZ9+nQvlMaMGeOFYebMmQ0hw3RAjRs39vsTxP/333+by1DtY0ZuueUWLyAbNmzo64rpH7Kxvfzyy+amGPLeSaNHjzaOpWLFir4dphpy3kv27bff+uXdunWzWbNmGXUHfcQlavjw4UbfXZZszxBmiDhEYcuWLX0f2ffDDz/0YSk5cuTwx4vIdYkG/PEpVCWmM6RlIhA+Atzn0FsPPPBAswIFClTbtGnTfGr3FjKn0noTbNa8efPwtaiaREAEREAEREAEUi2BYcOGeUHQpUsX4w9hgOgICtYkhEXfvn3t1Vdf9eIDQYH1p2nTpkaW53nz5vnXNm3aWK1atezmm2+22rVr+6RjF110kb333ns+YP6dd96xK664wi6//HLDohUXYYHVa+DAgb69nDlzelGGwBkxYoQXLYRuYI0jjINEZ3PmzPFdv+GGG3w7iBz62alTJ0NwEXuPqONZCpGJYEPsnKovjJpXr17deydhWbv//vu9QEUokuUaQUZ56qmnvChDiMENJvTl7rvv9iJ0wYIFRg6AsWPHetHqHvS8aKtUqRJptz17RDDWN5dYwNcxc+ZMP2cS0xoF4s43pn9EQAQSjECzZs38gI0bCOntGvFTkKUtXLhwAedWUK9mzZrGDUlFBERABERABERABOJDABc+F7zuBU2/fv28KCEN9FtvvWVr1671VXfo0MGLAyxQWM2qVq3qLUT/+9//vEUHgeOC3/1o8ptvvumtON99950XOoww4/7YpEkT+/rrr+2qq66yL774wm677bZjRN+pjsG5DlnZsmW9Za506dI2btw43InMxdV7gcQr/brwwgsNYYPlDRHn5hOyJUuWeJGGG6Ab7Tb6eM8999inn35qN910k7fonUqM0T/EEa6bcMGyVrduXaMvWBOxZiHIEJ4IUdwfEayIUVwosRjCFOFKZmz2u/XWW71VD0vj+eefb+XLl/fHQr8Ra40aNfLiC4FMCVxK/Qf9IwIikOAE0FvoLqe/LnI6LD8Npncfirm/3Jjb43LjSPBeqgEREAEREAEREIFkTQAxhoD48ssvvbUHSw/PGAiOtm3beuEyd+5cy5Ytm7322mveevbKK6/4zwgE3P5Klixpq1ev9hYq4rFwxcPNzj2zeIFxwQUXWOvWrQ2XPyxwzzzzjD3xxBP2+++/+8D5032mQRTiZnl8wXKEEKTe8ePH+z7gVYQFbcuWLb4vL774oheDWPU4HkQRohTrF30/WSGeiwlkORbcEmFHfBeWPkbSEZr0i2PjWKkPRnA4cOCAF6ruoc67h2IJw0qGyAy1RtJ+nTp1vEUN0YgYQ/jSP+qintPldbJj0joREIHYCfBdY3Bn5MiRud13sJjbclN6d0M5x5nU06PUVERABERABERABEQgvgQQGbjy4cL3888/+/gm4sFw7WvXrp23LCEMli9f7kUB4gJL1BtvvOEFGKINsXPWWWd5AYfIQaSQtMNNrupFCK53WIuw+mB9QyDhIjh48GDDfQ83xtMpiB4sYaGFBydcG6kXAYgg5H1g5UM0IXw++ugj338semwTJM3gGIkxO1nBNZG+ciy5c+f2yUhIHEIsGe6TcCEhB7F4CCnaR6heffXV/j2Z23r27OldJhGNxJtRT2iyFEQl2xErRiGOBWZ85hiVP+BkZ0jrRCD8BHBTdt89r8Nc7b+kdR9Kur80mLlVREAEREAEREAERCC+BLAQnXPOOda1a1fvMod1BlGANQaXPJJLIDZwwUNkIbiwimGxwYXPBbvb4sWLjaQc/OHFU9JZzBB3vDLRKmIIwUMMGnFe1HXfffd5gVGjRg1D6JyqIEooWOuw5hETFlrc45EXV8S2Ibx4VqJtLFUIRtphG1wUOY4HH3zQx2sR24X7IxZBknOcrCBK6T9uiyThQGwhrHAtxCURkYoIJSYP4YdlC+HIOlwasZzhZolrI/vTbqlSpTxv+haIsKAPJP9AtCJoicljH84F26qIgAgkDgHuJe5+x5euFC2mdzfIXHwJuQmqiIAIiIAIiIAIiEB8CfBcgcB67LHH7P3334+xOp47sP6Q4ZCU7eyD4CJ2DAsTwuKOO+7wwgvXRtYh6Jybj0+qgSBCHJGFkYKLYKtWrbyY4/OpBBliDDGHIEH8DRo0yHD9o9AX/rBGEYOF9W3GjBnRLor0F+GIBQ9XSgrihu2xtK10WSI7duzoU+qfyvqE+MTaBQ/6RKp/9kW4ImKxutHHwAWR9/SHpCH0MShMC4BFkngy4tiw4hFnhrgjFg63RBJ9kNiDbYPslz/++KO3vCGSVURABBKHQMhAiU/gkd59maXEEoe9WhEBERABERCBVEGADIpYiZ588klvKeOgESsIjKDwGUsN8VmkxEeEIK5wdSQhBYVtmA+M2ChE2TfffOMTXLA9bnkk9AgKbn4IjkC4uCl9fMKLYP3xr7j0BUIHIRYqnBBJWKOwTFHoB/N/IQgRMC+88ILPgIjgZJvu3bt7yxZCCesZVi4sV+yHEELsEDMSUwkyPNIXLIUkK8HtkMQdQXnooYd8XByfqZPjJMsiPBFyJBxBMCJWEXL0kQyKMMCFkn7Tt7vuussLNUbniVmjYIGjPfYjCYiKCIhA4hD4b+DHm+nTuJvQC853uweTKKqIgAiIgAiIgAiIQHwJYL3asGGDFwpBXbgEIrSIxaKQRh7rEtkEcTfEtQ8xcumllwa7eEtOyZIlvcWsoYs/CyxCP/zwg7eEIThiKwiQU1nJYtv3+OUIIPpILBdp7YN2EWlTpkzxLoQIpaB/ofsjmhCTgVAMXRf6HkFG+n+OF4EU6rmEqAsVs6H70SZWOUQXLpIU6sIVks+cC0Qt9VKY44zMlqGF42PEPlSUhq7XexEQgfATYCDIfX/7u3tldwmy8PNVjSIgAiIgAiIgAiIgAiIgAiIQK4FQQZY21q20QgREQAREQAREQAREQAREQAREIEEJSJAlKF5VLgIiIAIiIAIiIAIiIAIiIAKxE5Agi52N1oiACIiACIiACIiACIiACIhAghKQIEtQvKpcBERABERABERABERABERABGInIEEWOxutEQEREAEREAERSEQCZBJcsGBBIrYYt6bIrhiUnTt3+oyH9JX3SV3I7kiKfeZ9o7z00ks+9T5zuTFRtsukndRdVPsiIAKnICBBdgpAWi0CIiACIiACIpA4BBAX06ZNS5zG4tgK6eS7dOlie/bs8Xvccsstfk4y5hqLhMmUSe/PvGKkzKf88ccffq4y0vEzcXVo+ny/gf4RARGIOAISZBF3StQhERABERABERCBSCGQIUMGq1Gjhp+0mT5t377dz9k1evRoa9++fUR0E5GIEGNSagoibezYsXb77bdHRP/UCREQgZMTkCA7OR+tFQEREAEREAERSOUE7rzzTj8BNO5/TMSM1YyJri+88MKIIEOf2rVrZ5MnT/YTUM+YMcMyZswYtomxI+Ig1QkRSMEEJMhS8MnVoYmACIiACIiACMSfQJYsWeyaa66x2bNnGxYz3AMvueQSy5o1a/wrD1MNDRs2tOHDh9uuXbvsxRdftFtvvdWLxzBVr2pEQAQSkIAEWQLCVdUiIAIiIAIiIAIpg8DVV19tH3/8sZHgY8SIEXbvvfdG1IEVLlzYihYtahMnTrQ8efJYnTp1Iqp/6owIiEDsBCTIYmejNSIgAiIgAiIgAiLgCZAgg7Js2TK7+eabLXPmzP5zJP1z2WWX+Ri3Zs2aRVK31BcREIFTEJAgOwUgrRYBERABERABERCBqKgoO++883zK+0qVKhmfI6kMHjzY+vfv71Pdf/rpp9ajRw8f6xZJfVRfREAEYiYgQRYzFy0VAREQAREQAREQAU+AdPydO3e2f/75x8ePkTyja9euESPKvvvuO/vmm29s3LhxPn5s/Pjxlj9/fiMTpIoIiEDkE4h4QcY8H2vXro2V5IEDB3wAKxM0UrhpLly40Pbu3esnl/zll19i3TecKzZu3Gjr16+PtcrNmzfbzJkzbcmSJfGapHHu3LnGZI+JWVauXHnKyS///PNPzz4c/WLU8ccffzTObUKUrVu3+mskuGZiaoPrZ9OmTf64T7ZdTPueahlpiZlMNPRv//79p9otzuvpL/z4HqiIgAiIgAjEnwBJMsqXL2+PP/64z2b4/PPPG1ayr7/+Ov6Vx7MG7vkffPCBPfroo9FulKS9v+mmm+yjjz7yFr14NqHdRUAEEphAkgmyBQsW+DkzTnV83bt3N/5iK5jomzdvHi1SeNhu0aKFT/36zjvv2DPPPBPbrmFdjmjs1KmTPffcc9HzgAQNEGDLXCDTp0/385gwyhbMFRJsE9fXN954w6644gofWBzXfeK7HSKwVatW/sYeW12PPfaYF8GxrT+d5aQTvv/++61ly5Y+zXBc9uUHadGiRT4D1qm257q48cYbY+3v999/b/jhExBdv359W7p06amqPK31/JDXrVvXZ+giS1e9evXs5ZdfDtuPJoL2kUceMY4zpkLa5p9//tk2bNgQ02otEwEREAERCCHAb9L8+fON1PehhSQfJPdI6sI9n0HEAgUKHNOVHDly+GeNM33eOKYyfRABEUhQAkkiyLAWXXTRRf5hG8sAKVp5oD548KDPXsR7rCOs40GfESmWsR3bbNmyxa+DDNYixBAPmZR8+fLZwIEDrXHjxtHLuFkh1LCeUfbs2eProT6W8Yo1JLDI0C7b8BdYMfyO7h+25eZ8fGHSSHy2t23bZtdff713HaAerGaINPrUs2dP/5DMtkOHDj2+ijh9hsPy5cutW7dudsMNN3grYHDscargDDa67rrrfP8nTJjgJ8H89ddfT3DT4LzQt3AU5lPhvPAD2Lp1a7v77rv9MZ+sfq4DtsVNg/NDFizqgA3njH05H/wwdejQwV555RU/ksg6tuH6CH607rjjDv/j9tprr/lzyfVD4ZVrj0lBqY8/zndgsWQ99cGCa5zXoNAftmWfRo0a2T333OPbS5cunXeDQfhx3PSBfYNrLLgWWc7+FOoK2gzW80rfgms86B+v9Ik6g+sbyxmCk0GR4NioL+hf0Ge9ioAIiIAI/Ot5kz59ej+/VygPknpwf03qQhr+s88+23766adjuvLXX38ZiUgiKTX/MR3UBxEQgWgC6aPfJdIbHhARJtmyZbNnn33WuGHg9zxmzBgbOXKkjRo1ys8u369fP3/z4+GTh9MuXbp483u5cuUMQYD1AuvY8YWH5V69enlLFCZ7/L2bNGnirQFYXbBOtWnTxt+8eODH4tS+fXv/sHrBBRd4ofTEE0/YvHnz/DJuZmw3ZcoUf1OjXVwDataseXzTlj17du+7zQ2ah3msHtwocSNAKAaF7EzXXnut8eB/uoX6KPw4TJs2zVuEsLI8/fTT/sZ7uvXFdfvixYvbhx9+aH///bc9+eSTng3HF4zIISwYjQtH4UeOc4dAYWLLzz//3KfxZQ4YxC3Lji+cW0QV7hm4j3L+SE9MNiz4c329+eabXmRXrFjRu5mULFnSCy4GB3A7KV26tCE6ESm0jXDG2kpB8HTs2NH/4HFNsD3XAdcpx86cNMxTQxrkMmXKeLHDdff666/765trnmsZFxKur4YN/50vhjTFxCFQB9cq1yYuopzT//3vf/68cp75vrCe/YcNG+ZFJOeD+ABiB+gvFi8sf7179/Z9pk7EF4KaY+I43333Xf/9yJQpkxemWNFY9/DDD/s66T8CWEUEREAEROBfAtwv+U3CswDvhqDglRH6OVieFK8k8OC5gt+tYsWK+d8sfgsSy0soKY5ZbYpASiKQ6IKMB0ceKrFk8PDZtm1bb/Invoq4FwQaD6Q8hOLaxUMp+yDKeNBGCOGyx0MpD6DcJEMLFgKW8wDNfjyQYw15//33vXUKt0Ie3Hlg5yEUEYXAYFsEEu3y4EysFw+3F154oeGyh1AMhEKFChVCm/TveTBGFFF4EMbqsmbNGj96dvwNkXq4wVetWtVv63eKwz/0kb5TP4VjxwqD2OA4eQ0VfnGoMk6bIJwRRbSPEIQPjOfMmRM98oZ1pnr16n6bOFV6io2wWAaF48RCNGTIEH9esERy3kILVi8m7EQwY1HlR4lzSOA1cYgIas45qYBx7UDcIEQ4Dt4j9rBackyIq7vuusvOPfdc7y6LoONvxowZ/pqk7VWrVvnr54UXXvCukmz/0ksv+fqwgBFMjSsL+zFAQKwBfeOa5vovVaqU7z4DFFyznFOOgc8MNPC9+Pbbb72ARAQ/+OCDfvAAQcWPLKIOHpwT4vfoB8eHQEQ4UqiLa61v377+OqGPXOPt2rXzDxYIrxIlSnjBdvnll1vBggX9d4UBity5c/s69I8IiIAIiIB5YXOrm2j5qaeeMgaG+X3ht4KJmCOhcP/mN4HwCH6j+d1kIJDfMRUREIHIJ5Doggwk559/vn8I5aGZFLLc3L788kvvhsVD/VdffeUFFcIHYYMIoPDgysMsoz8IMtyseCCNrbA9Vi+EH66HCCPq40Gc+CTcxrC28ZCMdQPLCy6G1FmoUCHvLonVhwdkHuwReVgZ2Pb4ctVVV/lYNh6seZBG5GH5oO8IzSpVqkTvQl8QmLQduJFFrzzJG0Qcx49FkXY4vpw5c3pLHMfDw3dCFEbeHnroIc8OqwyigNS6uEwG5wZ3wUGDBp0glM6kP3Bu2rSpF7TszzljskvOH66oMR0n55nzwrWENe/iiy82ErogsLimiOPDtRXLU2gQNvxxi0W88GOGmyqibdasWX45VkBcQYgjQ1RxLVHGjh3rzyFilToClz/W8aNNweKLqyB/iD4GHTi2wN3Qb/TfPwhOfuAR2AwacI1g3eJaRGRzrTKIgYBioODtt9/222Ix5ftAjB+WOSyEDGhQ+EGmbfoYXN8I0Fq1avn1DZ2Vjv3pP8cDA95jZZYg84j0jwiIgAh4AvwO8NzBwNukSZP8bwnPBpF0ryxbtqx/lrrtttv8b3RCDNDqchABEUgYAkkiyHjIREwEcVs8MONeVq1aNbvlllu8mEFo5M2b94SjRgDwFyrEeJDkIZQHycCljx3ZBisVIgvxw8z1gZDh5krBBY6bGJYMRA118YeLGHXxUMsDMKKEh2WCell2fKGtxYsX+1grYnHeeustb82jTwgXjg1RhnUGNzZGsSiIrNMptI2g5Efgyiuv9MkvgskqT6ee09kWQYSYIA4uV65c/uEdgRRaOH4E7ekeT2gdwXv4Ux/tIowRQXA/1Q8fbLimuLawouKOx7WC9QthxfWEVTJUkNEmfebc0ibXxxAnzBCEWJQQQVw/CPMVK1b464ntg74g5rF2IbIQVRTqCK4RXvnMueJHEqGFaDy+UCd/DFCQkIO6GNns06dP9LVO/4Lrm/dwouAii9DCtRahj0ALCtc3Lpr33Xef5xCwZT2WN74T8KJvXP/UVaRIkWB3vYqACIiACPxHgN9afkvwgmBQknt7JBZ+J/g9UREBEUg+BJJEkBFgykMfD4u85+aGgME9ECsErokIGB6mER881PIgyXseHik8eLKMzzxEku2ImyMPyDzIB+t46MRagjBCBFEX9bANBTM/loxbnVWDetiPdWwTFAQVpn/qJ6NjTAV3QY4BKw4WwOBGzYM7wgALB33mwR3XNETCmRbEBu6RJV0MFA/mCV1wg8NXHksLFpqY2gyEQjj6Epw7hDDcibM6VYE3IvGzzz7zQgZLGq6Cl156qferR3BjHWM7rhnOL+0Er7zn/CAqsQYyIMBnhDkufLVr1/ZuhAg1RCLnm2Vsi9AjjgBBE1of77FMEUuG+yIulVwPuL9SWB9ch1yXiCasdVhWYYybZei1yPtge/YNvgsMACD4cGcl5o3rIliP6yQC9Pfff/fWP9pFsPG9Q+RiaaPviG2243sZCVnD6KeKCIiACEQiAe7PDOLF5C0Tif1Vn0RABCKfQBr3sPuCe8jrgUtVYhbcx3jg5GGQUaepU6d6EYYFBncxLFhYrhj15+aHFYIMQsSQcRMkNTn70m+yDrINBasC7mVYQtatW+cfTHlgxRWLOBkKsUA85OPixU31iy++8G1hlUBwsD3ijAfuQFghsni4R0TGVPDZPj6u6fjt6CcPvPHJeESsWEwWluPbCudnRCTn5WQFZoiN4DycbNtTrUN0EEvI+T+dgjWUqQU4V1wvvA+uI8QGLrCcX84DVi8ss1j+cENF3CCYuL6oBwGKayTrgsQlxGrhAonwIysi1k5cV7iG+MwAQpBwBg7UzXJGKnFjJc6OAQesYMF61uG6G3DjGucc038GKHBbZDCB1Pis49qpXLmyrxveAwYM8P0mroF+MGBAXbjJYtWjHhKVcOxY52CKoMQ9kmNBYDIowTZcwzBhrh0VERABEUgKAtz/cYvHQyFSCwN+3DMjVZCRvAxL3qmeSSKVr/olAqmFAFrEPbP1d15O3ZNMkCUX2CRKwGqBOyLZ7BBxKiIQKQSwqiEkGdyI1IeDSGGlfoiACEQ+AQmy+J8jCbL4M1QNIpAYBEIFWZK4LCbGQYarDawMWCRwOSQtuooIRBIB3HGxAmKdUxEBERABERABERABEUh+BPQUd4pzhnsgMVQqIhCJBOITixiJx6M+iYAIiIAIiIAIiEBqI3BiusDURkDHKwIiIAIiIAIiIAIiIAIiIAJJRECCLInAq1kREAEREAEREAEREAEREAERkCDTNSACIiACIiACIiACIiACIiACSURAgiyJwKtZERABERABERABERABERABEZAg0zUgAiIgAiIgAiIgAiIgAiIgAklEQIIsicCrWREQAREQAREQAREQAREQARGQINM1IAIiIAIiIAIiIAIiIAIiIAJJRECCLInAq1kREAEREAEREAEREAEREAERkCDTNSACIiACIiACIiACIiACIiACSURAgiyJwKtZERABERABERABEUgIAmnSpEmIalWnCIhAAhGQIEsgsKpWBERABERABERABBKDwNGjR49pJvjMa/D+mA30QQREIKIIpI+o3qgzIiACIiACIiACqZLAkSNHjjluPqdNm/TjxvRj27ZtxmvOnDktKirKNm/ebJkzZ/Zip2DBgsf0O7E/HDx40Hr06GFLliyxdOnS2YoVK+y6667z7HLkyGGDBg2y7NmzJ3a31J4IiMBpEJAgOw1Y2lQEREAEREAERCBhCHz77bdWqVIlw91u0qRJVrhwYatcuXLCNHYatSJ42rVrZ3/++affa//+/dawYUMvxkqVKmXffffdadQW/k0zZsxoNWrUsKFDh1qWLFl8A7///rsdOHDAunfvLjEWfuSqUQTCTiDph57CfkiqUAREQAREQAREILkRKFOmjA0cONAOHTpk77zzjp177rkRcQhYwpo1a2Y7duywvXv3ekvZvn37jL+ePXtGRB/bt29vpUuXPsY9MX/+/Na5c+eI6J86IQIicHICEmQn56O1IiACIiACIiACiUCgSJEiNmbMGFu8eLF3vcP9LlLK7bffbgUKFDhG8CAg69atGxFdxLXzoYceiu4fcWOXXnqp5c6dOyL6p06IgAicnIAE2cn5aK0IiIAIiIAIiEAiEMiUKZOVL1/exo0bZ1dddVUitBj3JnAFvOOOO6IFD1a8a665JqLcARs3bmxYxYJy0003RUQMXtAfvYqACMROQIIsdjZaIwIiIAIiIAIikEgE0qdPbzVr1vTWsSpVqiRSq3Fv5tprr7U8efL4HbBIde3aNe47J8KWhQoVsgYNGvjYsdq1a1udOnUSoVU1IQIiEA4CEmThoKg6REAEREAEREAE4k3g8ssvs4wZM1jZsmXjXVe4KyhWrJjVr1/fx7h17/6QZc2aNdxNxLu+Xr16eavdk0/2jnddqkAERCDxCCjLYuKxVksiIAIiIAIikKIIMP3V0mWrbPfuvWE5rsOH01mpMuXtj2Vr7MjhY9Pgh6WBeFRC9sdGjZvbV19/bZXOq21z5y2OR20Js2t6J2bbtL3N9h1IF5b+ZcqU0SqeW9q5Pmqi6YQ5Y6pVBP4lIEGmK0EEREAEREAEROCMCBBL9dOchS7tegWXffDYyYnPqEKn8Ho/8aThvmgR+IRSvUY1e/zx3lakSGHnWhmBHbSjdtPNN7lYtzOif8xOTn/agoUrrFTJopYt27/p9I/ZQB9EQATCRiAS7yZhOzhVJAIiIAIiIAIikLAEChTIY5WcFSW1lArndEgth+pS/e9ONceqAxWBpCQgQZaU9NW2CIiACIiACIiACCQhgYPOyhlamG4gnUtaoiICIpB4BCTIEo+1WhIBERABERABERCBiCHw7ItDXHKSzL4/uDniprh16057tPutljlLxojppzoiAimdgARZSj/DOj4REAEREAEREAEROI7A/N+W2sZ/tlrHW660zJkz2Tnlivsthn000Xbu3iNBdhwvfRSBhCQgm3RC0lXdIiACIiACIiACIhBhBL6fPs9+mb/ULru0jq3fuNVGfzHVduz8N15MGRUj7GSpO6mCgCxkqeI06yBFQAREQAREQARE4F8CpLPfuWu3y4x5xLJkzWQHo6Jc3Fg64REBEUgiArKQJRF4NSsCIiACIiACIiACSUHggtqV7eoWF9vyFWutft3q1vm2lm5CaaW2T4pzoTZFAAKykOk6EAEREAEREAEREIFURqBkiSJWsGAeO7tYwVR25DpcEYg8AhJkkXdO1CMREAEREAEREAERSDACCxevsEFDx9vBgwftqWcG2r59++2pxzsbrowqIiACiU9ALouJz1wtioAIiIAIiIAIiECSEShT6iy74PxKTpBFWdXzylqD+jUlxpLsbKhhEZDLoq4BERABERABERABEUhVBEhzf/11l9ify9dY8bMLu+QeR23Wj79bWjcR2YYNWyxDBjlQpaoLQgeb5AT0jUvyU6AOiIAIiIAIiIAIiEDiE+h461W2e/c+NyP0f227yaFvaNXE8uTOkfidUYsikIoJSJCl4pOvQxcBERABERABEUi9BAoVzGuFlNMj9V4AOvKIIaAYsog5FeqICIiACIiACIiACIiACIhAaiMgQZbazriOVwREQAREQAREQAREQAREIGIISJBFzKlQR0RABBKTwNGjLljivxK8D16D5XoVAREQAREQAREQgYQmIEGW0IRVvwiIQKIQ2L17t+3YscP27t0b3d6RI0f8MpYHf/v37/frhwwZ4jKLHbF169YZ79n/tdde8+vY9vfff7fffvvNFi5caIsWLbKdO3ca+w4ePDi6fr0RAREQAREQAREQgfgSUFKP+BLU/iIgAklOAMvW9ddfb6tXr7ZcuXJZnTp17PHHH/fi7KqrrrIDBw7YoUOHLGPGjHbLLbfYgw8+aL/++qt9//331q9fP1u/fr199dVXftny5cvthhtusLvvvtvOO+88mzdvnl122WVu4tR91qlTJ/viiy/stttuS/JjVgdEQAREQAREQARSBgFZyFLGedRRiECqJ4DgGjhwoH366adWsmRJa9GihWXJksW+++47e+6556xixYr+/bXXXmu33367TZ8+3YYNG+bfV69e3ViOALvnnnvs/PPPt4svvth69erllz366KNu0tRMhvBL4+bpUREBERABERABERCBcBGQhSxcJFWPCIhAkhJAKGEdK1asmBdVuBvidtigQQPLmTOnm+g0g+XNm9cKFChgjz32mN111102aNAgb/2qWrWq/fTTT1akSBGbMGGCd2P85ptvDGsZfwg46pcYS9JTrMZTIIGtW7fYr/Pm2Ia1K23/vl3uCDXgEe7TnDZtOsuZp4CVKVfJKlY+z9Kn16NfuBmrPhGILwF9K+NLUPuLgAhEJIEqVarY33//HWPfEGKLFy+2nj17Wu7cua1gwYJebO3Zs8dbwbCIse/QoUO9i+Obb75pmzdvtqioKO/6GGOlWigCInBaBKZOmWTZDq6w8wpntzolCljatIVOa39tHDcCWPYPHTpse/YtshFDJlntRtdYmTJl47azthIBEUgUAhJkiYJZjYiACCQ2gRUrVlilSpVOaJbkHD///LN3aWT9ypUrfcIPluOWWKhQIR9b1qxZMx9zdvbZZ/sYs+3bt9tTTz1ljRs3PqFOLRABETg9AgsW/G55o5ZalfNKmh0+cno7a+vTJpA5k1mO7FmsbbM8NmHy55YrZ0fL77wFEqMQw3v48GEnuNNa5syZo5sMTcDEQrwY2GbGjBnes4G4XeJ8ieHFc4FXytatW/1r4EKOZwRWP+7lhQsXtmzZsvn1+kcEkhMBCbLkdLbUVxEQgZMS4Aedwo/41KlTvQXs+B0QVvfdd5/hkli5cmWfCCRfvnw+k+Ill1ziMy/Wq1fPnn32WV8PDwXt2rWzWrVq+R97rGkqIiAC8SOwbskP1rROCYmx+GE8/b2d+G1+SRWb+O0wq9u8k+V2YiahS+/evb3IIqaXWN7nn3/eCzPidhFl6dKl84Ktffv23j183LhxVrx4cZ+YieRLI0aMsB9++MGGDx9uTzzxhL3++uu2du1ay5Ejh79fk6QJ1/LZs2dbx44dfdxvQh+T6heBcBOQIAs3UdUnAiKQJARwJyQ2jFHTDRs22CuvvOIF1PGd4Yeev4kTJ/qHAeLLSAbCCG7+/Pmtbt263jLWtWtXv4zMje+++6499NBD3q2R0VgVERCBMyewYMECK1XIDZ6476pKEhCIOmJX1C9vPy34xS64qGGCdwDx9NZbb3nr1yeffGJkvkV0kVRp27Zt1qNHD3vvvfd8P3hlqhEG1Yjdffvtt+3ee++1jRs3GsLunHPOMe7N48eP9x4Q7J8nTx7btGmTrz/BD0YNiEACEZAgSyCwqlYERCDxCJBsgx/6gwcPetcVRFbWrFmjO3DBBRf4H29GYoOCgCNODGHGD3/r1q2tW7duNnPmTJsyZYofgaVesjfyMMA6Cp95QLjmmmuCqvQqAiJwGgT+Wr7MLiolt7LTQBb2TZmDceeWtWGvN6YKuY/iSoh3Qd++fe3OO+/0Hgy4IOImjhsj6+lT7dq17dtvv7WmTZv66UnIgIs3A5a1sWPHWo0aNfxUJbiYT5482c8NiQtj6P0+pj5omQhEOgEJskg/Q+qfCIhAnAiczJWQH33+QkvLli19LAIjt2XKlPGrSOKBIKtWrZp/OAjdPniPBU4//gENvYrA6RPYtWOLs0LnPP0dtUfYCLicsXZg386w1XeqirhvBqVChQreCoYgC11O/BhzQpLxdsCAAd6DAZHG4BkeDLg3NmnSxLswMlckogwLGffyRYsW+dhg6lARgeRIQIIsOZ419VkEUigBLFz8AIcGfifUoV566aUnVI0FrX79+ics1wIREIHwEeA7ntZZTVSSkIDDf9Sdh6QoCKkSJVz8YAwF93ESJzF9CXHAf/75Z7QYK1eunC1btswLNOJ9mWOS7Lf8Xrzxxhs+OdNZZ50VQ61aJAKRT0CCLPLPkXooAimawJYtW/zI5pgxY7wVi4QbJUuWTNHHrIMTAREQgdREIJj7DAsYLokk6Di+EGuG6MLKRcKPdevWWfbs2e3HH380BtAYsENwXXHFFfb+++/7rIyjR4/21RD7i5eEvBeOp6rPyYWABFlyOVPqpwikIAK4n0yaNMk+/fRTmz59upEW+cILL/SxBWvWrDH+UmrBRYekIhKdKfUM67hEQARCCWARZcoQLGPTpk2z5557zphOJCiB22LRokXtySef9H8k6SD7LdkVienFosb6/fv3+3gy5ozEo4GEHuedd54XcWTZDY0TDurXqwgkBwISZMnhLKmPIpDCCBDkTbZCYrdwOZkzZ47PksWPLD/UCLaUWnj4yJgxY0o9PB2XCIiACBxDoFOnTrbSzRGWO3due+aZZ7yVK9gAixZZEyn8LiCoEHD8FjAwhwhDlJFhMW/evDZr1ixvMQu2ZxvmKGNfCu0o4ZJHoX+SGQEJsmR2wtRdEUgJBHBJqVOnjv9DfDFy+uqrr9rgwYP96CgjnioiIAIiIALJn0DDhg1jPQgGpxo1ahS9HkHG9mROZP5HsisitvhtGDVqlM++2KBBg+jtmY4ktARzUYYu03sRSA4EJMiSw1lSH0UgBRMI3E5waSGbFnECKiIgAiIgAqmPALFmLVq0OOHAEW5t2rTxyyW6TsCjBSmAgPKDpoCTqEMQgZRCgB9jBWWnlLOp4xABEUgpBJh/MYj1iumYcDNkQC0Sy759+yK2b5HIS31KGgISZEnDXa2KgAiIgAiIQLInkDFjBudSFiGPEsQROXfoBC20kd5NMP9fzNIJbbEu3Rn0Ieg3r9RxfDlZm8dvG+bPGZx1qkuXLn5SZ+YCi6kwD9i9994b06okX9anTx+77bbbbPHixUneF3VABGIjEFaXRVyNRowY4eNBYmtQy0VABERABERABFIGgcOHj1i+AjHPKZXYR/j3+s22ddsuq1KxlJtk6/8nIg76EeXiVQ8ejPIZ+TJnyuAXHzly1Pa7ZxfmRcuc6dTJdnbu2mOTZyywRnUrW64cWYOq/6vriE2e+pvly5PDqlUsafv2/+t+TQxUxozpnU6LXajNmb/UqlQoYUuWr7ONm7db04urm8tu4eslznbid3Ot2rkl7OyzCsR4bMd0JMwfDjk+gwYNshdffNEaNmxojzzyiHcrDHUdJFMumREjsWC9+/rrr+2bb76xjh07GnFnJAhREYFIIhBWQUZWnHfeecePomAiVhEBERABERABEUi5BKKiDtuBQ6cWMvEhMHfBCp957/zq55g5ARhbeeX9CfbFt3Ns6eTXnehylqzQ4sTQhEk/28MvfGjFCuWxr4c97reZNe8P69ZniJ1VOK+Nea97dLa+0F2j3zthtf6f7dblsQH23Ue9LVfObMeIo0OORe9XP7ULq5e3swrlteYdn7Pde/Z7MVb93JL2yhO3Wp5c2aOr829cnYjIxm2fsq+H97IJk+fZN9N/taaXnm92wAk6t556uz012J7r0dZuKF7IzH1OzBJI2x49eljnzp1t2LBhdvPNN/ukG0G8V7Zs2SyYaywx+xaXtgLhSLwyE09PnDjR2rZt66dZyZEjR1yq0DYikOAEwirI6C1fSkZQVERABERABERABFI2gYMHDzmr0M8JdpBYmbo+9j9rcUkNZ0EqafudJSZb1sxOCJnt3nvAcufM6pYdctrlkN3fobndeHU9S5suje3ctc8yZkjn1kU5Y9kRN19VTm+x2rhpu234Z5v9sugvq1m1rE2ZvcCJrG1+Ww4Cw9rO3Xvc3IhR3gKWKbOzpLllBw9F2Y5de119B//1VmRD97dz915X7yHL76xilDT850TUYWeV+WvNRnutdwebv2ilfTD6e/e6ys6vWsZb47JmyWS7nFjDMpc3T3b79oMnrGblUjbOWcICKYllZ8v23X4bt9m/xb2hD/QlZ/YsliVLZtu7d7/rylG66Y4jvf/7b+uwvGRyLotYlpjUmYLAWbZsmZ9LskqVKpYpUyafpp71zZs3930JS8NhqIRzsXr16uj5yRCN//zzj/Xr188Ls48++uiYNPxhaFJViMAZEQi7IDujXmgnERABERABERABEQgl4ETIIy9+ZGs3bLGhI7+3hUvX2Mq/N9kzD7V1VqMou+/pofb9p0/Zx2Nn2JRZC6xurQo2wQmaqW5Z23tftezZMtvSv5yIcGLlw9e6OWFjXmThAjjWWdJq1jjHvpw63yqUOcuJu/2+5WGjptlrgyd48Vap3Nn2dt/bvei7/+khNtm1USBvTu96yNQdM+YusQf7DrM9+/Zb3Zrl7d2+XUJ7b0dcu0UK5La1bh8EWOniBa1jz3fsXNfekw+0sdsfftcKFchlfd37jj3fto9fu8+Lr6CSXv0/sTGun1jV9u474Bfv2LLD2nR7zVav3WTFi+a3D1651/oPHGeLlv1t23bsthd6trcLHYfA3TGoKz6vJPR4+umn/fyQHDfp51etWuVd/6677jo/r+KCBQvs3Xfftffee8/YPlIKYpEYss8//9yLMoQr579p06b24IMPWsGCBSOlq+pHKicgQZbKLwAdvgiIgAiIgAhEJAFn8unU5hKb9uNCu8gJntuub2y3Pvimt24tWrbW/tm8w76bucB+WeisXeeVth0799rajVv9oWAJ27k7o/W6+1ovmj4ZN8PHaOXMkcUqli1mP/y8xH75ZZlt37HHrrmskn31/XynYY7ao/0+shaNa9rVTWrZnY8PtJFfzvJi69NxM+3xe1vZ6nWbfJxXlswZrUOPYVa2ZGG72rkX3t37fWvf8v/nx6IT2Zz1qu29rzkPwyPWpN55VsLFf/2zaYcVzp8bU5r948RVBpesA+G2Zt0Wb+ULLGF/LF7pROhU63jDJU6QZbU+r49EV9rLzi3zTycyBz5/h3V+9D0bO2mO7XLWwFnzllr3zldasSL5/jXzhfGEImIKFy7sk2IQR0Z4ypgxY6xkyZLRrRA/hvgpUqRI9LJIeZM9e3ZvtcNaRp+JgbvyyisjpXvqhwh4AhJkuhBEQAREQAREQAQikkDlCsUta+ZMVsrFTtWsU8lZmQrZb4tX20xnnarnLEHTflxky1aut/ucu+In42dGHwMOfAilKy+pZf3eG+td/FhJEpLbWjfy1qkBH02ymlVKu9indN7NcAMizrkC3nlTU6tarZyVGzTBW9gKOQGV2bkudmrT2Nas3WIfjJlu211yj+WrN3hRNWvuUud+uM+5KP4T3T5vsGoNf/ken0Sk08Pv2KARU5yVJm10fJvTZLGUNE6gbbbDTgi1albHypUsYm8M/cqLCo51n3PR7PzoAJf8Y4ctXbnB11e+VBHrft8NrlFn6UO5hbHgonj77bf7OSLvv/9+q1atmj+m0CYQbZE6hyQWsTx58vj8Bs2aNfOhNaF913sRiAQCsaf8iYTeqQ8iIAIiIAIiIAKpmICLyXJPKn9v2GpRLp7quivqeKtYWids2rWsbz/MWWw7du+z6i7+6shxCT/Sp0/rRcy/CT7+FSlYwerXPte7Hn7+1Wy7rP6/4gJB4d0RXb2/ulivVSvW+dgy3AJzu+QdO5wVCrdAYs4ORx3x8VuZXMr/61vUtekj+ri/p61lU5eII6TQImIvC9kb3Yc9Tixly5rJWdjWOpe/jS4+bJe3lIXsEv2W7RBsi//827tGYv1zBh7L4eLG6OfoAd1t7rgX7NE7r3GWtSjLny9n2IVY0JnDRw7b3XffbcOHD7caNWqcIMbYrkKFCvbss88Gu0TUK3FtP/74o7Vu3VpiLKLOjDoTSkAWslAaei8CIiACIiACIhA5BJxAqlGxtH3okmKkc4rk3luvcALkoDVwoupCFwO2wbkANq1XxQseshGS4AMhwyuughQEy6FDR7x1jOVHnShr2bS2vfDuGGveuIa9PHC83x7x1LntpdbTZWLM4ixiuXJk89shgso518RWXftbgXy5vIvhoYOHrUeXq+25t8f4uDXa+u3L/v+25eLbEHgk7OjY8133/ojP4nh1k/OdtS+j9Xz+Q2ve4TnbtnOP6xeTKR91Vq+Dfh+OgQQlNSuXsTLOGni/i5MrWjCPHXJWHsRkJ+e2OdFlYry2Sz9ntcton7x+n6+D5CrR2UD8UYfvH4Ru9eouDf9JCm6BlSpVOskWSbeqUaNGSde4WhaBOBJI4/yCX3Dm3B5knYlv2bZtm7Vp08bP9xDfurS/CIiACIiACIhAZBMIsixe3vTCOHf0gyED7NoL81jWrFnitM9OZwGbNnuhlXGi6NwyxXzMWAFnESrmUtXP/X2FF0klzsrvEn78Y1u27fbxZL8tXuWtRoVdUo2Ff6x2CT6yeKvWaucKWMXN50XsGO+ru9izNWvd/GXOWlXVpaYns+FPv/7pXRxrVC5tBdz+ToG5JBr/uKQif/v5xbDWVSpXzCfq+Nm1T9KR8qWKWoWyRe33JWt8O0Vcav3flqzy4i+9y/ZYtngRy+EyQkY54TTVxcQVyp/LCba0PiV+6bML2c+/LbdK55xtW11iju1OqFVxbW9xLolzXF8qu+Wbt+108WH5Lb9Lp7/CWc1IcAKDWueVsVWu/yQ5qeCSkMQ1mQdxaxNmrLYr29510nMwY9avVq3KOc6yFLdzddLKtFIEROAYAsRmutjG/hs2bOguQXYMGn0QAREQAREQARGIK4HEEGQn9AUTWBAmFfqeDY//fMLOIQtOtu2ZrgupPtpiFfQ1dN3x70/W3vHbhuGzBFkYIKoKEYgngVBBJpfFeMLU7iIgAiIgAiIgAolIIFTghL6nC8d/Plm3Trbtma4Lbe9kdYRux/vT2fb4ffVZBEQg2RNQUo9kfwp1ACIgAiIgAiIgAiIgAiIgAsmVgARZcj1z6rcIiIAIiIAIiIAIiIAIiECyJyBBluxPoQ5ABERABERABERABERABEQguRKQIEuuZ079FgEREAEREAEREAEREAERSPYEJMiS/SnUAYiACIiACIiACIiACIiACCRXAhJkyfXMqd8iIAIiIAIiIAIiIAIiIALJnoAEWbI/hToAERABERABEUheBJTlPXmdL/VWBEQgYQlIkCUsX9UuAiIgAiIgAiIQQiBjpsx2+MiRkCV6m+gEnCJOlzFTojerBkVABGImIEEWMxctFQEREAEREAERSAAC+QoWtT17DiRAzaoyrgSOHj1qWbLlievm2k4ERCCBCUiQJTBgVS8CIiACIiACIvD/BKpXr2mrNuz8/wV6l7gE0qSxzdv3WKGzyyduu2pNBEQgVgISZLGi0QoREAEREAEREIFwE8ibN4/tSVvIjuC2mCbctau+kxJwYmzf3n02+dftVrFS5ZNuqpUiIAKJR0CCLPFYqyUREAEREAEREAFHoP6lLW34xAW2f79zXXQiQSURCGRMb0uWrbHJC/ZZ63adE6FBNSECIhBXAunjuqG2EwEREAEREAEREIFwEMiYMYPd0OFBG//5cCtbyCx3jsyWLs1RU/bFcNA9sY6DUUftj1VbLGuhytbs2iYyTJ6ISEtEIEkJSJAlKX41LgIiIAIiIAKpk0DmTJmsVbtOtmXLVtu2dbPtObA/dYJI4KNOmzadZc+R0xpXz29ZsmRJ4NZUvQiIwJkQkCA7E2raRwREQAREQAREICwE8uXLa/ypiIAIiEBqJaAYstR65nXcIiACIiACIiACIiACIiACSU5AgizJT4E6IAKpjwBz4PTo0SP6wC+77DL/fsOGDda/f//o5XojAiIgAiIgAiIgAimdgARZSj/DOj4RiEACaVxWtZw5c9rnn3/ue7d06VL/+vHHH1ulSpWStMfz5893MS1bkrQPalwEREAEREAERCD1EJAgSz3nWkcqAhFFoEOHDtavXz87ePCgy3qdxnbs2OEFWoMGDZKsn8yL9PLLL9vgwYOTrA9qWAREQAREQAREIHURkCBLXedbRysCEUOgaNGi1rBhQ5s2bZrv04ABA+z666+3bNmyJVkft23bZtOnT7fhw4cb71VEQAREQAREQAREIKEJSJAlNGHVLwIiECuBbt262ahRoywqKspmz55tXbt2jXXbxFjx6quv2q5du2zz5s32/fffJ0aTakMEREAEREAERCCVE5AgS+UXgA5fBJKSQOHChb0YQ5A1atTIMmbMmGTd+fvvv23YsGG+DyQdwWKnIgIiIAIiIAIiIAIJTUCCLKEJq34REIFYCRA7VqRIETt06JDlz58/1u0SY8WIESN8PFvQ1k8//WRTpkwJPupVBERABERABERABBKEgARZgmBVpSIgAnEh0KVLF1u2bJndddddNnDgQOvTp09cdgv7NocPH7bRo0f75CJB5WnTprXXX3/dSPShIgIiIAIiIAIiIAIJRUCCLKHIql4REIGTEmC+sfPOO89Idf/kk0/apEmTbP/+/TZ58uST7pcQK7/44gsfw7Z3715vraMfBw4csBkzZtiCBQsSoknVKQIiIAIiIAIiIAKegASZLgQREIFEJ0CM1sKFC+2ee+45pu37778/SQRZkyZNbNOmTbZq1Sq7+eabfaKRNWvWGPOjlS9f/pg+6oMIiIAIiIAIiIAIhJNA+nBWprpEQAREIK4E0qc/8faDm+Du3bvjWkXYtsuRI0d0XZkzZ7bs2bNb6LLolXojAiJwDAHiQBf/sdI2bNxqR9xASySVtK5v27ZutBw581radCfeb86kr2nTpHVZWP+2vHkLm7n38S1p/qtgy5Z1ljdf0fhWF9b96duWrTuselUNSoUVrCoTgRgIhOcOFUPFWiQCIiACsRHgIQ7xtWHDBiPTYlD++OMPq1ChQvAxSV6x3vGnIgIicGoCGTKkt84dWtqBg4dOvXEib8Gchu3bt3Uu0X1c8qDwiJ2cOXNawwb17NMRIy1LlizxPiJED3ebq69qbl98Md6JvECixbvqsFSQIX06y5o1c1jqUiUiIAKxEzqZIKIAAEAASURBVJAgi52N1oiACCQggTvvvNNatWplgwYNstKlS/sYrscff9zHlCVgs6paBEQgzASyZcviJnSPvzgJc7d8dVmcxTtP7pyWN0/OsFWfMVNGX184BFnQqUyZMjmrW67go15FQARSGQEJslR2wnW4IhApBKpWrWovvfSSETe2fv16K1WqlM+0GGoxi5S+qh8iIALJk0BysHgHFnle8R5QEQERSH0EJMhS3znXEYtAxBC44IILnJvOF1auXDmbO3euHkYi5syoIyIgAiIgAiIgAolFIP4RqYnVU7UjAiJw2gSioqLsqaee8haoHTt2+ImOP/jgA9uyZYtt377d/vzzz2PSurMMq1Vo2bp1q40ZM8ang586dap3LZwzZ459/fXXPtaK7IQ///yzsQxRNX/+fPvnn39s165dNnLkyNCqYnxPcg9GhZPDyDDp8HG1XLt2rc/K+MMPP9ibb75psIXD4sWLPZ/gQOHP3GpMfB2Ubdu22fjxLlbEFWLmPvvsM9u4caMNGzbMT0y9efPmY3jOmzfPJzphPrQPP/zwmMmrgzr1KgIiIAIiIAIikHwJyEKWfM+dei4CpyTwzDPPeFH022+/WZ48eeynn34ysgh+8803VrFiRbvlllusXbt29v7777ug9yI+ycb333/vRceePXssf/78XkysXLnS3n77bS8eMmTI4MUT83Sx7W233WZPP/201apVy8/bdf3119vgwYOtdevWfvvrrrvulP1MLhsgmn755Rfr1KmTj3sLeE6ZMsV/RqzdcccdRixctWrVvHhi3a233uoC47O6GJG8nudff/1lX331lb366qteyCG0YDx9+nR78MEHPesCBQr4SbMvvPBCL5xJvz9kyBC76qqrLGPGjMkFmfopAiIgAiIgAiJwCgISZKcApNUikFwJMKExlrDOnTvbtGnTjAd7LDYk0MBK8/DDD9u6deu8hYeMh1jSsGqtWLHCevTo4Q/7pptu8kk2mDMM4Xb11VdH48Aq9MADD/gJlM866yyrV6+eLVmyxLfz448/2uHDh5OF1Sv6gE7xBivW7NmzfcwbAurKK6/0lsDLLrvMW7T69evn0mFvtuHDh3uLJKIMqxaZJPv27esFWfv27W3o0KGeMcL4hhtu8Ps2aNDACzSELYkCEF+cJ6YAqFmzpt+ec5ccrIinwKjVIiACIiACIiACxxGQIDsOiD6KQEohULlyZevVq5cXTS1atPCH1ahRI28hGzBggBdML774ohUtWtQLsNdee82Lh3vvvdfeeOMN746IAMAFEesOgo7ll156qU9Z/+uvv3oXvW+//dZmzpzpxQMue7jwIfRSmngoVKiQPfHEE15cIaQQaHBNly6d4cqIAIXP3r17DXFWu3ZtbyFDuL3yyiueIUxgg3snQu7555+35s2be6FcvHhxP1k2E1Lj6lmyZEnjPe6fVapUsRo1aqSUS1PHIQIiIAIiIAIiEEJAgiwEht6KQEojEAgAYruCQswW1pZ9+/ZZ//797eWXX/auhrjf4YaIO90777zjRUb9+vVtxIgRXhgwpw8WIKxlWNRwsaMOrGS48eHOhysfMWhsg3UnKSZ5Do4zIV4RX1i8YIX1iwJjrIVkSEOwwXPUqFG2evVqL9bIIPnWW295N8PLL7/cJk6caMTiEa+HqIMV5wOedevWtTZt2vipAIj16927t3Xo0MHvi9Ajng/2KiIgAiIgAiIgAimHgARZyjmXOhIRiJEAsUiVKlWKnuyY+W4QUBQe7lmPNSZHjhzeskMMFPFgWHyw5hQsWNCwrBETRUZEliE+Dh486CZdbe+Te5C6noIlh0QXWNSIX2N9Siocd758+QzrIyKKgkhDKAXvicUrW7aslShRwrBAYk3DGgZPBCzsb7/9dj8BNgk/2Jd1uIveeOON3nXxkUce8SKMOL9ly5Z5F8aePXv6uhDGKiIgAiIgAiIgAimHgIZaU8651JGIwAkEsOLwAI9VhoKIwDqDWAhEwMCBA40YsJw5c/qYMxJ9jBs3zourYsWKWZcuXQwRRzxakyZNvDBDkGDtWb58ubVs2dJmzZrlE1lgDbrvvvvsyy+/9LFP1JlSSjBHEPOkkRQFQQrDyZMnewFKJkUsgljDELm4IGI9e+ihh2z06NFWvXp1//nuu+82EqMgWhs3buxdERGy11xzjRdfWCXJrIi76dKlS+2FF17wcWeIapKs0A8VERABERABERCBlENAFrKUcy51JCJwDAFiv0jUgUggTTuuiggIUt0z7xexYvwhChATuBuSiIL3xER98sknRlIP9kVwIcIQbljDEGgkqkB4IC5udVkEEQpYe2i3a9eu3qUP0ZFSyqpVqzwvjhOGCDIEF6nrEbg333yzz1pJNkusZHxu27at54m7Ie6HWMSwOH766ac+aUezZs3sueee8+6Njz76qLesIaDJXEk7nAcSsMCTc6fsiinlatJxiIAIiIAIiMD/E5Ag+38WeicCKYpA1apVfTwSqdKJCcPygoi46667fLp1XBRxK2zYsKGfPwwxRbwYc46R6Y/4sosvvti75O3cudNI3oHYIvkHbnvsS6KPsWPHetGGOEHMEU+FEKQgIhAmZBFM7gW3TtLaw4XjwzKIyydiFDGFyCWZBxZGYsywciGgSHuPSJs0aZLPQhlYDSdMmODT3GOBxEKGYEPYIX4XLVrkcWHhJKaP9hBoMMatMSXwTO7Xg/ovAiIgAiIgAuEiIEEWLpKqRwQijAAP71iwcKEjhToFyxbWl8ByRUr87NmzewGGgAgtrVq18pYeRBxziuGyiPtdkFQCCxpioVSpUqG7pej3ZKR87733rEyZMtHHSTwYrp1YCrEywhamTDsQWuCOyyEFyxgiFzFGDBqFpChkrkRIq4iACIiACIiACKQeAhJkqedc60hTIQHcEUMLIo35woKCYIutBGnWERok9IippCYxxvFjyTq+YEUMCu6IsRViyoLCPGMxFYmxmKhomQiIgAiIgAikbAJK6pGyz6+OTgREQAREQAREQAREQAREIIIJSJBF8MlR10RABERABERABERABERABFI2AQmylH1+dXQiIAKnSQC3ziBO7jR31eYiIAIiIAIiIAIicNoEFEN22si0gwiIQEojsHnzZj+3GFMDMBEzGRFXrFjhhVnTpk39pNkp7Zh1PCIgAiIgAiIgApFBQIIsMs6DeiECIpCEBDZu3OjTzZOmnvcLFy60TZs2+QyIdevWlSBLwnOjpkVABERABEQgpROQIEvpZ1jHJwIRSID5tfij4B7IHFuhy0gFj+tgYpVKlSrZG2+84ZtjTrFrrrnGzj///MRqXu2IgAiIgAiIgAikYgISZKn45OvQRSCpCCDA2rRpY3///bfvAnOdYYliea1atfzcaUnVN9pNTDGYlMeptkVABERABERABJKegJJ6JP05UA9EINURwAJWs2ZNW7lypa1evdoLMV7Xrl1rLVq0SDIeWOm2bt1qixcvTrI+qGEREAEREAEREIHURUCCLHWdbx2tCEQMgVtvvfWEvjBRdehEyydskMALdu/ebVOnTrVXX33V9u/fn8CtqXoREAEREAEREAERcOEbgiACIiACSUGgSJEi1r59ezt06JBvHrfFjh07WtasWZOiO77NwYMH+0QeJUqUsB9++CHJ+qGGRUAEREAEREAEUg8BCbLUc651pCIQcQS6desWncGwcOHC1qlTpyTr45YtW2zEiBHWqFEju+WWW2zcuHFJ1hc1HDcC+/btM4R8UHbu3Bm8jfGV7UMLLqrBgADvDx8+7N1neVURARGIHAJ8T4kxpgTeC6Hf/cjpqXoiAmdGQILszLhpLxEQgTAQOOuss6x+/fr+h7ZDhw6WOXPmMNR6ZlV8/vnn1qpVK8ufP78hDrdv326LFi06s8q0V4IT4GEMC+u8efPsn3/+sS+//NLuueceP10BUxZwPlkWFATXnXfe6UVXsIzzO2TIEP9x1qxZNmrUKJs7d67fF/HG+ilTpkT/zZ8/33bs2GGI96eeeiqoRq8iIAKnSYD765o1a2zdunW2d+/e6L23bdvmkz2R8Im/9evX+3Xvvfeej+9l/c033+y/x127djUGYfiu4moefFd5T7200adPH78+ugG9EYEIJaAsixF6YtQtEUgNBEh5TywZEzG3bNkyyQ6ZkVdcFN9++217/vnnvdsi/Xruueds+PDhSdYvNRw7AR7QEM6cr0suucS++OILq1q1qj3wwAM+Y+ell15q999/v+XLl8/27NnjM2cuX77cpk2bZlmyZPFJZXgQ5AHvu+++89ZRHuCIY0Tg8TB4wQUXWO/evb1Q//DDD61v377GK5bcVatWxd45rREBETgpgf79+3sBdfbZZ3tRdfXVV1uXLl38YMj3339vs2fPtsqVK1vRokWtX79+/ntKjC/36F9//dUv+/nnn416brzxRvvqq6/8dzZbtmzGX40aNXzCKL7HUVFRJ+2LVopAJBCQIIuEs6A+iEAqJoCLIA+4pUuXTjIKCxYsMGLacuTI4fuAQKNfb775pq1YsSJJ+5ZkUCK4YaxjmzdvNiysZMREQGXPnt0/iDEyzsg5GTxHjhzpLWYvv/yyMek31q2vv/7acuXK5UU3VlnONQ965cuXt127dlmePHn8+rZt2/p9ihUr5q24iDa2mTBhghd3mhohgi8QdS3iCWCxZtDr9ttv999fBuTKlCnjP7OsadOm9uKLL/plt912m/30009+0IVBEe7J55xzjlWsWNEaNGjg792IN4QY9/DcuXP7WGQG/PhTEYHkQECCLDmcJfVRBFI4gaR2/ypVsoQ9+ujDnvLdd9/p3BYL+PcD3nvXcuTMmcLpJ7/DQ1zde++9hhUMl1cEGSPpGzdu9CPpxJt88skntnDhQiNRC4KMsmTJEnvhhReiDxgXRkbbr7jiCm/9IsMnogyBHrgn8iA4efJkL+wCF8j06dNrrrpoinojAmdGIIgJK1iwoLd04zLMdzoorEdQDR061CpVqmQffPCBDRo0yFvOcCfGIs4yhNj48eMtb968XqxhAS9evLgfUNHASUBTr5FOQIIs0s+Q+icCYSZw6FCUvfz6R5Ypcyazf2Okw9yCqktoAkePHrFSJYtayysvTuimIrZ+Em/gXnjdddfZgQMHfD95gEOU8RD38MMP+8QsH3/8sRddrPvrr7+se/fuPv6EUXdco/744w+/PyP2WMpwb6K+DBkyWKFChax27dr24IMPGu5RjOgzTx0iTm5QEXtpqGPJkACuiwysxFTGjh3r3Y75zvJ95LuaKZP7/XKF+0CtWrW8hfyJJ57wFnDuC5dddpn/nn777bdemMVUr5aJQCQRkCCLpLOhvohAIhBY8/dGO7tYYfcw3+CYBAeJ0LSaCBOBqKjD9unnk8JUW/KthoB+RBVZ1xBcTDhOQo+gMIrepEkT795EPNlDDz1k5cqV8zFkuDwirog/CUba+czoOg90uED++eeffk466mvevLm3miHUfvnlF7vvvvuCZvQqAiIQTwIzZ870383jq2Hgg8Q7fE9xa8RKzfccV2XcFPmuEgvauHFjP4BSr149e+utt3z8J27GN9xwQ7R4O75ufRaBSCIgQRZJZ0N9EYHEIJAmjfOvz+z/EqM5tRF+AgiyjJkyhL/iZFIj4ovMaoyq82BWt25d/5CGUMJFCbdDBNWwYcN85kWEValSpez666/3mRlxcyLBB5/ZllH2888/3wsuBBnJPHB3ZNkdd9zhrWVYz/jDNZIReuJdqlWrlkyIqZsiEHkEcC3mO8X386WXXrKBAwfG2MmbbrrJf1+xijFPJa6J06dP96+4L5O0h+QdiC/EGm7GxJCStZf7wK3Osq0iApFOQIIs0s+Q+icCIiACInAMAR7kmDMOyxbuTMSX8CBGOnpEEiPkPLRddNFFPpEHmRfJlvj777/7eh555BEfV0ZyEOLDAkFHpjYeDitUqOAzN5YsWdI++ugj7wL522+/efFHsg9G7ZNyioZjYOiDCCRDAnyHnnnmGR8TRkInvrNkRgwKVm8GPojXvOaaa/y2fKdbtGhhTz/9tP/+kbTntdde81YyrN/cFxBoWMvIxkiCHsWQBUT1GukEJMgi/QypfyIgAqmOAA8is39a4B9InDHIx/phFSpYMI9VKF8y1fE4/oB56CLVPXMM9ejRw6elZ5v//e9//qGuZs2advfddxviCbdFhBeJPXBvqlKlis2ZM8fPU8Q+cOXhjViTd955x1vd2I8ReKxnuDFSggc7kgpQEGS0RxZGFREQgdMjQAZF/mIqfCdxRQ4tCDPmCBwwYIAfQOnVq5e9//771rlzZ/+ZeQQZlKEQQ4qLI/VwL2XA5dlnn43+DofWq/ciECkEJMgi5UyoHyIgAqmewB/LVtk33/7oRnqjbMXKdVamVFFr07qpz72SMWN6Gzh4rPUoVzzVcwIA7oqvv/76MYKIBB+B5erJJ5/06a95SCOuhFf+EFaIrJwueyYj7tSD+yMxZsG+TCpNchAEHA91sZUgsUBs67VcBETg9AkEgx+he3bs2NG7FtepU8fPP8g6lhFXxvc2EGOh+wTvEWgx1Rms16sIRAIBCbJIOAvqgwiIgAg4Aj/M/NUuqlvVChXM5wLRM9i7/xvlhAMTnWbxfNKlS6vEmP9dKfnz5z/hmkFgBSV0/fHCKdiOUfdAhAX78UriDlm+QonovQgkLYHQ73NoT5j4PVyF7KoIO+4LKiKQ2AR01SU2cbWXIgngFsEonIoIxIdA7ZoVbdKUOc4qY7Z7z14rVrRgtBiLT73aNzIIYG3DffJ4gRgZvVMvRCB1E2AKjH79+vnY1C5duvhJplM3ER19YhKQIEtM2mor2RBgPhR81IkpCVwhEF2k1CYYmRE03JkQYbg73X777TZ8+HCfVGDbtm324Ycfeh/2devW+UQCjRo18il6AUASgmCOI1JvB64UPKydd955VqRIkWTDSR0NL4HzKpc1/jZt3mZ/OZfF2rUqhbcB1ZbkBJiomkmnGzRo4JOOnHXWWRqRT+Kzwj2dhBBk2AxcVIP78ul0bceOHd4VNi77Br8jp1N/Um67fft2H1OZlH1I6LaZoJrfchKE9O/f30+ZwXQXzH1G4hEVEUhIAhJkCUlXdScrAjNmzPBCCrGF+Prmm298wDA/0givTp06GdnaEExkYiM7G+sY7WbCWX6EcX8i6JiUuwQs3+rS7TKhLJNUErfCtitWrPAjb++++66RzpdYFuqnfQQawcgqqZMAsWPz5i+xjf9sc0knNlmB/Hn8BNCpgQbfObIg8mCckgsJR7hPMBLPoA/zol155ZU+FkZukglz5rk3M8g2atSo6LkXSQxz8803G0KD1Os//vijv/cilrknM63B6ZbPPvvMmLz4VC5vS5YssTfeeMP/JRfPCjKYrlmz5nSRJKvtuU4YLC1fvrytWrXKyLrKshw5cvhpM3ivIgIJRUCCLKHIqt5kRwCRVaJECS+urr76ai+imKuoVq1afo6UDRs2eKsYljDS8Pbs2dOPGDLSSQIAJool4JjPZHYj5TY3daxq/PiStQ0BxsSWPJBhSUOcMa8KP8pr1649o4eAZAdaHY6VwEeffu0SUeSw/PlzW5FC+WzwsHH2SPdbnfDPFOs+KWUFlglSXePSl5ILD+sMznCcWN+ZJwlBwH1DJeEIMBiG+OU648GaTJuTJk3ygwDcz4OBAM4D89KdSUGQMRF5STddQlAY2FuwYIF/0Kdt7vXc9xHjyUWMcSwI1DMRqQGH5PDKbzzZWJlomqyMV111lf/NTw59Vx+TPwEJsuR/DnUEYSLQqlUrbxnjR5XRa+Y3YbJJMrRVrFjRCPjlRxsXRf6YMBZ3I368mRuFGzjbjBkzxr/y4IXIw4r2/PPPW7du3ezBBx/0o22MuDG/EQ8CPAAwISZuEtmyZQvT0aia5Egge/YstuSPlZZjbVbyrNsR9wCXwWVX/P+SckdoESdMyJySC1ZAMkN+9913fl40XJlz587tH9ZT8nEn9bEhhLjnIsLWr1/vxTDWMYRwuApTJPzwww82c+bMYwQZy/hdaNiwoX/Qx2WdgTksaTz889uiEhkEuEYeffRRP0hyKitnZPRYvUhJBEJ/6VPScelYROC0CSCGEGFYtJiwEtGFmKKQlQ2LFpawxx57zLsW4oo4btw478bIiCuWLvZr2rSpv6ETD8ZIODd23GJIr82oOO6NCDWWvfTSS14EYlFD2DEhLcHEco047dOXIna4rmVj27Bxi5vMeLd9NvI7K1WiqI0eM8ULM66J3LmyWzo3wh515MxG8FMEpGR8EJzDNm3aeGt6Mj6MZNl1xDAeDDx0M8k37ykIJu718b3nMlUCbpAff/zxMW7nDDTQJjHHe/bs8W7r1atX94N0P/30kwRZBF1NGhCNoJORCrsiQZYKT7oOOWYCjHC2b9/e+40jon755Zdo10LEEqOcRYsW9aOazZo1s4svvthbxq6//vroCvnhxcKGJQ0XGSatJC6MUXFcGHFXZALaDh06eDHHCCntvvrqq97CRkXxfTCI7ozeJEsChZ2rIn+9Hr4tWfZfnY6dAN/twoULx76B1iQYAdzQmGyYuepItkRMFBOC44L+xRdf2COPPHLGbSP28Iwg+QPuiQzqIcAonHMsdMEfbrnMn0XSiOTksnjGcLSjCIhAnAhIkMUJkzZKDQT4UcalhVEyfrg/+eQTa9eunY8HYwSVrGj88DLKiUDLkyePTwISzGkEo0suucRGjhxpgwYN8qPguCMxIs7klcSYkRAEyxjiDndHEoWQ2YlRVLbhMwH+kVYmf/eN7du22uzQXvdgoViX0z0/adNlsiPps1r+s86NHpk/VR0S5qcipPUicHoEiOkdP368F01kwr3nnnv8wNkNN9xg06ZNO73KQrbmns7AG27nxIzhPXHFFVcYFjAscLimUvhOM1hHTHGuXLn870lQDev0nQ9o6FUEUh8BCbLUd851xLEQwDrG39y5c+3+++/3biezZ8/2QgorGKLshRdeMBJ+EPyLOMMtcefOnf6HlM/nn3++3eoyK5JV8dprr/WTy/bt29cHQ48ePdruvPNO77ZIUHepUqX8j3gQVzZs2LDowPJYupjoiw8cOGgfvv+yXd+4rGUvTzp+N0GW+1/lNAn40K80tmbdEvvsoyXWuu0tevg6TYTaXATiS4CkTQx44QFBTC8FN3IGyOJTcGXH24HfAuKPcWWnYDHDMyJI2IKVDNf2Tz/91E99gBAMClkgR4wYoftCAESvyYoA1zYWXyzQKmdGQILszLhprxRI4L333vOjm7iakISjbt26tnr1au/Sgrjq06ePdzUhxgs3FzIl8qPOj/Gll17qb0bPPfecTw3MK6KNxB8EbfMjjZsKaYPnzZvn0+oizh5//HEbMmSIH6Ul3TLWtEgqMyePtTZNylnWLJmdEJMSO+Nz49EdtbOLFXTXyRabN2em1ax90RlXx0j60iW/2d13f+1doc64Iu0oAimYACnMFy9eHO0ayHQkX3/9tU9xz0BY9+7d/b03vgjOOecc7+WASzpxx61bt46uku8qljKy6CLMcGdkgI9tgmkO2IZBQCxtKiKQHAkgyIjBlyA787MnQXbm7LRnCiOAyyB/hQoVij6y4sWL+yQeZObCNZEU+BSyZFGeeuop776YP39+/5lMjexD/Bhl2bJl3jrGyNHQoUP9SCw3LmLNeFggqUewL7FkkeSyQpxFpgNrLGvmchJj/myG4Z/DR+ysQnlsytgv4yXIuIaKFC1uF1/fzFlV5UIahjOjKlIoAbIZMsiGqyAWKZJ54Epev359n36egTGsU8E9+0ww4HIeWkIz9CG08K4ICt9dkj9NnDjRxw0HiSTwrFARgeRKgOs6sAwn12NI6n5LkCX1GVD7EUMgVIgd3yliv2IqxJGFFua5CS2hn5lviL/QEogxliHSIqlMHDfaOlxeOpK6lGL6cmXDyjZ+wpfWovkVZ3xMOXPlsWrVqp/x/tpRBFITAUQSwojBsebNm/tYYTLfzpo1yydowoqVEIUkHgy2hc7hRZInMu0yKKciAiIgAhCQINN1IALJgAAZwkipHDrympDdjoo6bBnMPbxkzuiCLJRiPdysc+XObru2b4pXtYxIqoiACMSNAN+XqVOn+mQauFbhvkhiJaxmpMHHIyAhCq7ruE2+88473vuC+OLevXt7i121atWMGGMVERABEZAg0zUgAsmAAHEPQ1ysGan2SSoSOtqaEN0n1iFjuiNK4JEQcH2dLhV21H4flufCR1REQAQSmADxuwgj3BV79uzpY8ly5szp3ciJ+R04cGCC9CCwgjGohrWMP9pnUurQDL0J0rgqFQERSDYEJMiSzalSR2MjwA8dP7YpuVStWtXHrTFXDtm8gs+kUz6Zq+WZMsH2Ip1wpvROZz+RPh1a2lYEzpQAsb1YpLBQEatL3NdXX33lpzFBkB3vTn6m7YTut23bNp9RsXLlysfEB5NpkalT4hO3FtqO3ouACCR/AhJkyf8c6ggcAVLOR1JCjHCfFNxtCErnlRgI3BflshZuyqpPBEQgpRJYtGiRd1kkkyEJNLh/NmzY0M8nifdB2bJlrWjRomE9fAYLiSPWvTqsWFWZCKRIAhJkKfK0pq6DYrTx3HPPTdEHzWTTgwcP9mn0SSvLHGYqIiACIiACcSPA9CNNmjTx6eaJ5yJzLsmaiCPr1auXffTRR35i57jVFretqLtKlSqGGESUBcJsyZIl3jLH+kqVKsWtMm0lAiKQoglIkKXo06uDSykEeJAgJf/x6ZVTyvHpOERABEQgoQl06tTJEEO4KL7xxht+7i/mmixdunSCDXLhzYBrIlOiMHhI/C9ikNiyIOV9Qh+36hcBEYh8AhJkkX+O1EMRMILPVURABERABM6MAMKLmLF58+bZhAkTfFZFrGJYraZMmeJdFs+s5tj3mj59uk/GdPnll/t7OHFjJBYpWLCgb5cEIyoiIAIiAAEJMl0HIiACIiACIiACKZpA4cKFrW3btj7+lveffPJJ9MTQJPTAkhXuctFFF3mXxdmzZ9tdd91lJGGqV69etPtiSo57DjdL1ScCKZ2ABFlKP8M6PhEQAREQARFI5QRwEWS+MaYOKVGihDVr1szGjBnjXQfz5cuXIHRIwJQrVy6f2bFYsWL25ZduMvgWLaLbCmLKohfojQiIQKolkDbVHrkOXAREQAREQAREIFUQQPz06dPHuwumT//vWDRxueHOrBgTzF27dvnJoJlD8o8//vCbEMs2Z86cmDbXMhEQgVRIQBayVHjSdcgikKAEmOnYPfycqvy9YYsVK3yKkem0rq6gviOuTvdx/sKVljd3diteNH/MTbA9+1F4cfNbu3kR+HRCOXAwyrbt2G2F8uey+YtWWsliBS2Pq9v339WzddsuW7N+i1UpX9zSBHWeUIsWiIAIJAcCTHg/adIkn1wjsE7xSrZF5ihLiIIYe+KJJ+zaa6/1YmzGjBl+cmgSehBbpiICIiACEJCFTNeBCKQyAumcG02CFSdiNm/dYYeiDsfehNsGEVT76kds9Fc/uUjWdDFvmy6tfTZuhtW84iEbOmLqv8LM9b3VnS/ZW8O+thglX8YM9vqgCVarWQ+rc9XD1rrzi/bTL0v/3ff4Vly7j7/8sV3V6XmLOnzEWrptp/240My164t75XNr195B9yCnIgIikHwJEK9FUo3x48fb6NGjvbsiLoujRo1KMEvV/PnzrX379vbAAw/47Iq4L+KySKp74stUREAERCAgIAtZQEKvEU+gW7dutnbtWj8xcsR3NoI7uH37TuvS9aHw99AJmImTfrYez39gM0c+Yxny5nBtOBPVwUNmTih5q9MhJ2wyprfcObPZS4/dbA3quPnj3IOSZfp3/eF9By2dW29OIFGGfj7V1m/abl9OnWftrq5n6d12jGjz521gGdJb1P6Dlj5LJt8UdW3Zvst27NpjXdo1sfc/nWIPPD3Evhn+uGXF8kX7WO/oj2ujY+vGVr/Wuf8a0qjXt+r++a+/6Z1oOxIsR6hhJaNvThgedXWlyewSAWC5o86TidCgXr2KgAgkCQHuGbgqku6e9POJUciiSEp95iEjTo0YNlLgk2WRODYmqVYRAREQAQhIkOk6SDYE+EElTXFCZMNKNhDC0NGVq9bb/N+WhaGmY6vY5IRT3zdHOuvXHru2Sz8rU6KQHTp02Aa9fI+16fKilS1ZxHp3a23Nbnra+j7YxgZ88p2VOrugfTh6uo2fMs/KlShs8xb+Zc/3bGcX161sy1est9+XrrHWzerYV9Pm2669+ywPwu2/wvXQ/62RNnLibKtWqZT9sWKdDXz+Dq/vcuXKZvd3aGFTZi2wvU6wRbmR8aY39Lbut19lF1QvZ6269rVObS6xdRu32tzfV9jlDasH1doht/1djw+0+YtXWvWKJd3cb2m9YFu2fK3d8egA27Vnn/W6p5Vd5fp17W3P2oXVz7EZc/+wwf3udO6OToQizlREQAQiigAWsgoVKkT3yQ/qMBiUgKVkyZLWv39/e/LJJ31yj8aNG9vw4cNt5MiRfjJqZVlMQPiqWgSSGYEE9F1KZiTU3f9j7ywArKqaOD6UdHcv3d0gjQgISIeiooBFKIKJKIoiBuIndoGAICEICEgJSEijkgLS3d3xzW/Wuz6QWGDjvbdn9PHe3nvuuefOrfOf+M91NXDxGjk4190oElbyEnVyexrA4xMZkli9VMUKhAKYutVL2O+5S9fKSgU2i37fIPMVtKzftEs/OyVvzkyyWsHW8RNnZM+Bw7Lyr62SOmVSOXX6jHygIYeinqfhE+ZKutTJpOODdeTo8VOy6q9tYeGEgKSFv6+Xtz75UerVKCX7Dh6Vddo34AtX2c7dB6V8k5dk+crN8mDjqpIw/h3ylwKqI8dPatjSRW2708Im9yiI3Lhtz7/qUN18OGiiTFSA2LxueQNrsXXSduLkGXmg6wBJq+OpXaW4dO8zWM6eOC2bt++TDwdPlqL5s6v1ndDLyNHtvwN0v5wGnAZuRQOAn379+snBgwelR48e8vjjj0vfvn3lyJEjt9JduLbhfUXeGjlk5JKdO3fOQGGfPn00rfWipEqVKlz9uEZOA04Dwa8BB8iC/xzf9hHyEnnsscduux/XQXBrIFHihFKpdD5NCYsjDzWtJneWyS8nFLT8Mn+lpFXSjBMnT8vSlRslb45MEk/BS2wN/8NAzUQpqW77WtcWck/1kgLZh5w5Z/lb5Lv9Mn+Vrf9m5EwLFUSLALIZ81Yauccrut1j992lSzWMkQ5VCIl88cnGkidnRnnvi/EK+o5oaliop4v1ofvW/esYAFyeMIH6c81WyZk1vTyr2z/9yD2WX7ZfAR+gjw/g8ZQCPzyBeMPurlxMXu/5kI3R4TFPk+7bacD/NHDixAlp27atMSs2bdpUTp48Ke3atTOgFBmjPXPmjDRu3FhatmwpFKZ+9tln5cCBAzJ8+HAZOnSobNiwITJ26/p0GnAaCEANOEAWgCctqoc8e/ZsmTBhgixZsiSqd+32F2AaUHyiGOWigrLYxoIIY+G3P8ySdi2qG0gaOGqmlC2eOzT/y+fYAEaxFKQlTpTAlh46cFQ2bN4tCdVTNmX2cvWUJZcZ81fIUfVoeXJR93POcsJE9uw/EgbGAGbJkiSQJm3ulmrlCsrhYyfljAI8dko+2lndBi/ZtQRQdg4SD80jW7V+uwE2xndRc8XwAD772L0yRMMw06hH74IuK5Q3q+amXYfE5Fo7csudBpwGolQDb731ljRv3tyKNNeuXdto8CnU/Ouvv0bKOCARSZ9ejTsKxChKnTdvXunQoYOReuAl27x5c6Ts13XqNOA0EHgacIAs8M5ZlI8YSx4FLsnfcuI0cE0NKJDJqTlhh4+elFptXrcwwzyaN7Z5+16pWamoFNd8LLxL5YrnMUcSACcUwMFKrwDJwNwlu9bmaajjcfWofduvk4z9+kV556U26jQ7L1Pm/GHA6LwCoCZ1ymk40AUpWa+7vP3Zj2GeLvrcuG2fFCrxsHz5/XTdb3bNVUsv+TRM8s2PxkidB9+QU2fO6r5DyUG8EM5LOh48bJXLFJAtO/ZJubu7yciJ821Z+jQppEj+rDJ68gL5aNBk+ejbnyVOPCX8+OcYrqkTt8JpwGnAbzSwaNEiadGixWXjoVD0jBkzLlsWUX/w3sycObMcP35c2DdU9wkTJpRt27ZJypQphTpoTpwGnAacBtCAI/Vw18F1NYAFb9q0adYGuuAXXnjBGKKuu5FbGTM1oACnQsl8Mvj9TrJXPVbpNEyRMESIM7JkSCUdWtcysFO5XAFJoOQc37zzhBQtkE0ypkshVcsq26Ju31TztiqVzm/ep2H/e1qyUmtMrcx4pga+86TWCUsrn77RXjJr/bJCebLKuC+fVy/WNtvfh99OlvjK0NiyQSUpXTSXOsRiSZLECSy/K7Z67D57o4NMVy9b/lxZ5MjRE1Igd2Y5oayOd2tOWBz1gH3x1mMGGtOkSiZZMqZWpsaT1mb3viOSJFF8+brvk/LrotWyX2uTQfbBePtrqGJ2HZNjWIyZl7w76sDRAEYfGA7jaEg1gkEGASCR3xUZQt+dOnWSLVu2GIkHNPtJkiSRzp07y969e81DliVLlsjYtevTacBpIMA04ABZgJ2wqB7u22+/LWfPnpV48eJZMvRHH31kYR5RPQ63v8DQALlZDWqVITHMijFDdlG0QHbzfuVWFkWYFgEyyD01S9lywhEL5dOwP12eP1dmya9ACW9Z4fzZ7Ju2EIZAFMLyAnmYwGjRZqW3HznpNylVOKeMmvybgT5yv8gvK6hgLVR0A3anfWfXos/tWmmuGd440sZYjvzzu16NkmHL6moumy1XD1ixgtpG20Lo0bReBV0eemwsq1W5aOg29OnEacBpwG81gPcbjxV1wfj2hDyyggW5ySNPMGxCfb9s2TKpUqWKkXmMHz9eQkJCIm+nrmenAaeBgNKAA2QBdbqidrBY9SZOnGhgjD1DN0/4IvXAqKnixGngqhoAcP0Dumy9B3z445rLfXry2nvf3irvb75jXVIixnhy6PBxGTxmttyrILB9q1oSB6bDK/fvbc+3B5y8vljm/fa+bZn+4f3tfYct91ng85PVTpwGnAb8UwMAss8//1zzSc/8Z4B4rSJL8L5t3LjRCkPff//9lk9WuXJlAZDxPnXiNOA04DSABhwgc9fBNTXw/fffm3eMBlgUCfk4deqUjB07Vtq3b3/N7dwKp4FI14ACoUTqNfuyfxe9ONVjRVFmI/hwCCnSde924DQQoBrIkCFDlI587ty5RrXfpEmTsNy1nDlzSt26dc1TF1UFqqP0oN3OnAaiQAMwphIS7OvtjoLdRuou/vXbR+puXOeBqIG//vpLypYtK2XKaAiaSvny5e33qlWrAvFw3JiDUQNKzqEMHaFgLBiPzx2T04DTQJRoAIPjvn37jMSHHUZEfbIKFSrIgAEDZM2aNfLII4/IN998Iz179pRx48bZsu3bt0fJsbmdOA0EmwaoI0gUVzCJA2TBdDYj8FhIeOblQVgFicgI3/zdv39/jQpznogIVLfrymnAacBpwGkgGjXAOw16ego58xk4cOBtjwYCEUL9K1WqJF26dJFffvlFyMOGyIMJ5eTJk297H64Dp4GYpgFCgOfNm2fM38E0F3WALKZdyeE8Xq/ALs2NkvyK7XzXX7HK/ek04DTgNOA04DQQUBoAPKVJk0YGDRpkn6vlmt3KAaVLl072798vGTNmtPpjEGQhJUqUEGqgOXEacBq4OQ1QF5f0Gb4j6j69uRFETmuXQxY5enW9Og04DTgNRKoGDh3cJ7NmzbRabJG6oxt0joWSWkuRzVR3g2G41U4Dt60BcqPr1atnRFaffvrpbfcHqyJRJUuWLJERI0ZYyZjevXtbhAmGzly5ckmBAlryw4nTgNNAuDRA7thXX31locXr1q0zrzP3bDCIA2TBcBbdMTgNOA3EKA3goT565JD89ttu9WBHb/jwoUOHLB8GRlYnTgOBrIF8+fJZnTCo8IsXL37bh1KsWDHJnz+/vP/++9K8eXP54osvLE/tpZdekhQpUgQVIcFtK8t14DQQDg18+eWXsmvXLgsFJhz49ddfl9q1a0vcuIEPZwL/CMJxAgOtCeENhE4Qx+4bLgibjPc5ffq0/P333xYCwe/169dLkSJFwg6VZMdkyZJJypQpzRpHUrGvBRsqXhhqvIt4+fLlwssjmBhrwpThftySBqJ3mn9LQ44xG+GVypGrgLRtE/2WQYgJHnrooRije3egwasBDB28B3fv3m21wm72SK/MZyEMEibF1q1bmzesX79+wruWdgkSJLjZ7l17p4EYrYGjR48K7N9e2C/zVebBkyZNkoYNGwa8blwOmR+ewj59+sjs2bPlgw8+sIusRYsW0rhxYylcuLBMmTLFRoyrlgvzwIEDxjTTo0cP2bRpk+zcuVNw6U6dOlXWrl1rbS9cuCBDhgy57EiJkyeBedasWZZkDFEH+wS4sf8rXyyXbez+CHoNxNV6XmfPu8dDpJ1onZBJnPhhjG63sp+LF5Xq3w+EGH6XU+oHJ8INIUI0ULRoUWnVqtUt9YUB9Gr3AqGJnpA7Rj6ZE6cBp4Gb0wDGjK1bt152jwHOvvvuu8ucFzfXq/+0dh4y/zkXYSN54oknpFu3bsYgA+DCA7Z582bp2LFjWBLw9OnTrTgzjE14ufCOUWQSr5oXA491jtj1OXPmyJ9//mn0u7xsqlatKk8++aQ8//zzcu7cOVm8eLG8/PLLxqrIi4M+rvZSCRug+xH0Goin19TZS5p8Tm0v0TpfTiJUAydPnJJESVNGaJ+uM6cBp4Hb10C1atUsnPBWeoLm3onTgNNA5GiAyC9Cf5nzQujBvZo4cWKL7GLeSgijr+BYwNnAnJqIME+Y9/K52jwXrxuRaXjJ2Q998MHwCJEIkiNHDmsDQKQPtsHxwZybfkNCQswj7u0vvN8OkIVXU1HYDlA0fPhw+d///ieLFi0yr1f8+PHNy5U0aVILfxg1apQVaKbGCbVTEOqmpEqVSmgLZS+/odbNli2bhS+mT59eAHIAMjxsrEudOrXFtWfPnl369u1rxStd0ecoPNl+vKtqterJ76snS/GCOf14lAE4NH2AT/51hdR/qGcADt4N2WkguDVQqlSp4D5Ad3ROAwGqgQcffFD4IAsWLJBXXnnFSkj4Hg4ODMLoAUoAKoh1AG/c1wCrJEmSWB3Ar7/+2tZfCcrII+3evbtFkDFPZh7NnJxSFThIiDwjuoyUICLPcHKwjxo1algZC7zrzN35XNm37ziv9tsBsqtpJRqXEXKI94q6JYQeEqqIhwvETfwsuV9vv/22HD9+3NA44Q8eamfYWAtA71wcXERskzt3bvOg0RfMUWPGjDG3L8UpZ86caRcceWvJkye3sEf27cRpIE+ePDJ19YJQReAkc0llt39R6Evi6LETkiFvZYl/Ryj99e136npwGnAaiCgNuDzqiNKk68dpIHI1AMC6Uvbu3WvRYnjEcFKQ6rNy5UpZuHChcSpkzZpVcDrghMCZ8cADD1zWBR4uwiA7depkTgq2p0358uWtHc4OvHE4MzweBjgf/vrrL9sXJFc4QW4WjNG5SxK57FRE/x+ZMmWyCwGXKS5QQiC4gAoVKiR58+YNuxAIS+SiwErw66+/hn34m4uEGHUAGYUo8ZgB1M6ePWv9fPzxx/LYY4+ZpYAjbtasmRV9/umnnyxnjbZOnAbQQPkajWTEtLVy8uQZp5Db1AAvj4OHjsn4BfulQuVat9mb29xpwGnAacBpwGnAacBXA4ChXr16GSACFL3wwgvSoEEDmyNDPsWH0EIcHm+++aZ5uPBykfbD/NsjDIHDAbZVnCAwOUKcRxgjII65+ciRIw3wzZ8/38AY33jPiEJbvXq1OU18xxWe385DFh4tRXEbj1mRC+OHH36wkwvSxyuG94pcsmeeecYuHEIYac+FxwdGJyx8/GYbQBnEHdQJAvljFSDO9vDhw9Zmw4YNBvrIRaN/kiOdOA14Gkim11fd5o/JsiXzZMemlZIkfiyJE/u/Vimvvfv+rwbQ1oWLseTEuTiSu2BZaf1gC71HXV7efzXlljgNOA04DTgNOA3cugaYD1NWgmgzgBhCeCGRY48++qi89dZbVtKCfLTRo0ebw4M2zJd9mRpJ8WG+jCMEoAVDKlFkhEMC4N544w157bXXjOMB4MYHRwjru3btak4Q+r0ZcYDsZrQVRW05scTB4tEiPJEwQ7xWuF1xk/oKZB+vvvqqUegCtGBb5ILEGs/F07lzZylXrpyxM9Iv3jJqohALCxh78cUXrX8SFrEEcFGmS5fOQJ3vftzvmKsBQNmd1euI6OfQocNylmTYmKuOWzryBAni20vhljZ2GzkNOA04DTgNOA04DdxQA55Dg+LR9913n4EyuBZatmxp82RCGpEdO3ZYug/OCYTl5It5MnfuXGM6Z568atUqK+COMwTnhucEgdmcCLa0adPaZnjeAHp40HCK3Kw4QHazGovk9rhE8VIBkABP1FfAC8bFA2C6kkXm4MGDVrUcbxoXg3exAcj4QGEPKw0IH8p8kD3CRciFVU1ZaghZhOADC8L9999vpB+4cl2dlEg+2QHYfcqUKQJw1G7ITgOXawDjFC9TQsERwlG86AH+5oXrm0vEc5XnKVZTT7DA8jfPXWrhEI1AEjgW1esJoeb07dv/9dq7dU4DTgNOA04D4dMARB4Q1CFNmjQxr1eBAgWkadOml3WAowIOBe85TCgiZSs8oXA764k644MAtHgPUHKKvDKe5du2bQublwPC4G24FTBG/w6QoQU/EkDQc889Z8BpxIgRMm/ePPOUcREAzABWCF4sJgJMAmBNBKjxt3cxZMiQwah7AVlt27aVzz//3Lxs99xzj23PdtQqe/rpp+W9996T0qVL23JqkUETeqsXlHXi/nEacBpwGvBjDXzxxRdWCoTnIcYswlF4wcLAlT9/fosawLrKsxWBAAmDGKHinvBMxZBFMjdRCu+88471wfKyZcvac3TPnj1m2CJcnMnBrl27DAiSKF6/fn2vK/ftNOA04DTgNBBBGmC+jNMBkMUzF+cDc2fmvQA20nPgYfCd565YscLmyZDkwcNQuXJlo8vHMYLXCyMdgAwnCO8D3hesg1jPA2yAO/bH/m9FHCC7Fa1F4jag8jJlytgePHrPq+0O2k1O/rvvvmtAzGsDCQjAjNhZLraCBQvaKkg8rhTWk7joe1ESGklNMidOA04DTgPBqAFKiuARw4gFUIIUiciAsWPHSpcuXezljYWVPADyAWDnwgNG1AJFSckTIOqAF/Mff/xhBjOeoYSY0ycvdCynPIN79+5tBEq8wKFTJgS9du3alz2zg1HHMeGYfN+bMeF43TE6DQSCBogyg7Z+s6bztG7dWgg9pA4vRjOe59DSA8h4lvsK7wJShZhbkx9GjTEI8ABw9AVLeYcOHcyAB+MiIZGEMvIcAJghzMmJnPjmm2/MsQJV/s2IA2Q3oy0/agvoQrxvb2je354b1lt+rW/3UrmWZtxypwGngWDUQEhIiOZCHrIIAZK6EXJqeXbygq1evboQnUCdGkLFKRsyefJkY+Vq0aKFvaCHDRtm4SxsS9giJSImTpxo1Mi8/IsVK2Z/E+pI1AEvf8qXhPe5TL+BJqdOnZH1G7YFfX5p4iSJtQJIHFmxcoMkiJ8g0E5TuMd7Ua382bNl1EibJOHexjV0GohuDRB2WLduXWnUqFEYsQbeLj5LliyxZ3DJkiVvOEwix4h0QAhd5DeGODxleNzWrFljzhOMb74CaMOThnPlZsUBspvVmGvvNOA04DTgNBCwGiCKAFpiogEIAye8BMMUH16kADMsolhK8ZQR/g3IImSxePHi1p5lhD1S7xGghRWVvDT6pG8IlfhNngIhLQAz8ne96IeAVd51Bv6nApTz5y9IurT/5mFcp3nArrpw8YJazj+VuPHiBzX4pF7izF+XSOOG1QL2XLmBxzwN4K0i4uFq4qXmXG3dlcs8MMZyjHQIz3RPPD4G7++I+HaALCK06PpwGnAacBpwGggYDeCpIpwbdiwPkBGCCCgDkMFWCwh75ZVXLASF3yHqWSPPgHwBgBzhKBAwkfcL0GIiQL+EOPLiXrx4sQE6wBhWW8g+8KQNGTLErLUBo6xwDvTipYsSkj2jZM4UyjgWzs1cMz/VwJGjhHXt8tPRuWE5DQSfBhwgC75z6o7IacBpwGnAaeA6GsATRo4AwIqQE4AYOQR4wBBCF2GoBXDBnEhOwcCBAy3UEeAFGRK5YE899ZSx10IGMnToUGnTpo2BLfqjDTllADe8awA0whupkUMR0mCUW01mD0ZdBPox3SIvQaAftht/DNEAOb9ENnhh5EQ4eOQcviogdxiCEF+GXd/1EfnbAbKI1Kbry2kgEDSgBEAHDh7RMKqDGqJ10S9GfIdOcs/qgy8QBP6kUEKIs6LJJNEi5xVQnDhxKlr2Heg7BRjxgqV+DMnd5BaQU0aJEcDZokWLLO+rZs2alsBNMvjrr78uJItDeDR48GCr5fjll19aeCJJ47zc8YwBzPCO3XnnnUaHTFs8bsuWLbOQRvIKmABAt+9LsRzoOnXjD0wN7NF3wMWL+hD7B33xOEufLpVes7ED84DcqJ0GwqkBcn6JXqA+Gc/wH374wYpG83zmOc06ntu8L3777TcjecJolzNnzrDyUeHcVbibOUAWblXF3IbQQjsJHg3kzJFJli1fK7PnLPOPg4oVW3r1fEpe6/0/nRf4B0C8nmISJEgk77z9snTs/ILE0Yd3dAjzp0oVikXHrgN+n6lTp7YyHxB3dOvWzV6wMGPhLYMKGVAF8yLrYVoklPHHH3806mPyxWCmhf4e8EbY4yOPPCKdOnUyBsX333/fvpMlS2YWVRi9eH4C5kg0BwTiRYJGmTwzzzob8Ep1BxBQGjh48KjMnL1Yliz/S/LlzS6JE4aSkxxXI486d6XtA64kQ0CdUDfYm9YAZEsYy9q3b28RErDjwrILaQdGOBh0eU5XqlTJyJp4Vp84cUIggoqM/DEOwAGymz6NMWcD6upQu8ELQ/HYY0h2pP6Ok8DVQLMmNfxq8M93PyH+NqbrKah/P5FWzWtfr4lb56cayJYtm4EmSoEAmBAAGQxcEHAgpUqVsvAVSDuoXQOIq1ixor28YV9EoL/HqopH7bPPPrOXNDXMoErG6jp//nxrxz+wLm7YsMHo9vmb3DVqkTlAhjacRKUGeJ+P+GGahGTLJNUql5R1yozZtk1ofdITJ0/LqB+mR+Vw3L6cBqJcA5s2bbL6kd9++61FRnhzXAZCjV9CyvGOEa5OeDsgDQGQEeYYWRJ5PUfWiF2/UaaBjh07WigOluApU6bIgAEDrMaOV3MhygbiduQ04Gca4AHOfRGZD2c/O+SgGQ7n7JNPPjHrqHdQmTJlsrBE728spAi1xK4Uj6mrXbt2topvcsYQLKeAM/4GzDlxGvA3DeBdJ9z59Okzcv7CefUAHw0bIiFZTpwGgl0D5ARzrTOXJXzcV4iQQHiGE9pOdIMH2PCiRWYumQNkvmfC/b5MA+RC8GHiicAmxseJ04DTgNNAIGuAUJUrxddb5QGsK9vwt7fO+76yzbWWX9nO/e00EB0aiB07ljz8YAOZPGW+ZMyQVp7rVjk6huH26TQQLRogb5ioBzxf/CYc3QNcDIiwciIdWI+hrkCBAvbM5++jR49aLnBkDTx6EiAi62hcv5GiAS5EJ04DTgNOA04D0aMBSEPIZ/vwww+NLCR6RuH2GiwaSJ0quWTLmkFy5cwsCRPED5bDcsfhNHBDDeABg+kWIW84VaorpEUPAABAAElEQVRUls8LkQefNGnSGAAjTD1hwoRy5MgRGTNmjHqUT1voIttEljgPWWRpNoj6nTdvnh0NMbXhqXAeRIfuDsVpwGkgADQANfH+/fvDvFcBMOSbHiI5b++++658/vnnVs8MdsiqVauaNdcLs7npTt0GMU4DeAO+HTpRLii74sZNOzV0N5Y8cF+9GKcHd8BOA7w3IHCC3ImoCQiYyAFu3ry5MS9C2sScF1AGcy7U+IMGDZLx48dLw4YNI1yBDpBFuEqDr8ORI0faQZHA7gBZ8J1fd0ROA4GuAWjrf/7556DP6SN8hkRziET++usvIyKBiv/KPIhAP59u/JGnAXLIEidOaIQelM/47vufI29nrmengQjUAOQafMgDxrBA9BYpNYSJXy0MPTy7poQNH7anX9JyoLknVwyvGM9bakrym7qT5BcD2qhDGdEpPA6QheeMxeA227dvNyIPVAD984EDB4xxLAarxB2604DTgJ9pIEOGDOKRbPjZ0CJsOOQ6UJy6TJky0rNnTyMQ4bidOA3cjAbIIcuVM4uMGTdTVq/dLAXyhSgF/lKb4B49dkInvIrYnDgN+KEGeAYOGzbMgBNkG9DUA4oIM/zoo49uirXWKzsCCINNnBxiQBnFockxy5MnjwE+wNeqVavs93333WfP36+++ipSjH8OkPnhRedPQ4KNpkmTJjJt2jShUOr//ve/y9jI/GmsbixOA04DTgPBqAEYwbDYzpo1KxgPzx1TFGugZPF8wuf3P9cZEMNrhiRLlljq3FU+9A/3r9OAn2mgcePGcvfddxsII4TwvffekyxZshiQ8iVlCs+wmcsiw4cPv6z5/ffff9nfr7/++mV/8wcgLjIkcnqNjJG6PqNcA5s3b5bVq1cb3T07b9q0qd0AWCWwSDhxGnAacBpwGoh8DZDbUKFChcjfkdtDjNJA8aJ5Y9TxuoMNbA0QmgjzNwIAw5vFJ1jEAbIgOZMXLlyUM2fORtjRcLFjOejW7Vk5e+68WdG4GTo8+piQU/bww+1sWYTt8AYdxdMYX6zEJ7Vw5YULwRtSkSiRKytwg0vBrXYacBoIIg1cVPfMWX13XdL/nNyaBuLGiauEBG46d2vac1sFogbIIQu2unnuDg7EK/EqY/7hx5kGyOIokIoIAZBt275PsmSLI2PHzdK42QoycvQvEideGln7xxz5ccKvcumf6uURsb8b9QEYzJWnlEz6eb4mcEbMMd5on1G5nuPbtmOPtGhaS0KyZ4zKXbt9OQ04DTgNRIsG5vw6W9avWiypksaVOJrb5OQWNKAT0+OnL8qleMnkrnqNJW2a1LfQidvEaSBwNLBz507jM5gwYYLlkQXOyK8/0oAEZBRnoz4AYRz8TpYs2TWP0rfgG42Y+LKMbwTGFq8Ny3zjUPfs2XPdqtzUhmFbxsH3sWPHrI6Bdaz/QIJBXQPfPr11Ef0dL14cnczXjdBuW7W4K6y/Nq3/7bvtAw3ClrsfEaeBJUvXyOEjx7RDB8giTquuJ6cBp4Go0ECc2P8ttn2t/Z4/f0Gm/jRS8qc7JZUbFdIXs7Z0DrJrqevGyxXMnjxyXGbPGCKFKzSWrNmy33gb18JpIEA1MHv2bCvqPGXKFKEcSPz4wVFLL+AAGSCIWiwtWrSwKtqfffaZ9OjRI+yyWrlypSFnABJVuMeOHWuACWpMYk/feecdmTlzplFl1q9fX77++mtLlAY05c2b19ir6Awa5ZYtWxrFJZSYCG0KFy5sxeQ++eQTY2KB6QX64Vq1asmoUaPk008/tbb88/jjjxvzC/v0qDkZF8nZzzzzTIReRDAjndPQQhe2EKb+gPtxTq/RuAqsg1E2bdokmTNnNnrZYDy+mH5MGzdulN69exsTVUzXRUw8foyZ+w8ck+effzZch//90K+kUflUkiRJOhEFZ05uXwOJEiaQuhVzy+wl4yRW3BaSJZNj4Lx9rboe/E0DOFEocULh5mzZsglz/lKlSvnbMG9pPAEHyCjgRtwo3ihoLtevX28ADaCDN4oq2t9//72kTZtWMmbMKA8++KDMmTNH6tata4CJQnAlSpSQatWqWU0tWKugssyePbsxCKJF+n/hhReESeTEiROtXwguoNxcsGCB7ePw4cOyZs0aqwOTKVMm2bZtm1X7Zl8wsOC1gzKeegZQZvbp08cAHeAOgMY4ggXV39KV5zaKURp47bXXBMZOGJGcBJcGeM6++OKL9kzzIg+C6wjd0dxIA5z3c+cJJb9x2OHKlX9KlQIJJElSTc6PwrD3Gx1DsKyvWianTJgzTjI17xAl0TnBojd3HIGhge+++86A2N9//20FnHv16iWELgaDBBwgAxgRSshn69atUr16dSldurTMmDHDPF+TJ082bxQFjGEIpIgbnjKqcQPiXnrpJaPM/OWXX2T//v2yYsUKqVOnjoUcUo179OjRMm7cOKvK3aBBAwN9jRo1sv5xj+bOndv2u2zZMgNaoHQ8b+wX0Pf5559LlSpVJGfOnAbs9u3bJxs2bDCARxE7whsZj5u4BMPtE/5jwGDw/ahpsmfvId3Ii82JpaA8rrR7qKF6juKFv7MAa8n1vnTpUvn9998dIAuwcxee4cJy1aFDh/A0dW2CWAMLFq8M19Ht3rhcChVP5cBYuLR1C4309ZI/S3zZu2e3ZMiY6RY6cJs4DfinBk6ePCkAsiFDhghz+EKFCtn8m7JMd931b4qNf47+xqMKKEC2d+9eK8oGsAIIEVLIRA8Kdqy0THoBWMuXL7ewRQrGEUYzd+5cA12ALUIeCSXEq4UXrWPHjgJowitGCCNerzZt2liff/75p9U3GD9+vHnJ2BfJhHjYoCCmLwolU6jz7bffNkp4QCAALl26dPL+++8bsCNsknoJP/zwg5QvX97G6QDZjS/OYGlxQpkhT548Zflh97esrSAsFHzF0hDY+Qv+1OvoXMABMu4DgBb3HpaqggULWpgv9yBGB8JyvWscwwnGjsWLF9s9Fizn1R2H04DTwL8a4N6/kZw+fVpiX8Ag6YgnbqSr21mfInE82bJ1kwNkt6NEt63faeCPP/6w+TZzd0IXcXL07NnTSjORNuTNOfxu4OEcUEABMkBYp06dzOs1f/586dq1qwCayAkjlhRQhbeKsEDAGDlfr7zyinnGCE0kzJBQREAaAKl169bSrl07835xIgFjULpTMA4PGF62hg0bSqpUqWTHjh1m4WfySf/0DTADjEHe8cQTTxgQBMEzhkWLFgnePIAaoYtvvfWWbNmyxdokSZLEJqxFixYN52lyzQJVA6dOnZH3+g/VayKhApiT8uXAcdKmdR3JljU0vj+JLtenSEAdHg/C/v37230QEhIiTLL4JvQXDzKEOx9++KEZMzgwr8o99xQP0DhxgjNPLqBOYgwY7IkTJ+xZHAMONWAO8ejRYxIv1vmAGW+gDhSj3+7NOwJ1+AE9bghrMLLGNMEgA1fCuXMX7Ds8Bpqb0VE8TQVau3adNGvWwkof5cqVx0oy5cmdVw3D6eTEiVPRHqJ7u2WLAgqQAbgAZHjByCV79tlnpXbt2gag+vXrZ7lbhAoWKVLEwhjJ5apZs6aFIVLdmxc01nsmhAAwvFyEGTZr1sxcn/QJsQfEHA888ICULVvWQB4hjJCIkD9GThpeAWp0MY5Tp05ZLtjDDz8sDz30kJQrV84mpOSSkUcG4AMc4onD1Uqf+fLlM4/CzVyMrm1gaiBu3DhStEhufUBdkLV/bZZCBXNK8mRJAvNgfEadNWtWu7bJq4TQgXsBA8YjjzxiAMwXdBHOi/cZIwVeteTJk/v05H46DUSMBpgAkPeLgQ4DHKHsTz31VMR07nqJEA3gQ9NXr5NI1gAqvnTJkaVEspqv2v3Q4ZMt4iXQvTVXPbgbLLynQUsZPXbGDVrd2moc8MlSZpe16/fIqrW7pHmrR2XBonVy8dJaKVW2lkyYNPfWOo6ArTjXf2/cLve1uFty5Lj1MOGAAmSQYJCjRV4Y3ixewIQxVqpUyaz1KVOmNNViwceDRu4WDIh4t+bNm2dtYGjEu0WboUOHSq9evcxThpX/zTffDEPY/A0QQ2BSBIARjogFAC8A4BCSgnXr1tkEEyCIAAbpH3A3ffp0W8/kFDbI4sWLW1gX+xw0aFBQVRi3g3f//EcDsF42blhNzqjFjOv13vpV/tMmEBdw/3CPrF271u4xrnG8XyzjHvGEdniEifUOUS8aHmaAmxOngYjSAPnEGAaIbvCexxjOMI5BqhTMwj3HcWJodOI0cLkGHPK9XB9R81eSJImkyb3V1PAQfPVSb6RBjC0Ap5gmHDfpJwcOHY05gAwUCosicu+999rkj/DC7t27mxcMoPTxxx8L5BsZMmSQxo0bW42CwYMHW8Ifni0S0AFpADReZOR1Aa74EJ9K7kuIThw9rxaTy0mTJlk/AwYMCJtsPvfcc9KqVSsDdl9++aV51WBqhPq+WLFi9iF8kW3xGpDHhlcBsIbnzknM0ACesWkzFsrpM2dl9ZpN8vPU36RSxWKSVB/agS6AMOK2ycfEo0wIMBNgQoMBn9yvlI/AAw0Qw8sMK6oTp4GI1ADPVJ7rPP+59rjmMNQRWs51GMwCIHPiNOA04G8aiBVjPcH62o+Romf8to87IJEBL1qs7niZCFUkl4zwQPJWADsAIF7MXbp0CUv8g+iDl1eNGjUMXI0ZM8bCD2FphOwDIbcMKyskHrzkhw0bZuGIbEfdMeodMPHE84WXi/w0wmK++uormwQwHtgeCaWE3puJKiGQBQoUEArZMSYmqUwenMQMDRBLHke9ZHdVLC61qpfVkKodOlk8FPCADJIOQnjxSEDaAWFHxYoVLd8yT548YYCMvE9YR/FW8ztXrlwx48S7o4wyDZDgzXOZD2HpCxcutBxHnvFEMThxGnAacBpwGnAa8HcNBCQgA/DgKfviiy9Mv1erQQCxAN6qawkhVFOnTrVJoteG+mCAJgATpAWQefgKHi8vNIt9eiGSvPSpKwYYJFeNPDF+0w8hW4A7wB5AEiFvjfE5CX4NxIkTW3Zs3yPjFYTt3ntA0qZJIbVrlQ/oA+d6piQEnme8zHiX8XzhgSaUGCZR2jhxGohqDUCohNGND14yJ04DTgNOA04DTgO3owEiLcaMmyXnLPXkn57UIUbkU7PGNSLMwB6QgAxLe0TI1fqhuDRyJRhjma9ny/c38fu+MfweUGMbAJzvN7+9sEtb4f4Jag3Ej3+HPPxgAyP1GDNuprRoWksBDExE5xW0xFKv7cWAO37KTuzatctyK8kZg2UUUIY3GM813jMnTgPRrQFKjzhxGnAaiHoNEFXkzX0ieu/XCkMm+sgTUk281JDrjcW3nbet+3Ya8NUA19uZM6EcAK1a1FYnyyWbu9Fm6fK1mjp1NmYDMl9lud9OA4GgATxl6dKmlHE//XrZcGFhjB9gRaHxfmF04IUHAPNyMSHXwVNMeC8U+JH1Qr5Mge4Pp4EI0gAREEQu+E7sbtQ1Ezquc7a53sSPfjBekJvsxGkg2DVAXv9LL71ktV69Y4WNF+Md98qVoArjOAy8sFNzjxBZFDoRPmPL2aZ9+/aWi0zeP+8eltGO+4/7kBJFMGdTG5Z9QwCHvPjii0L0k6/s37/ftnnttdekR48eFr1EnxjkXXSHr6bc798WrlDmyF8kcaKExgOwd99BeefNzuqg4TqN2BzlgPSQuUvEaSDQNMDLo1qVUoE27KuOl7Aw8sUgT6hataq9QPGQVa5c2V6ivBA5XidOA/6oAYATrLnkm+XIkcNKp5B3hhGBCSG5vxA/UbOSvODXX3/dJmxM/jwhNJ2wSCZ75ExS9gSCKXIkmRgyQYQVeN++fTYJ/eWXXywcHqIp+mECCoGUE6eBYNAAYIraroAaABLM1rBhZ86c2d4JISEh9r4YO3asRRNRN9YXlMG8S2kUlpFqwn1EWDzvGu4lShERlUHpFMoG0Y5IDdpRi5b3EPcwgIx7jfE8+uijZgSBrG3nzp32TqJubOfOna0PtiGyyeMa4J7/9ddfLwORwXBu3DHcngZKlyqo1+4xWbh4pVQoX0RSJE9qYOz2er361g6QXV0vbqnTgNPADTQAo+JPP/0kd955p01Oaf7zzz8bsQ2Mik6cBvxRA0wYCTkHMMGCSy3Lb775xoDXBx98YNZ0Jn0Are+//97In9hmltY2w9CA4QEwRQ1KciaZNDLJYxIIeRO5yYAugByADs8bE1NCKD0iHKzwjnDEH68ON6Zb0QD3Ur169eye+P33383rtG3bNmPdxQhBJEX+/PnNsAEIIqoCwwhCbj3r8J4tXbo0zItGP7BZc8/BnA0wo4Yl+crcSzD3AtJgr4ZUijQTgBp1L3v27GnrCZ9nXNyP7A8jCv0xHl+DCNtt377d1t3K8bttglcDdygp2z11K2m9s0tyV42ykXqgDpBFqnojrnPCXSgsjYWHBxAPJudajzj9up7CrwFeXrzU+G7SpInV5+vQoYNZK7Ey4n1gvROnAX/VABO5EiVK2GQQttyMGTNaGRMs8IAy6pjB3stE0yNjotYkz9yiRYvaYS1ZssS2w0tGYXRPuC94PjPhO3v2rCxbtkyYnCLcF+yb0ihOnAaCRQOArIIFC0rHjh0NbHF94wWDBZtoilKlQqNDqOkK0AI0IRgrAEJ4sTBoEK5ILjLtMfhR5J3oC9h8CYfnPsLrjMeL7bg3icjgvsRbBkijxNDbb79tdWQpFO8J21MuCaEs0v333++tsncZQI9714nTgK8G9u07LBMmz5FNm3dqVMVJ9arGlaaNqmuTiJ/j+A0g40ZwN4PvZXD5bx48uNifeeYZeyhhYcKlj3XXl1Dk8q3cX04DEa8BXqq88Hj5MXHlRQpRDSEkWB6ZjDpxGvBnDXCtIhgQsKwzWSPE6ejRo/YeGjhwoIU+EYZIWQfa85wlD2bVqlU2aSRXEsDGtrTx3l98U/bEE+4Nj+gJQEaopNfWa+O+nQYCWQN4i9u0aSPFixe3e4VjwXuMEQPGakBU27ZthdwtcsA8Y/LmzZvlySefDDv0LVu2GFM1QAogxnsGkEdII/cUuWGEBwPYKCdEP3i7CVOkHblilMHg/gLsefc5O8Co7XnluGcpKO8J7fHAOXEauFIDf6xYL8WL5pFmjWrY9TPyhxly+MhxC128su3t/u03gIwwDyZ4zrJ+7VPKwwfiBDwQxGITHsaD6pNPPtYHU8Sj9WuPxK2JyRrAm0DpCV6sGAXq1KljL12sjuPGjZPHH3/cEqrdvRyTrxL/Pnas6njCmMz16tXL3j1MFikuTXgT9SUxNDBx4zrmw6SNcidY+CEYYELHpBCPFzXPvMke30QyUP4BoU/CH70+AHFMNp04DQSLBgjp5Z3A/KRly5YWuktOGYQZeM485l28Wh999FGYERlDhm/oIICMHMzVq1cbOZQXCsky7kuEbSDf8UAd3wA7jClPP/20hU0ynrYKAL39sh3bYxjhPgaoUbaFMkfUsKUP7kn3zkJTTnw1kDNHJhk1ZoYMHzlNQrJntOsnWdLE1iSirxe/AWR33XWX1KpVy1cP7rePBniYMAF+66237KHXp08fsxJh3cVye/HiWp/W1/+5e/deOfqPhfj6Ld3a29UAL4asWTPLHXqOgkW4Fj/77DPLpRkyZIjwITeGlx9kB563IKIfVsGiP3cc0a8BwhTJOxk/fry8++67FoZIqBM1JLHEA8gAVnjDiE7gPmbSRq6Yl5OCNf7bb7+18Ce2IzwRYcLH9gjGi7Vr11phdIgO8BgwGWS5E6eBYNEA9whgDCF3EiMdRgvPKAHoQbhnMHJ4Qliir3Bf4BWDHASPFf1yP2Es4T711kGKwz2J8M0ciHbMh/ibd9Sbb75p7yjPEPLxxx8b8Qe5mxhhGBP3JN49xopXfPTo0WZQ9B1TVPw+dOiw7D9w0I4hKvbn9vGvBrheMmbMIIkSXp0BN2eOzNK1c2v5ZvAEubNCMbu2Vq/ZJLHUCbJx43bJliXiyqv4DSDzrB3/qsn98tUADyesQlhnvVppvutv9JvJwh/LF8vqpTMlVdK4kjhB6MPsRtu59benAcqMzZt8TFJnyCUlK9wlGZXBLdCFl13NmjUNhGHRhACB0C/u4datWxvblrufA/0sB+/4AUQwKkIkwHMRAhrIOLCQM0HEco54k8Dnn3/eJny+1zS/IfNACK/iuVy3bl2bRJKLgqeY/mFt5BtyAu4NwiLJf3n//feFeyd79uzWh/sniDSg3lSdWQfRAYXvUGDdJRcM4EN6xfz58y2H7J577jGjBXmWV4YF4mWGzIPczTRp0hhBFEY9cskAdoA3QuQxangGD94/GEsAYAjfLKNvb5k3YginAGu0Hzp0qHnE5s2bJ02bNrU8tnbt2pl3G2ZHPNnctzwfoqpW7JpVK2TZb1MlQaxTkiJpfPXQeSN331GlgQsXLsnCQ6ckUcpMUqxcTWXezfmfXd+hpYnKlylseWS+K1OmSiYpU0VciobfADLfg3S//6sBXPdeQup/1954yYyJ30vZ3HdI6frFFNnHvvEGrkWEauCMFg/8bcEoOZS/toZwFIjQvqO6M2LzISpgYjlLmedIpoYumJwaQrc8y2VUj8vtz2kgPBoASEGQxOSNMCto7pkEMnFkMskEEFbEvXv3CvWUCG/kmgeE8WHiiFGMiR6CBZ4+IAlh0sj1j/dt5MiRFtIL2APcYZWnL6Ic2O+IESMMqIVnzK7NzWvgglrDLl66KPHiXmeao3Ugw2bB5y/IRd3mnE7sb7U25OkzZ+XYydOSOnkSu1ZuftSBuQXXNfMTPMAvv/yyFClSxEII8UATwu4Re3igyjvKHFp2gg/vEu4roiyIsODe4j7CcIL3CsCFYYS+yAXD6OFFYPDNh/BIwpBpy71NOyI5uGf5m5QY5lF4zri/AWZ82JY2X375pVSpUsXCmL3xReb3pAljpGDaY9KqVh6Jw3XoJFo1cO7sOVm76RdZrM/qMmX+y6ZYvFhe4ROZcp0nVWTu1vUdlRqYOWOKlMgWS1KnTKLmJN2zPpycRK0G4sePJ9Uq5pMZ86ZJ1iyZJek/IRxRO4qI2RuhHrxEYdEiJp8JLsyfvXv3ttozvAT5OHEa8EcNMPmiZhEhSnioIO7wJnFcy0zYCGvCoj5t2jTzBLONJzC+kbuLR4yoBSaPWPC/+uors8RDYEC/UGyTY8b6bt26GeEN4VEwk7I9Hyc3r4Ejx04qaLogaVImvfbGCsK69/7azseHbz4qusHlbdUTsXXHfvlkyBRZ8/cOyZg2hbzRvbV8MWy6LF+9UUZ92l2Tjm7+PTlhxlJ56d3hMmfE65IhXYrL96l/nVLD3EElBMiULlUYDvxPowBcgIECL5NvKC7LIH2CzRCv040ie/Bwcd+R14kA4sgv82VDrFatmgGoKz1hgCqWAeIgCeG9hAEEr5cneMPo22N8xHjo5ZhFNRHV1i2bJWeygxKSTSNmCKNxczLvNEXbd7x4caVI/kwyd8lSOXa0gM7RrvN8iaRROkAWSYr1l26PHj0ux7YtlgwF9OXPje8k+jSgk4JS+dLLxvWrpVip0IT/6BvMre+ZFx/U37xAyZWhVhOADJYtJqIU6mTiyWTVidOAP2qAkFuvMCyTuWsJpDV8riaAOFjfAFwQLfGNEB7FvYE1HsFzgPfNm0R67Wyl++emNAAYu6tNb7m/UWV5qn390G15r3EOIbbitxFcXZJGtcvIWYCYnieJo4AagOV96+Sr06tfy4q1W6RNoyqyct1W2bx9r9xdpbjkyZEh1HDptQWMM2HmY8u0P9++wpZf0nN/Ub2kGjqH5ZMx0V5/qutN1FknHXt+ZWMa+kGX0LEzVq9/7/0ctt9/juemNBQ9jQFCvmDMdxSsuxEYoz15Y3w88SX78Jb5rveWXfkdEhJii3zBGAsIrb9SohqIefufPXWsPFA3j5uTeQrxl2+9B0vmT6uEeeOkSYs2UT6qf6/+KN+122FUaGDZsiVyd+VC7saPCmWHYx8pkieWcZPmBDQg4zCxLBKGheeAEgyFChUyLwEFO1nmwFg4LgbXJNo0wDUKYcDtCH14oIvfnjAB5eMr4ZlI+rZ3v6+iAQ3rGjxmtuzef0jGTV2sSfh3yJoNO6Tvc/fLguXrZPyMJdKjYxOZPGu5YaBzCsbi6nk4dOCovPnJGClWMERmzF0hJQvnlC4dGsj6TTulcL5s0ls9Y6IRDIqUZOT4ebLv4FHNXTorr/YfKcUKZJdZC1dLnuwZJFvmNDJp5jKpWq6QNKtXXt76ZKzUqVpCw9yKSafnP5NHW9XU8x7bqhMB8oeOna1j+V0S6zg7t60nh4+ekAW/r7MQyi+GTZN2LWvKZ0OmybwlayVzhlTS6cE6kiVDaunV73spmCeLrPhrq/Ts0kwSxr+96/QqmnSLolEDkKqlTXRSATtgXVG6E7/SQKKkiWT3pgU6pqgHZP++RfxKJW4wEaWBs6eOSfwE7oEeUfq87X7UIho/zgUNXfmXaeq2+4ziDvAMEJ4CzTD5MbDTEfdPCAjECPx24jTgNOA0ENEaSJRAiQ8EIBxXsmZKI6Mm/SZLV240MDZs3Fz5ffVm+WbUTPXQn5Gpv/4hM+avlBP6e9SkBfKlhiPu3HNQ+n01Xg5qsdeHmlaXpSs2SvG63bSO1VJRKlyZu3itEHZ4/ryyGv+8QN77csI/20yQERPmy6GjJ+Xp3gNlj24/cuJvslbDHdWto0BxlmzdqQYqvGIqF9WDtkT7blizlOxVQPjSO8MkgQIr8wLhMdIcs0+HTZU3BoyW/Lkyy0wdZ4cXP5dTCgTHTlkkPd4bLnv2H9H5Ou61wBJytXyZFANr9JE/2t27d0rm9ClDPa6Rvzu3h5vWQCwJyZRK9u4/cNNb3u4GDpDdrgb9fftLV8TO+/t4Y8D47lDj+ZXJzYF22HjAIPPAI0ZoCd4yErth0vJCswLtmNx4nQacBvxYA5o31rRuOUmYIJ7crZ6pOrXLSt6QjJrzsUaB0U7Jo78X/bFB/t68W71hOTSq8FJYntaZM+fkxScby1vP3aclX05ZLld39ZL16trCSpK0fup/8seydZcdPKGHTz5QW97s1lqdZxek+6MNzAOnFBKy79CxfzxhukkoBrtsW/6oXbmozF602jxju/YdkhLqoWO8eXJmlBata8poBXTV1Nv2Sq+HdT93q8dulxYNPy3nNeS1Wd3y8vWAruoFDA17/U/nfrSAen2Q2FCKh/JF06dPD/Mc+9Ew/WYop08ro59ew078VAP63EieNIGcOnkqygfoQhajXOVuh04Dga8BiuGSO7Z582az+pJEDf03tfLwoDlxGnAacBqIaA1A5oGcoeabhhhWLJ1Pps9bYXlaDWuVNo+Zcuyp1+ny8iKwLaZWEhDzUhFWqJ6sAwqqOmjYYFENW2z2RD/ztPmOF0CXIbWyad4RV8OwYylw0+mSbkdYImlj1CE6duKUnNEQR3LHfGXrzn3y2EtfyMsaQpkja3oNX/xVvW7K4qgbnievTcEe4ZTJkimBxamzejzn9DmqLJ5xYtnzs3TR3HZ8vn36229YSD/99FOZOHGibNu2TagN1qhRI6O4//HHH/1tuBE6HvJEIR25Vt5chO7MdRblGsDoEh3iAFl0aN3t02kgwDUAvTEUxJMnT7aaMcWLF5f+/ftL3759jdI7wA/PDd9pwGnADzWQSMPvAURDxvyqQCq7VCyZTz4ePEXua3in1KlWXHq+P0JKFgqRpOlTGxMjAA7wZEQb+oPfZxQMkX9WrtFLUrRANg1JPCQnlf2wRKEcsuTPv432nkNnGwAUGwGY8PzrX7Y8SaIEwufrEb/IlNl/KHcHQEpJPdQYdUbDto8dP23bzNT8s1WaCwYABNQlVwA2fe6f8oHmn7VvVcOIRch1w5NWuVR+7TOhbk89LQV4uo0/C7W6IKuhGDNlT6glRh2y5s2bS3SRZUSVvjA6BvsxRpUu3X7+1YADZP/qwv1yGnAaCIcGmFwcPnxY2rZtawQeWAs7d+5slMKwKzpxGnAacBqIDA0k1oT7Ab3ayfcT5kkqzcPKkyOjdH34HqlRqbAUypNVnnusodxZJr95lxrXLqfELeqF0vCjp7VN5vSplAkzjnRtV9+INXo93VzDHddK9sxp5dM32kvRIrmltlLhl1DSj3jqrer8UF3rP1WKJNL1ES1unFbzfhQjsX2WjKnki7cek29/mCUPNqkqE39ZJrlD0isgu6TkHHWlfKk80u+lh2TFui3SRfuBdASil15PNZOkCuRSJEssrZTdkZyyWQtWSWfd5mlljYSd88n775YCubP4PREXYeuw7PLh+U9haOr48aHweZIkWmbHidOA00C4NeAAWbhV5Ro6DTgNoAEY5SjiSXgi8sILL0j16tWlcOHCFr7ywAMP2HL3j9OA04DTQIRqQEMDa2huVo07i2q3eK9Eej7bKhS86LpemiNm1Pfq0WrTvFrorln+vC7XPDDkNft9XlorkGqt9PnmicL1pZ6pRsqeaH/r75e7tRRN6LJ9vPa8Mq7pMuT1F0J/p0qZTEoXV+py3bZMaQWBFk4ZS4si57R9PeDtX7epWF6ZjnX77FnSy4e929s2jLNZg0rSrH7F0H3q9nFjx5HnlVnRjiHAQr8JW6coNMROV7KMmuLcP04DTgPX1YADZNdVj1vpNOA0cDUNnDhxQh555BGrvTR//nyhGC5EJXxGjBhxtU3cMqcBpwGngdvXgAKZy0RDC8PE97cBpH/W+C73foetB439I2HL9G+vHasU4IWJ95twRk/OemPSZd7vCz7rvTGzje9y3/15ff0D/Lw/A+3b1dkLtDPmxusvGnAsi/5yJgJxHBq+4fPK+e8RaKw/VML2uVo4PDHy3nrvm8RpT9ie+jB8NP7eif9ogBj6N954Q959910pWLCg9O7d2/LHCME5duyY/wzUjcRp4BoaILzWC7GFJfR6zKerVq26ai+E60Ju4AntWOYJ6ygP4cRpwGnAacBpwGngehrwmf1er5lbF5M0QPLy8ZNnLGn5ennFx5Wi936lC37KYviLKDrzgWe64a+/rdK6LmsMtD2lhTGTJE7wrxp1/b4DRywpmoXkJbHfNMqE1f6+WsZENUWLcM7W+Po7FKx1aFlDsmdLrwVefPbxb28R+gvaYerQJAAIOrmqBtq3b28MU5y3Xr16GcMWRXJ79uwpK1eulAoVKlx1O7fQacBfNMB1W6BAAXnwwQfl559/liVLlhgxDcYGgBVEBYTnAtSou/fwww/bb9bXqVNHli5dKnny5JFBgwZZ6Yc777xTHnvsMfn999/DQrbYrkiRIrJgwQLZsWNH2HL66Nq1q2TPnt1f1OHG4TTgNOA04DQQjRpwgCwale+Xu9YJyPTZv8sL73wnSya8LUofFRbfftnvuHEkvgKlUkVySWpNera4e9oCmHSdUk7JfqUD7v/NT5JD4+Y7trk7tA3rcHZpCAfFO+cv/cvoh9dv2SWlta+QLOnkoq7r8MLnWqBziRRWSuIzWiyzuNZwya41XGxb9oMVmjAQBQQ2Lt2f7ZdlfNgPAJH1fLwwEDxt6sVhfKEx/zoWW6btEd3u0U79pVDerNLtySahoSqqk9D+/tkGTOj1zzrCTnzBqHUU3P9kyvQvrfQzzzwjX3/9tbAsJCREXnnlFQfIgvv0B/zRnTx5UpYvX275Lg0bNjSq8WXLlsnatWsNhL300ktSrFgx+e233+T0aa0NpWQLR44csfYALOrvkUcJqxz198ibwSCROHFiA3Xk0MBEOnPmTFm3bp1s2bLFlsNIhxeZ/Eu2c4As4C+loD6AGPZai5BzGTAhm8yLEHeSQ/XgB/86QOYHJ8FvhqA36H71Wg2fMFd27D4o346eKdmUgWrfgaPSUhOP8Vjt2ntYHmpaVb4bNVOK5M+uNVbSGZXv+o07ZN6SvyRjupQyb+laaVqnnDTRpOkX3hkmbRpXlhS6fOO6bfLDlIUajn9e6lcvKcWUZnj8kB4y8edF0v75T+XHL56TOxLFl1+1rswk3dfLnZrK08poxQMD+uITR0/I+OlLZfX6bVKsQIg0qFVKTmoNlxE/zVdmrBCZ+usfUix/iDS8u6yMHDdXUiqT1dad++WQbtdePWwplJXrN2XVmjhzuTJyZZFmmsDNw3OJFhNlW2iLSxfNZV69/VqjpkCuzFKvRkmZo1666fP+lHRpUljBztQpk8iIH39Vj19C2bBlj7JsVZG0qZL5zWmMyoFAc//EE08YGGO/ofTOClKdOA34sQbwgBGuCBvc7NmzrZjt6NGj9VEDNfolY4hjOfmR+fPnl5o1a1poIoCNZ0bdunVl2rRpMmHCBANsVatWlQ8++EBat25tgAuP2N133y1p06aVzJkzy8aNG+XJJ580sAcYBLz169fPjzXkhuY0IMqcm1Bri90r27fvsGe708n1NcCzo1LlWtKg3p3XbxiZazEwhyOS6K+/t6t9O7bkpWafjttXqKt35NhJW5Q0SUJlHf3HYO3biN/h3NeVm1337xgMFB0gu+6VEfNWnjh5WjZvD82J+H3NFlVALHn1g5HS/J7y0ufjsbJlx16t/ZJXnus7VD57s4O88v73MuC1dgqMzki3N76VssVyy7pNu2TR7+vl56Gv6I2OM+qi7Nq2Rxp2eFvSp0luAO7rETNk2pCekkuBEUAIseKasWLL0n9qwTz9aMMwL1Y8DR/s8d5wGTVxvlQvX1gGj5ktG7fukcYK/F7/cJSyV6VVz9olGTR6lpQvmUc++naygbGShXOYF+706TNS685i0qrLB1az5o2PftCwzNNWe6ZFx/clX85MkjZ1cgV+5xUwXpDd+w7JGn1gndTtuvb+VmpUKCyT1XP445RFMvLjrtLvywly8MgJ3SaZNL67TIwCZBB4QHN85swZs/znyJFDBg4caBPZKlWqCGxbTpwG/FkDn3/+eViuF96sX375RQBKTKjwjD300EM2AQVQZcuWzZZjbIDa2zM6UIeoXr165kU7fvy4rF+/XipVqiQh6iXGE0Y/UILTx59//ilt27Y1ELh69WoBwOFNc+I04M8aOHXqtIz4/ns5rVEqTm6sgbgKXCZMmnfjhpHUAsP1nEVrpIwalgFS1xKecy9rzb4TmnYyaeBLlzdTPLde53D3d/3Q5mSfvN5eKpYtEBpV5NOSudL0OSukYpl8kjypPsuuAHU+TcP9ky6W/LHe0lzKlsj7n32Gu6MAbegAWYCeuEgZtt4N2bNnkHYtaxoI+eD1drJfi2a+8PZQWfv3TjlwGLKGWDJVC1uSX5U7e0az+DJB8T4/fNZdXu0/UqbPXyGXjEEKsBXLCm4ePHJcvvugixRQEFa49jMyadZy6axetn9F2+rD4PCxU2qF1ktTJ0peWOFFvfnHT1us3qhq8poCwYcf7iPTdBxN65YzEPXGM600ijC2AS4sOxThLFssl4z88nkpf89z8vfWvbJdwVrihPG1XkwGyag1ZeiPtnfcEVe+H9BVkitYJJxxgtaUuad6KenWsZm0VQCH92vgux1l6cq/pc6DbxrgpDhpaaU3Hv1pd5us/XsMwf8rRYoURuJBbg3n/Y477jDQzZH//fff+pA/EfxKcEcYsBrAMwaA8gq7btu2TUqWLCkYE7Zu3SpTpkwxQMYBbt++3fK+mMBwrRN6WKhQIbvGIevAGJE1a1bLoQS4ffLJJ0bice+99xoIGz9+vLVNliyZjBw50nLQCFWkH0BZiII3J04D/quBSxI/QUL7+O8Y/WtkceNGX+75Yo32afTYOzJv9BsSotFN59UYnlIjgzC0kwoCSDt24pRmecSWHqRkqFj0ka4nBeWwRhOl0flOhnQpJJm2PaGG9pzZ0+kz7biuv8P6YY6WKkVSWbNhhzR98j1ZPK6vJMmVQJ+TsS1NhUkcUUQI8yv6pZ+UyRPLkaMnrWB6auUKYN5F25O6b6KYkmnEEWNp2fkDeaLNXVJK6wHGUYB7TPtgzBxHQo2gOq1RURRqj6vzQwqxM85gEQfIguVMRtRx6AV+TkMKmYBcUtrfNGlTSE4l03jv8/FSqXQ+Was34Uj1UhGamDlDqsv2mjJFYrvJ0us2MI3F0pueSUycOLEUV11Q7zY3alK9BWNpyE48u5ku64A/9KEBYDqj+544eYHco+GH2lxi6d/chPlwr+tNC7C6eElzunQlHrac2dLJoSOhLnYbu2I78tGgLk6qNzo5ILSPpR64Y8dPyb21y0gGDUH8fc1me9AkSnBHKPjTMV9SHXCj60ZyQT+Az9haKDRRgvg2lsv6ZwR6XDFJCNmCzOC7774zinvIDAhbTJo0qXz77bcWqhWT9OGONbA0kCBBAmMH5ZpFpk6dKi1atLAwRAg5+CB4zmAMhYHRA2SAMJZzDxCGSMgiLKN4x+bOnWvLDh48KOSgQfoBaQihi28oIyn7oB05ZKVKlZLatWvbftw/TgNOA/6rAeYOs2bNklq1avnvIHVkR3Ve073PYCNjq9+ur0b1FLI0knWzPpQuvb6RPfuPyHg1ULfu/D9pUb+CLFTwdkhTM+rXLCV9Pxun0UvJZNO2ffJA4yryateWZoiOq0Z0CqJXb91Lo5DSyKLlf0tcLa7++ZuPSqdXv1bPWCIDgMP+95T8vmqzvPPFeDOGv67b16laXOq27aOF19PIXxt3Sp9nW+s4BumU7JzU0Cinb9590qKxHn72Y9m0fZ801HFs1m+ikj4ZMkXHk0KKqsG+/QufWtpMzqzpZXD/zjJ51jL5cvgMSazgrGKpfPLms/cxRQwKcckeQXEaI/AgFMgkThTKhoinCy9XeXUd/6jepGrlCms4YF5ZqOGIjRUo4YUizJDJykX9nNffXoii/injpy42i8uPUxYreEtt3rTn1dv27FtDjMjjHs0j0w5se9uWw9A+6mveFvlbbbt/LA899YHUf+ANCxW8u2oJef1/o+TNNwfL+BlLpbqGEdp+dYyMgZ0D/PgJoLrghULqb0BbnSrFzYIDO+RZBXdFC2SXCnpsu/YclI76cHnl3eGya8tuZXpMJj9NXyIjNA+tqhb0/FvzxF5573vp9ua3UljJPvLkyBi6n1jsM+YKE88ePXpIvnz55KmnnhLIPQhjxNPgxGnAXzWAASVRokQ2PK5XWEEJLUTwnBFKuHDhQmNWZDmerLvuusuKn8MeCvvinDlzpEOHDnLPPfdIy5YtDcyxHW0TJkxoRhq2zZUrl5F34JUD+BUvXlxzchrZPmFddOI04DTg3xrAgMJzASPkAw88IGPGjBG86v4mGKkfbX2XzX36dG+taSYVFKSdlHmL18qvi1YrKNqhqRiHZf3mnVJeC5ofVrCFB+u0zoVgvK5fs7RU0Pnd58OmhYUfejOcI8dOyJr1O+TZxxva3G2Osmc/+1hDnUedl94anQQb7UvvDpMn29SWNlpsvbvOlTBkAxLXb95l48qkc0DSXJ55pL7O35ZoWssGefCZAcYpMKRfJ412Ki8vPNHIACXzy7u0+HtrjVDKrp6+Ie93lqPqJSMtBt6ADTpPK1cij7UJFjDG9eQ8ZP52V0X3eBTN1K5czAAXNy+Ap4HeqLi8yxXPrWQYmWX33kPS5O5y5qJuUKu0ZE6fSmPMz6mFo7R6xWJJgdxZpF61EnJK484NdOkx5cuZUSYNelH6fvqj5l4dkzEa2pgH1kSll8+inrYmegPi8gZN4ZqeOuRleeuTHzVUcrtkUvd5MQVPNSsV0e3HyvKVm6TrI/dI57Z15cDBY3YjJ0mcSD1wsXXc5dQjlsBu1FwafonUqFjY3NqtG1ayidIPkxeqZSeh3HdvZal/Vxn55I0OSgwyzzxjuNff6/GAAr/Rsk0JQbo/dq+50kdNWmDH9cLjoQ8MrD8wQMZEwWPw5ptvGviC/pt8mUmTJtlLCmAM4xweBCdOA/6sASYRsINC0EHYLR4uipqT+1WuXDkbOsQbhOESbojxgd8dO3aUihUrWpgutPZPP/203HffffK95tqwHvZFmEafffZZo7onP62t5o8B4ghV5B6BsZH9O3EaCGQNEAnTv3//oH/eY8Sh1MvYsWMtfxqQhrGFXFSAmj8I4X3FdZ7E86Vq+YKSMP4dZlwfo0RqcfVZk0MjnabN+UMSKXBjbuTl7jP2hBoh1Lp+JcmWKY38pMbuK11OlAF6qMmd0krb9FMv2PnzF4wvAKN35bL55c81Wy0iqv83E+25uFe9cQcPH7d2LZT07Amdq437eYE812eopEiWSKME4shfm3bKbm33+P13SRUdL8Z8QhbvUA9cnhyZbEzMQXt3aylVdA5XQpm21ysQI5+RSKtu7RtIOs37DyZxgCyYzmYEHUtyvWG+eKdjaEKlepeqVy4q1dVrpTGDuodY8u0n3UN/640/oO/jYZTyFfSmUXOLNFBw1UCtM3i7WjavHjoqXZ5cgdbQj54J/ZuQQDxq+l1SiUA+L6NJoxpn7Alhhn1efjC0b715CVNUdCh9ejyk2+lvJjMaWpleQye/0fwv9iuxkssX/bvY71efuz90/Nrm5W6t7GZXU4y0Und8KwViRpVvfV6UZg0qSTNlkbQ+dVkqjaH+QRkfjUFI/26hFp8W9yprEoBRCT8AjX1ffSR0/Np/TBNyyBo3bmy5NtQdg/obgNakSROzHnbp0kU+/vjjoJ9wxrRQ1WC6zplQ5c6d2yYveHYp4AygIpwRcLVo0SIZMGCAhRniBcPrRdgh4Ao2Rs49IA3gRlF08s6mT58uQ4YMsfBowiEBe3jBCGls06aNQIbj7ROjheelCya9umOJWRogfJfae8EuGFIwspA3DZEPrKt4wyHs8SfBIK7TE82Z3yPliuWx9I/x05ZIveolFODEl48G/2xACuO35/0KG7+6msgtQ87rvAYj+zmd7/CNxNW8frxRpKKEinI06s8Nm3Zb+CDrnu3QQKqUK2ieMXLESBOhtiwbDhg02ZixIUhr9/yntk18bfPn2q2yR4EXaSoZNd0FQ9WO3QeM2RGguHaDAjdl/d66a78xZ7NNAjWcxw9Co68DZP9cWu7LRwPcqRo3HSYAFz4mutIHOBkQ8hpeALCp+Lb3BSz0e9GnX2us/wDMfPv0lv/zICAPLEwUVJmwDcLTx9uW/r3fvqxQXj+0944DQOiJt8y3T9Z5Ta5czzoAYAwVJrOEJfIh5IuJKMyKWOYAZZAbBLswod6zZ4/lAwXKsZLjB7BwIkbo8e6779rLH3CFkQEA5oFswg0HDx58mVEBAFW/fn0LU+Rar169etj5J5TJo7xHvwAz+qId33xefPHFsP7wLDtxGggGDfBcCWbhWT958mQr5F64cGF7VnjPCf867ktahih9aDRQ5/4yQg3VtZVZutfSUVJb0zXwWA3UckWP3neXPZfwkBEBpf/rFIzJE9Mp/VvnRpTzIb8eT9iylRv/Xae/QtNBFGhp/dmsGdNI22c/UbK2zlKsYHZ5W7kGBip52p2l82tuV2tLaWEf+gA0zoHRygswRUsM4QlLocyMXdrWk579vpfFyqxIHdpBGrpIKaWBo2ZJ/pyZpWfnZtJ7wGj5btwcJQY5LUP7PyXLV220MYSO2IYWNP84QBY0p9IdiNNA1GqAWk6EeuFBeO+994xxjth6it5CWhDMAisfxA2BIps3bzZyCUBBTBAo7Lk+y5Qpc83DxbrvK76TrOuFE3oA68o2GCo88dZdq0/f5d427ttpIKZp4PDhw5afxf1AeZz06dPLjz/+aB6o1KlTmzpg7aVAO6QatCHcFw82ZDkI97oXJu95nSnDQhQHhhaEcOHKlStbyLARjv1jJKE/vOKZMmWydlf7h/B7wo/9XhShJFMmw4nfvCir1m+3OrGkVZTVVBMYCyFFA+wUVJZr9P1ql2Zqn76o9VWTSUFNM6FuayUFUhN0+2wZUyvz9NMG1gpp3vzXbz8pmdKnNMbEQRo9lU4ZqZNp++EfPq2s0zs1nSOr0uf3kFm/rTSPGuWG8G5B9kEtW6KZPnjlYavxmlfDEQ8omUh+5Qmoqakf5TSfbaOGIsK+DfHbZ288KouUcIQ+smfLYGzZ29VDVqJgDsmWI4Pk1GOA1yCJknoEm/z7Bgm2Iwuy48FVvmTJEiGp3L3Mg+zkBtjhwDRHrg1FcpmE4hEj/6ZatWoWugjTYrBfox9++GFAnbWJEyeGsQcG1MBvcrDLly+XQYMGCXTzb7311nUB2U127Zo7DTgNRLAGuE+5X2EzpXwEBDlffPGF+HqQIdQgJBhABpEObcaNGxcGyF577TVjNE2XLp0MGzbM2r7zzjtmLLz//vvN6/PCCy9Y4fbPPvtMIKMC5NEvAJCQYkLug0IUYAF0+HhSmXQQFXLH8Fx5AtDyhDJACOGFXvuKJfN5q6WMlhDyBIBnop4vwB0fT2opEYevAJxMFCwC+OAjuEzUUwY/AB9PYO9unEHZtRFNTymlnjM+JhotlUXBIp9gFAfIAuSs4olgIoyVJ0eOHBbHDN04DzEnTgNRqQEPhPFiw3oIIMMSiXcMoOJZJaNyTG5fMVcD0M8TbjhLqal37dolGTJkkE6dOlkZBqztwSxQchNGiZU/EATSpPMXyTZxEpkagP04cWL/DyV88MEHZfHixWZoxstFyBweLzxSePVff/112bRpk4UM4u3G00V4/IoVK6Rv375WgqJhw4YWLgxIw3v2zTffGKMpIIyyE0QzDB8+3ELryetEKElBeYt27dpF5mlwfTsN3JQG/AaQTZs2zRiqgt2yflNn54rGhME0aNDAHi7oC/c8D6kPP/yf5ia4l9wV6nJ/RpIGuO4IF8FIED9+fClfvrwsW7ZMSpQo4QwEkaRz1+21NYBRqnv37oKFHLZPJnKQacBsGChA5dpHd/01TGC5BwNFMNYcP+Ul5wbKqANvnFCEZ8qiJFvRLIQEXk8IPVywYIGFFxJODdiixMTDDz8sr776qpWjeP7556VSpUrG5kjBdVhRMbw0b97cCHToA7IcgFyzZs1sOXMliHV4BrA93jAMF5BzzJs3T8gF495x4jTgTxrwG0AGjbBXC8afFORPY9mwYYNZjniQkEROiFiRIkXM7X7p0hp/GqobSxBrAM8YjHNbt241CyUFov/880/Jnz+/sSzCWufEaSCqNICXNnPmzEaaAQU9uWOE0HJdwvjpxL80kCxdiOUCeXl2/jW6IBiN5uEcO6UkCnn/DVuLjqPi/QAL77XOM2CN0ETIcMg7xtiMl4zSEQcOHLByKvwmAgM2Q94rzBOJ0CC/DNp55KeffjKWVDzlgDD2+8EHH1gb9p8zZ07rn6LsWbJk0WLIh6wPPGp42vCSFS16eahddOjL7dNpwG8AGUU1+Ti5ugYoLMoDBEswsdRXWn6vbexxnrOrazT6lnKuPHrZ6BvFre8ZK3efPn1s0ouXrGzZsvY3Vkxi9L/88kuL9b/1PbgtnQZuTQOwSGLYc8a9W9NfVGyVOUcRWbtplhIJaJ3Ia7+4omIoQbmPM8owvOlAHCmo3qboFDzWXbtqSZprCIZlwBL58eSBYTwhQooSERMmTLBQQ2p84TkjDJGoDPJCMQhiAMTzlTdvXgNpFGsHqEHYwbL58+dbvUBKUhCmiNecvj1CD755X7Vo0cI869cYolvsNBClGvAbQBalRx2AO/Pq4Nzs0C/F1nCW2IoA/qE1vdntXfuI18CxUxckSZLANT7AjPXcc89Jq1atjPoeDRHHj5cCz9nMmTMtHMSFH0f8teN6dBoIdA3g2Vh+5JDMXzpPKpbTpH/eTS567PZOK3ZXTVs4pux1M1cclTqN21rNqNvr9Pa2xmhcvHjx63ZC+OCMGTNkzZo1ZszjnUKNL1gSAVW8Qzy2xWTJkllk0Pbt2y0E8dFHH7UIDcAYBFMAPIqyr1y50jxmgDiP0UB4gwAAQABJREFUZRUvHXUDM2bMaG0YFIARQOjEacBfNOAAmb+ciUgaR/aQnLJ6rVoj8yoTjgNlkaTl8Hd7RuuXpc+cI/wb+GHLVKlSWXx/jx49LNwEjxlECoSg8FIkLIS8Mlfzyg9PnhuS04AfaKBEydKyKkESGT7pZ8mSKo4kS3yHTr79YGABOoQz5y7K7gMn5Xjs9NL6vvYBcxQUVi9UqJAW/t1tRj3eGUmSJLEwx/3791tOMu8UT2BEJIc5efLkYSGLgDo8Z1999ZUUK1ZM/vjjD+ncubN88sknRgbCtqR7QORBfUDy7+nTy2/jtzMeehp239GpAQfIolP7UbDv/PnzyaDZP2mRvQvXjOWOgmG4XaABtWDu3HdcipSqEvD6gEgBenuYqvCK8YH9EyGM8Vp5AwF/4O4A/qMBJk7t27e3pHo3sfmPeoJ+Aee8b9+39DhvbjpRqGB+yZ0rh7EHn9UC81qSNuh1FVkHGCdOXMmrKR/J1YsUSMI7hIgKgNiYMWPkl19+sZBDaOiht+/Vq5eFLvJOIRwe8igIOnjvdOzY0UIQobbH+4VHDTIfQhppx3PpscceM+MhaR4e+yrkH+Sd0c/PP/9suWpQ7TtxGgjTQDQZh27uCRo2Wv/4wY0F7S+u7CsF6wfrsbZw45Gfdr3JAv3wIQ6Zz+nTp21SyYOAeGNubmpW+MoZfYmwDpYrrCyEcuEy92Tv3r32d3RPThu3ai/zZg+VSsWzhU6UfSxO3ljddyRrQG/wgwePye9bzkvj8tkjeWeR3z05jdxjxOt/+umnRnkP5TCWS16ysGQ5iRka4Lzv2bPHzjv5IE5ilgZ4rxL69fuKDTd94Lw7IWxwEjM1ADmZRz3PfIqw94ceesiUkT17dptXMR+D2KNevXoWecFK5lReRAYeM4q8ky9G9Ibn+fLmewCxkJAQI52qXr36fxR9ZYH4/zSI4AWMy03BIlipEdwdZSO86yeCu75udwELyHjxE2/MA33UqFH/OUjAGKw8WD4gwujXr18Yacjs2bPNgkJdLwoE8k1hQkAXDwiSSmHpgX61VKlSBrp4SGCF8cBf//797QaHfhVWL6hYqXnz0UcfhY0FCw5/U0vD9+QC2qiRcSUxR9iGEfyDSXLOkg3lmzHfSN0KIZIhbXIdT+wI3ovr7uoauKRJy+dl4YotciFJHmnUotXVmwXQUowQhCvCagUrFrVkiPOfPn26ENf/22+/OUAWQOczIoaKwQtw7sRpwGnAaSC8GsDg7QlzOQ+MsYwaYp7g6UKuVXc1X758XtNrfuOFI5w+uiVJkmRyYqcartRI65zC0X02rrJ/BcyHjp6SIsmivo5fQAIyJoHdunWzGxbrGgAKZjduOIAaHjGokKE3RfjGgwVIow3WFSwp0KBSAwPwxY2KpZdaSni2SBQlvpm6Fvv27TNQRpV4+gVgYc1ZvXq1xSVjvaEoLmBtlhYnpQ2/cZ8zOaWwITHO7Bdrz7vvvmvjjCpAhg4yZ8kq7bu8KpMmT5HZa3fJpQtnQh8IrHQSeRq4pMA3XiIpX6GJ5MoZEnn7ieKeYbHDsMD1TOFNQkgwauAp8X3JRvGw3O6cBpwGnAacBpwG/FYDmXWu+cuCA1KsUA4dowvT9bsTpZE/m3YelYbJ/xt5F9ljDThARmG/Rx55xCq7U80dsATIgpkH0MMkEcBEgqevYH3BUwaFKkmkxBAD3gByhF89/vjj5h0DkL3zzjvy5JNPGtMPYI0ChMQ3E8MMuxwxyrACUWEedzihjMQiwzQHxWo1rQ9GoUJCIAF5AL+XX37ZvAlMVgGIvh4z33FG9u96de82cApAdRI1GojukNXIOEqubQwjhIfwjXcYIweeaI8VKzL26/p0GnAacBpwGnAaCFQNpNCJ/pk7Msl5LU+AQdOJf2lg377DUqhMjWgZVEDFrRFeSEghyZ6QCEB/ClAiNJAQKoAUk0EAFqw9ngB+AG7r1q2z9bDtUHCQiTJ9UQOjcePGct999xmIYrLZq1cvo/T+8MMPrcI7HjA8YuyDavK4yCmEi9eNWhkkkVapUkUyZcpkwKxq1aoGDvEk0Pa9996TO++8U5566ikDjN7YouMbfXDs7hM1OoiOcxzZ++S6xxPNB8MGnmTuDeL++e3EacBpIOI0QJgwIcHQe/N+cuI0EKwawMg3ePDgsMOjwDtzOk8wJvPOwbCN8Z3fRCzxHSjSoFFLWbhypxF9RXt9gkBRWmSPU+fFeCyX/31catSsHdl7u2r/AQXPyVPAEo8nDE8ZwIKwwCVLlhgQIseLNjVq1LC8Ls8LBfDAcwUgIpwQsIQ1HxD30ksvSZMmTSzXjEKDACc8aYA3kkipIM+Nz35IXOaFSBginjhyJjp16mQ5aACtRYsWWU4aSaa8PAF9eNgAhx9//LH89ddfRr+aNGlS86pB4erEaSDQNMB9tXnzZiF/EvIbcsm4L/BKk69IfuSVQggv96ETpwGngZvXAMQDhMYTycGEFMNk/fr1XVHbm1el28LPNcB8a9KkSUaSBjibOnWqGbypIUaJlUaNGknbtm2NyGPr1q1WJJp2REoNGjTI5nh+foiSROeAmQrdLaN/HiH1q+aXBIkTurJE0XnSlAH70IEjMm72BmnyQJdom6sEFCDjfAGkmAAyEUQoAghoAgQRjohQ0R3PmecOxroInSqWFmTixInGyBMSEmI5ZPxNDhn9ElqINYYPII5+6JcX4M6dO41ClYcARQeZlNKOXLAnnnhCoF+l+jsPBkIa8daRpMo4YJ0bPny4FSrEY+bAmJ0K908AagBg1bdvXzOO8HKk3kuLFi3MuDF58mS7h/r06XPZQ815zQLwRAfIkCFloraQZ4ALkGHf9DABZdxHTDqps4R3oEGDBtKlSxeL0rjpDt0GTgN+qAEM20QbYcQjKoprnjkcoAtQxpyLd1DTpk3NW8xy7n2AG78DRXLkzCWJkz4q0+ZMEzm7V+LGuuDy+qPh5JG8c+5CXEmQPIO0av+sJIgfPxpGEbrLgANkDNvX0l6nTh0hl8xXYOfBc0VtHE8AVoQaIoQnAqa4ucn1orAghQMJXYQmn5ubb170tANY4Q7noQAYA/xx4+MJYDtyyAB3jKtw4cL2zQsTKw9eMV6kgEGvajwePsAe/ThxGgg0DRD+S+7llClTLI+SFyEea/IjuS8qVqx42T0aaMfnxhtYGiDi4N577w16QEaoIhTh3GsYQgixZ+LKu8qJ00AwaID3B/MjPgsXLrTCzh4tPfMyDIHMw5jLwYBNqCLCOoAc34Ek6dKmkQZNWtt70+X1R9+Z47rxxRXRNZKAA2QAHOjpYXXjxuTlBFMiFzPEHTAksswLpYL2ntBBKrQTrghgwppKG15ohDuyHAAHiMLLhaeMDzc94YYwOvIyZL+EIhYvXtysk4Q0chLZB6GJuXLlMi8YgBByEPJrIA8hzITtGB/tI8OKw3PIHy6o6LqQg2G/sQPkZcIEkGufXMxq1apJ2bJlzfiAAYT75O2337YyENxXTpwGIlsDvEy9aIjI3ld09c+77vPPP7dwfEquuNpd0XUm3H4jUwOknTCX43pnHgVhlDev4T4nJJ5vjz+A9QjLYPgNVPGOMVDH78YdMRoIOEAGmyFkGtQSQ7h5SQDlO126dBbC4QEeCgUihHYgtCEGmZt64MCBQs4YwO7999834o1hw4ZZX4Qt0gdhirVr1zb6e7wCAwYMMG8XL0PYFiH8gPIb9sUDBw5YGCPetp49exr7IjlmeOAIUcR6QygjDw7CLvmOSDl56oysW79VJyZxIrJb11cUaSBOnNiydftuyZs7exTt8dZ3w3WMUYIae3iHua+KFi0qOXLksN/cFw6M3bp+3ZZOA1dqAC8BoYlOnAaCWQMVKlSwyCEM6pQdYg7lO1eC1RrgBdP1/PnzDbixnk8gkXoE8zl0x3brGgg4QAZ5xu1KkSJFrAuYGplMevXAIOqgmLQnkBQQx4wAwgBsCDc+HgJCZZBXXnnFXOdYOSpXriyjR4824Ea/WHpYTh6aZ8WFXMTbp3UQAf/cWaGYbNm6Wx9MEdDZLXThVTaPrcmRkSf0Hbx0/alSpZCCBXJEnvoiuGdCfj0BjCG8GCEfcOI04DQQ8zQQL17ATSli3kkK5xGHnsvIfJ//dyCw9BKdxLxs7NixFhLvGbCJasK4ThoJxnSM5nPnzpVixYqZ4ZwcfTgFMJI7cRoIRA3E6KcnIYTXEw+MeW08tzJgyhdQYb30zQfzjen3QJi3LX35tvX6vt3vkOwZhU90CaQp6dRbQo23yBKSefHOOHEacBpwGrgdDWBh5znsPcfJDc6aNWuYNZ4JIcK3Fxbl7c97pjMhhGmUUic83ymNkjlz5jDDG38TkcF+/s/eecBHUXVR/IaWEHoJIL33LkV6R7rSpKoIgiCIiCIKonyCKIIVpAlI76B0USkKSO+9995CSCCEAN87FyeGmEDKbradx2/Z3Slv3vvPZnfO3GZ5bVh94Dcj/G+Ctdylnx88lMVL/zJzjv+CqvHJDTc9794NNjGzuH6wvWDBZ+7RjVUv8/l7lLACx3n0Ov4y1QYF3RFvnyTxiVaP9Wj+Xhp2gnAPeF/gbwU3yHHDD8ILdWKnTZum5Y8QLoIkasjOCCvy4sWLw/IFxPvgeUASiAMBjxZkceDGXSMQQFa9nDlz/qcgd4TN4vQW1lG4w1kXUXHqjDuTAAl4LAFcxLVp00bjVAABJVAmmeyFEEoo4TB69Gi9CIRnBFyj4A7v7++v3z1IqAG3d7inozYlsvrCLR3xL999910YU2T/RdINJHeCALREHu7wI4EULjTdqVV4rrgRtZnkoRFm7txSGK+Z5+tWl6nTZktSH9veIExgXNdnzpxlsjVX1HAHJCyD+IA3wvDhX8k7vd+RhEacxIejCM5i1iwZ4v1U4uYFhBcSdsCLCX+DeH/kyBFNjAY3RoSt4O8StS+RTArbIdFUy5Yt4328PCAJ2IoABZmtSHpwP4jrQywekjwgtg5fmPZoEGL4YmYjARIggbgQ2LFjh1qukGwJmQvD3+RB3C9qWUJw4RmJnZDFEXHLSAoFqxhiKFevXq0puJE0CjXB4C4FYYfENvgORBZSCDYkmkKWX1xg4k4/Lh5v3rwZl+E77b6OuIB3BAzUO82WNaNdPDZKlyoiixbO00yDZ88cF7/0qSQo8IYk8LonObM7zgsmvjjj7w8N1mWUC7KyY+/bt09j862s2itXrlSrNG50IO4fwoyNBFyZQPzZv12ZEsceJQFcfODOFJI44AsRd4gjuudEuTNXkAAJkEA8E4CFCkkDUDMSWXZR6wgui7jbju8uuCQiWQ2sYLg7j20QP4xsvrB6YT2SPCG5wK5du/R774cfftDYyQ6mYC1iXWrXrq2xLRB0cH1H4ihcNL7yyit6rIju8PGMgIdzYgJIbLFlyxb9jGGY+G2FBwoss57Q4GmDB9LaW2IM80Y4BEoQWQ2uwLBMw1pGMWZR4bMrE6Agc+Wz5wRjx8UNLkpguYK7z5o1a7Q8gBMMjUMgARIggf8QQHZQXOQiAROEES76EPuFmpK9evXSpAJwjUZ9PbghFi5cWOrUqSNIBgWBhZtQcGuEkMPFIF6jZhIaEhDgYjJ37twq6vC9CAGHepnYH/HFiHPBdyUbCURGAHHSsNpOMi60aLDmIoszbiCwkQAJuC8BCjL3PbfxMjPUxkEBbauhVhvuIrORAAmQgLMRgNsgrFtwKdy9e7fWioRggkBC+RK4JEKkNWnSRLO1wdKF2LHt27cLbj5BfOHOPLaBxaJhw4aaZRfCDRY13JBCcpDp06dr7UuIOmTlhZsjkg5AxOHiGq/ZSCAqAoiFwg0CJLJCEosPPvggLFlMVPtwuXMQQKZp+2abdo55chSPE0hog5JTjCF7nCnfxYAALlDwY4G7wPDjtoLW4Z4D3+/wcRkx6JabkgAJkIBdCCCzLlysEX/SuXPnsDIn+O5CfFeXLl30uEiiANGVJ08ejYtFHUmIKCQCwfJx48ZpWu5q1appAhAIMVjSkJYbZU8g/GBVa926tcydO1cOHz6s8S64wIYLZMeOHe0yP3bqHgRwkwAue0uXLtXPG9wY2VyDgL//LVm6fL2Txbs/+n574LYJdx7qTTWUX3JE8zIi/NDhk/J8nbj9nVKQOeLsuckx4UqBO8j48Th79qzeOYb7D9JE46ID9dbYSIAESMCZCCDeBFkTkbXNch1E7Jj1GmM9f/68/P777+qeWK5cObWSwbqF5RBuyHy3Z88ejWvBexSsRV1KeAjALRGujH/99ZcKM9SixI0rJPZAg2iDxQz7sJFAVATg5jps2DBp1qwZrWNRQXLC5a1b1jWWzbtONTJ8R634bYXUqV3HqcZlq8HAOjVhwgR5+eWXTRZSx7iDly1dSNKnTx2nKVGQxQmfZ+/ctGlTwQNt4cKFgqKOyD7GRgIkQALOSgDZEJF2Hu6EuOBFDUVYzvCDDms/4stQlLZt27aa1ANiDaIKz7CkIZkH3BPr16+vNY+QAATb4zF06FC1vA0cOFAOHTqk25YqVUqPNXXqVEWCzIs4DhsJPIlA9uzZ9Te1evXqT9qM65yMgK+vj7k57eNkoxJZMH+OtG7VwunGZasBfT5kkLzVo5tLJ3ihILPVp8HD+0GgOy5a2EiABEjAmQnAcjVgwAApU6aMTJkyRc6dO6dxsIiFhUth+fLl1dUQwgwFZwMDAzXpBwSYJaRQlLZu3bryxhtv6L4QYqNGjdJEHnBphKWsdOnSaomDpwAyL8J9EQ2ZG8Nni3NmVhyb4wnAusFGAnElgO8zd264qebqjYLM1c+gE43fiiFzoiFxKC5CABYHNhKIDwJwN7QafsSRETGqVqhQoUhXlS1bNmw5alKh0LTVLK8B6z2e+/btG/YWqe/ZSCAqArdu3VKRj2yLcP9HHTzEYyM0ANZYNhIgAfckQEHmnueVsyIBlyKwfv06lxovB0sCJEAC9iAwa9YsQfZiWGNRVLx79+4qxjJnziy//PKLxjDa47jskwRIwLEEKMgcy59HJ4F4JxAael8WLvlTEps7rmyuSQDW6AwZ0kqF8sVccwIcNQmQQKQEkP0TD7Tnn39e3WppGYsUFReSgFsR4BWZW51OToYEnk7gzNlLZiMvadSgson7c0ya2KePkls8iQBE9cw5v1GQPQkS15GAixNAXDZiGCnIXPxEcvgkEA0CFGTRgMRNSMCdCDw0k0GKbwSLM2DcNc+sJpdgoj7XPHkcNQmQAAmQAAlEIMD0PRGA8C0JkAAJkAAJkAAJkAAJkAAJxBcBWsjiizSPQwIkQAIxILBv/3G5GxIS5laKuLEsz/iZFOwZYtALNyUBEiABEiABEnB2ArSQOfsZ4vhIgAQ8hkBg4G1Z89c2mf/Lahk1br5s3X5QQkMfSEhIqGHgJaN+XGAKFMPplI0ESIAEHicQFBQkVgFy1AZFtkakzrcaluGBNmLECDl+/Li+t+qIon7exo0bZfPmzfrYtWuXbnvlyhUtnI6bQth23LhxsnXrVjl9+rSm6B8/frxux9I3ioH/kUCsCNBCFits3IkESIAEbE9gwcI1kj9fdilVIr8m7Jg6c7mULlVAvJM8Kur559odwose23NnjyTgDgROnDghKHxevHhx/Z5YtWqVpE+fXnLmzKlp9JcuXSpJkiTR2GG8PnnypBYqh8hKnjy5FjvfsGGDxhijSDr2X758uaA22o4dO8zNoAfyySefyK+//iqoxZchQwZjwb8v69evl71792oB9XfffZexye7wYeIc4p0ABVm8I+cBSYAESCByAmnTppQ1a7eLb1Jvcyf6vgTfuSsJTD2if5uxjuEtjWT/IuErEiABJbB69WqpVKmSDBgwQA4fPixFihSROXPmqGgqU6aMvPXWW9KuXTsVUkjodPbsWa11VqJECenVq5f2AZEFgRYQECAQZ7gBhCRCSAQVYlyo0a9VMB2vYZVr3ry59tW1a1eKMX4WSSCWBCjIYgmOu5EACZCArQk0ql9ZqlYqJShNcOr0RalZo4wkTsyvaVtzZn8k4G4EIIx+/PFH+emnn+Tll1+Wpk2byujRo9Xyhbn6+vqqiyHcDGExg6iC2ILIgjBDQ4p97FusWDEVZbCIaUZXsw7P169fl6xZs0qqVKm0DxSq/uabb+TNN99U8ZciRQrth/+RAAnEnAB/6WPOjHuQAAmQgF0IwCoGC1iCBLgjnUDu4723XQ7FTkmABNyIAOLF4I4IkQV3w8uXL0uLFi3UsgWXw7Vr1+psU6dOLeXLl9ftsADbHjt2TNdhH8ScDRo0SK1q/v7+YRYviLMsWbJI7ty55cCBA2HxY59//rkUKFBALly4oBY4xKaxkQAJxJwABVnMmXEPEiABErALgUVL18oDE5ORKlUKFWTfj5otvXu2FW/vJHY5HjslARJwDwKFCxeWHj16qNCyikkvXLhQhdX7778fNsm7d+/KmTNnwgRZcHCwboMNzp8/r8tff/31MLfFn3/+OWxfvIA7Y9KkSfUZ8WmwsEGoZcqUSV599dXHtuUbEiCB6BNglsXos+KWJEACJGBXAvfMxY5vMh9JkTypEWXJTfxYgjCXobADM34sDAVfkAAJPCJQr1498fHx0TdHjhyR/Pnz62vEfsHdEEIKFjAIKAg2xIjhgde3b9+WGzduSOXKlWXlypWaqXHChAnaX+LEjxIKoTNY36pXry5p06aVXLlyqRsk1nt7e0uiRIkE1jc2EiCB2BGghSx23LgXCZAACdicwAsNq5g4jQC57h8gEyYtlvTpUsukaUs1iQfcGO/dC1XLmbo22vzo7JAESMDVCUCAzZ8/X5N3WHOB2EL8F8RW7dq1ZdOmTQIBd/DgQU3KgXiyGTNmCCxjEFdocFeEC6QVQ4ZlcFv89ttvVcAhKQgEHtbDJRJt6NCh6u6ob/gfCZBAjAhQkMUIFzcmARIgAfsR8PHxlsyZ/fTxcb9OEmoEmNXMzWljNUtmveUzCZAACTxGACIJKegRE1a6dGn54osv5OjRoyqasmXLpgk5tm3bpjFkcGPcuXOnboOkHtWqVVMxNm/ePE13by2zDgDrGNr333+vz6hXtmzZMmnSpIkggyMajs9GAiQQOwIUZLHjxr1IgAQMAS1SHD4rO6n8l4C5jvEy1q2YYkqTmhnL/guTS0iABKIiULFiRU3K0axZM03mgZguuCUixguWLDyjqLPlWliyZEmZOXOmnDT1yJCUA61GjRqSJ08ek901sSbrwLKMGTNKp06dVHAhwyIa4shatmwpFSpU0GPpQv5HAiQQawIUZLFGxx1JwPMIoAjo3t075eSRXXI36IY8fPCvBcfzaER/xgkSeUsS37RSsGhZKWDcg9hIgARIwNYEkJI+fHvmmWcED6sh/itig1BDPBgeaOnSpdNH+O2QMh/iLXyrWrVq+Ld8TQIkEEcCFGRxBMjdScCTCCxdME0qF0wqRcqlNwkn/Izpx5NmH4e5GivZfRN/cfbiJpk/Z5s0f6l9HDrjriRAAiRAAiRAAu5EgILMjmdzyZIlUqtWLdm/f78GzsIHGz7WyEaEFLUw/cPfG3U/cOdqy5Yt6iYQ/k7U5MmTpUGDBuLn5ycbNmzQmiE1a9YMGzWCcjNkyKDBtwjARaHG5s2b63ZIb4u7XWwkYAsCvy39WcrlSSBp0/hqkglb9OkxfRjhmiBBQsmVI4MkTnRNdm3fLCVKl/OY6XOiJEACJEACJEACUROgIIuaTZzXnDhxQtPHwmVg8eLFGvj6999/ayAtAmchyEaPHi05c+bUrEcIot26dasWc4RrGDIe/fnnn1KpUiUVZIcPH9aUteEFGbIcffLJJ5pRCSlvUUdkzZo1msIWmZU6d+4c53mwAxI4cuSoZEl6VTJlzGwCxx4Fd5NKLAjcfyBZM6WRPxctoSCLBT7uQgIkQAIkQALuSIApcex4Vrt27aqWK9QDQfFF1PVAfZDevXtLmjRp5OLFi3Lt2jXNUgQr17PPPitvvvmmroOIg4Xrzp07WidkwIABMnHiRA3ARcAushuhValSRfdPmTKlIHtS69atNYh37969Uq4c78Db8fR6VNeXzx2X/LkyUIzZ4qwba1mDqgVl+a+/2aI39kECJEACJEACJODiBGghs9MJhPCCVaxp06Yyfvx4LbgIi1jBggUFlrDdu3fLuXPnNFMR3BHnzJmjNT4wHFjHSpQooUIMIuubb74RuC7iGalrL126JFeuXNHaHxBwsKAVLVpU09F++OGHesyFCxdKsWLF7DQ7dutpBO7euWlc7ZJ62rTtM19jYEyTJqX4775on/7ZKwmQgFsQQMINNhIgAc8gQEFmp/OcPHlyLZ4I4YViiocOHVKLGOLHAgMDpWzZsirUYBlLkSKFpo616nxg+xw5ckjHjh3VhXHIkCFaxBHFGyGy4JY4depUKV68uLRv315WrFgh6dOnV3fG7du3qytkaGgoa4LY6dx6Yrf37wWbaVOQ2ezcmwuth6HBgr95XnTZjCo7IgGXJ/DDDz/IX3/9pankkY7+nXfe0Ru3uHaAl4xVuNnlJ8oJkAAJPEaAguwxHLZ7A5dD1PNAHBe+SFGrA0k7IKLgpog2cOBA+emnn1RMQVhZggzrkGYWDctWrlypdUCQ/APxZohDq127tmzevFkaNmyoRRyxLaxjo0aNUgtchw4dsIiNBEiABEiABEjARQjgpuvnn38e5jGDuHI0hCpQjLnISeQwSSAWBBhDFgto0d0lYcKEevcbFi9YtSDO4KZ45swZXW65FOJ9nz59ZPr06TJlyhT57rvv5Msvvww7DOLI4JqIffPmzavxaLCWwa0Rgg2xZnBRhOsirG84DjItspEACZAACZAACbgOgTJlyuiNV1w3hG8vvfRS+Ld8TQIk4GYEKMjseEJhyUKmRVS0b9KkiSbZQLINLM+cObPArRANggqJPz7++GN9dOnSRfz9/cNGhtT5EGVWOnwkCMmYMaM899xzGke2dOlSzdw4f/58FXtYP3bsWN0nvNUtrEO+IAESIAESIAEScDoC8I554403NAQBg4MwK1CggHrZON1gOSASIAGbEaAgsxnKxztavXq1Zj1EAg74g/fr109rjt2+fVtSp06tggl1w0JCQjTWC9sjKyO+iCHM4J6IBtEGCxr8yOGG2LhxY61HBusYGrI1Dhs2TE6fPi1IpT937lw93p49e6ROnTpy/fp13Y7/kQAJkAAJkAAJOD+BNm3a6E1ajBTXCMiynDhxYucfOEdIAiQQawIuH0OGLysIm6gaBBCC5mGlis8G6xViyKwGYQQrF+52YTzJkiVTf/CXX35ZRRUyKCLODC0oKEjWrl2rr7t166auibCCwao2cuRIyZ49u/aBDRCr9uKLL6orIzItWg0WMhSNZmFoiwifSYAESIAESMD5CSDuHDdgP/30Uy2HU7VqVecfNEdIAiQQJwIuLciQHh6xUp06dVJREp4EXPU+++wzQdZBiCBYlFBAOUGC+DEKRhSAadOmDT+8sNcNGjTQ15YYwxuItXr16j223ErygeyLkbXwYsxajxT7bCRAAiSAbG2IQX3aDSySIgEScA4CuDaA9wuucSDQ2EiABNybQPyoEzsxRNKM4cOHy7Rp09Tdb//+/WGZCt9//321NE2aNEnXwwXwo48+CstcZKchsVsSIAEScBoCsMq3aNFCEwZt3LhRM7WhID0bCZCAcxOAJ0zLli2lUaNGzj1Qjo4ESMAmBFz+tguCXRE7tWPHDhVnsCTBDRCJMnB3yWqo5dWjRw/NUGhZm6x1fI47gSe5jca99397YNrff1nE9pWPt09sd+V+TkQgYYKETx0NCs6jNAbqHe7cuVOqV68uvXv3lhkzZjx13+hugL9JJg+KLi1uRwLRJwCXRcaORZ8XtyQBVybg0oIMroi4uIDrIlwRkeAC6d8nT578mBizThCyFCKDIdwHeQFhUYn7M2LiTp06JYMGDYp7Z0/oAe5W3bt3jze30ycMxaVXXb/uL81bdojbHLzM7g+f3sW1G7fEO0liSZ4schH44MHDR1Zr018CrwSSIJERGebv+onNfN7MH3Ckm9y//+DR37bZJKH5TvBKgG0j3dSlF+Jv7uD+HdKz569RfpdhG9QwWr58uaxbt07ni9IYuGHVs2fPKPeLKZhbt25poqKY7sftSYAEnkwgvm50PnkUXEsCJBAfBFxakEGEvffee8oJd2kXLFig1e1bt26tlrCIAG/evKlWsmzZstnsYiTiMTz5PVLx27OhWCYSnrDFjcCp0xfkytXbse/EXOgHBQXL/Qf3JWUKU8A8CsFzK+iONO82XIoXzCHfffJaWCKasAMnTiQjxy2Sxau2GfHkJZn80sjz1UpImxdMAHtUosxsd/78NZPgJp3Z5vED4wbNJ9/Olq17jouRYZIv5zMy4K0W4pcuZdgh3eUFbihlz5lPmr/YycSFPSqfEdXcUqZ8fP7r16/X7K0QbLZoGAviXtlIgARIgARIgARiR8ClBRmmnDVrVtm8ebN8//33Gvi6YsUKzUaIuAm46uTLl0/JnD17Vut/wW2Rbm+x+7A4ei9YQPFgixuBkNAEcuXa0dh1Yq7hA24FSfF678mM79+Wis+ZzJ4QT6H3jYnLhKQmNBvcM69NfGcKI9Y6t64tWZ5JZyxVZl0i8zCbPjTbeiU2ljAjrk6fvyrHTl6UBjVLy879J2XRgK2m/zvyxiv1xCg4uR8cIgmTmK8piC+fJNKk3f+kcP5s8sXATqaAX4guv2/6S2iscA+Ndeyo6evYqYtSq1Jxmf/rJvEPuC1TRvQyczX767FD/xlLwkd9mz517LC4JTTjM0/374VKQozPvMayh+a9lxGPup15/8C81+RAEDRmDjofvLYEjrHy6bh9TJrqUBzUdATLHxo42ah5+yQ1roiZYtwbMrOykQAJkAAJkAAJOA8BlxZkuCPerl07rdk1ePBgTf1uZSNCzBhqesFFBy6NqAU2ZswYijHn+exxJK5IwIiO5l2HGy10T3oO/EnKFs+jAmjOD71l1pK/ZY55rJrxiXR5f5SkSukr5y9elyJGQBXMnVle6v61tH2xikyau1oK5skik755S61mmTOllZGfdZHbgbelxZtfycgpv0rbJpWl60c/yoGjZyVzhjQy5eu35OsJi2X7vhNy8MR5SZ86heTKnlGGjv7ZWMO85M1XnpdXmlVTon5pUsoY03dwt69k76HTsm37YXn7fz9J3aol5PrNQOnfval0/mCsnL1wTfLnyizjvnhDkiX1lmW/b5XPRy+QgMA7Mu2bnpIxfWqz3Wg5Y+bwWosa0rNTQ5mx4E/5ftJyo68SyLwx78nmnUfk81E/m+N6yeSvesgzfqn1WLsOnpKsmdLJD592MhySGWbDpGKZArJ19zFZMu0TI1of1Rl0xY8Ax0wCJEACJEACJGBbAuaWsGs3FFBEUg+keLfEGGaENPCzZ88WuCfmzp1bfvnlF13m2rPl6EnA8QQqPltAjUHPFs0tz5XKJ7uN+Lh89aYs+n2L7DGvt+09Jn9vPyh5c2SSE2cvy8Wr/nLPWIZOmtezFq2T3EZILV+zQ3btPa6TMbYlta75pkgmLetXEP+bQUYEXTMuh5mk40s15cCxc/LNhCVSqkguSZk8qWQzQqdYoRxy8coNaftCFSlRJIcMGjFfQmDJMoLxjrGcLVm8XsVPoXxZoZXk5LnLsmzNdsmV1U/eGTRZTpy5LM3qlZdNu47I4BHz5Jr/Lenaf5y6TTaq+ay6NL87eLJcvhYgDaqXlOE/LpSjZhzvDZkqhU2fnVrVkpTJksq7g6dIjix+8kbbOuLjndgIup9l1Ya90vT5cnLmwlXp/9VMeWhuHJ0ylsC5SzdK5oym/MVDYzVjIwESIAESIAESIIF/CLi0IIPbUJMmTaI8mX5+fprE4/XXX5f06dNHuR1XkIAzE4AlGK64KHLu8Ga873q8Ut8Mw0vaN6sirxohEmrc8mAR2nPwtCTz9ZaV6/fqssplCupwYcGC6LprBNPn77eVD7q9aDwaE8gNI7wea0ZM3TRWskTG3fEZYxVDm2kEXPDde3L+0nVp3riSEUypjVUurzxvBE+18kVU/KzdfNBsE2LE003jSuhlhJq/vNJ7pKRO5StD+7YzY7mvYu1jE0+Gsa/6e690bV9X+r3bWupXKyU79p2U39fu0TH9NKy7DHm/neTKllH2G+sc9t13+IyE3A2VazcCVRD+uWm/nL98Q3yNS2b6tCll447DKjazZEwj67YclGrPFZaPPmgvb7/WQDZsO2QE4j210r/U4Dljjesq8pSYr8eY8A0JkAAJkAAJkIDbE3BpQeb2Z4cTJAFDADcesmTJIq1atZLq1avL119/rQXPHZUp9KEJrlKBFWzc7kwMFlwBv524VHJmyyA1TEzZnKV/m0QaqaSQcUsM3zDeNKmSmV1MvJdZYY0fr41ikU1G6Pww+VepWr6Q7Dci6Cfj2ggBl90k8LivOzzqDe6SiFOr0/5TKWKsVV8a8XPPvH9o4szQZ05jsbq+Z7KsWzbcxJPiRsxD0/0DtWwhHg2ZF/XYJq4LljEfMwezSN0wA4wgRLwXtkcGSFi0OrSsKSMHvS5ZjGvl3/M/k27t6sqwsQtl8YpN8uvk/kZ4NZQRk5fLrMV/S1LTVyKkozcxZxeMaPPx8Vb3RojWoia5SVic2aOp8H8SIAESIAESIAESEJeOIeP5IwEQQMKWmTNnPkq04MZIIMb+/PNPLemAguhIcIJkNrVq1Yq/WRvBkzK5r6QzlqHuH0+QCUaANK79rPQwryFMYCVa8NtmGdCjuRFR4VTUPyPEoodQc1j1Tzt0/LxkLddZRVA2I6CG9GmrbpDBRngN/HaunDp3VQrmNa6HZufsmf1U8CX1TiJJTOKNP9bvkfnLN5laPf8kzTB9avZAI2LFZIIML4BgaTQfEnm1WXUZ9P08mfbLX3Li9GX5rE8bedFY3D75do5UbjFArXxjTUxbxdL5ZeEfW9XqFng7WIqaWLimJhasaL5s4mtizrKbsdZo8z95tmguo78SmpizVNoP+n6uRk85Y9wUYSXDOkxXj29Nms8kQAIkQAIkQAIk8A8BCjJ+FFyeALLGvfnmmy4/jydN4OLFiyrETp8+rW66EGEVKlQQe5caiGxM3iZWaugH7WTrrmOacKOASYzx6TutpE6VEurSF3TnrjSuVcZYnbykx6sNNNEFEnwMfPslTZQBwfTx2y00xqxRrWeNZc1P3RQzGzGH+DSIvdRm+496tDAWp8Qam5XeJOowefbV3RGxaeVK5pW65njrtx+SmhWKyK4Dp431Lbm0Mynz4faIbR81iLgMOr506MO4TSKpR/7cz8hZI5iKFsguL9QpqyJu3uj35Nc1O43xLVQKGOveF2aOpU2c3NlL14y1L6tALHYxWSPPGffJMYM7m9i1XPKmcX08Y5KDjBrUWWpWLGqse4UlfZoUcujYecmdI6M0e768asL+3ZtJCRP3FjFVf2R8uYwESIAESIAESMCzCHhlypRpqMlC+P7ly5fjPPMbN24IaoAh3oWNBEjANgRgWRk3bpzkyZNHypQpE+fU/8dPnpfde47Ki42rRnuAvy+aKnVKRSg5EMHSFe3OuKGmy5/xxzlp80rnRxa9GDJBbNuUGcuk4yuNo7Xn0qVLZefOndK/f/9obc+NSIAEoiZQs2ZNwd9U0qRJo96Ia0jAiQggI/n06dOdaES2HQrCOk6cOCGuVkzdaDBcAww3N9370EJm288EeyMBmxNADFnXriYZhLO1cG6HzjY0jocESIAESIAESIAEXIUAk3q4ypniOEmABEiABEiABEiABEiABNyOAAWZ251STsgWBPz9/WXx4sXR6uqeKfI7ZcqUsKyBcDFctWqV3L17V4KCgmTDhg1y5syZsL727dsnBw4cCHvPFyRAAiRAAiRAAiRAAp5LgC6LnnvuOfMIBAICAgSxlEg6ASH19ttvCxKGIJshWtq0aWXChAkqtBKaWlnvvPOOeHt7m1pVoTJq1Ch55ZVXZOvWrZoJce3atbJ3717NABkYGCjdu3cPO9q6deskWbJk8sUXX8jVq1fV5xnHvHbtmh6zWbNmYdvyBQmQAAmQAAmQAAmQgHsToCBz7/PL2cWAACxiv//+u2YuTJUqlUAYzZo1S/AaFq8BAwbImjVrZMiQISrGENsF61hISIjcvHlTvvnmGylfvrxcv35dYGHbtm2bdOjQQYUX1sFiVrRoUU164+vrK1euXNHMialTpzZp2xM7T/HnGDDjpiRAAiRAAiRAAiRAAnEjQEEWN37c240IZM6cWXr16iUff/yxJtHInz+/CrEuXbqIn5+fWrWSJ08uxYsX19fYHpYyCDIIqly5cqkQO3r0qBw5ckQKFy5sih1v0n0/+ugjee+997RfFCWGhQzib+zYsVo/7eTJk7pdx44d3Ygop0ICJEACJEACJEACJPA0AowhexohrvcYAjVq1JDNmzdL79695cKFC3L7tqln9U9DlsN8+fKpC2Lnzp31Gaty584tSCebIkUKefHFFzU2LGvWrGoJQx8o5AxXSNQLg2CDtS1btmzqnhgcbIoNG4tZgQIFJGXKlFKpUiU9JgQbGwmQAAmQAAmQAAmQgGcQoCDzjPPMWUaDAITQs88+K59//rlawZCIA0ILDevwSJ8+vdZySpcunQq0vn37aryZ1T1qYBQrVkxy5MghAwcOlEmTJgksabCGoY4Y3Bi//fZb2b17tyC2DOIN61HPJnv27PJPTQqrOz6TAAmQAAmQAAmQAAm4OQG6LLr5Ceb0ok8AQuyPP/7QuLAPPvhALl26pJYrJPJArFibNm0EsV85c+bURBwFCxaUunXrCixdVoMlbOTIkdK8eXPp06ePfPrpp1KtWjWBcJs7d67u26pVK00Qgrg0CDO4OJ4+fVrmzJmj+1h9OdNzwkRJnGk4bjAWYwVNmCRWRaHdYPKcAgmQAAmQAAmQQDgCtJCFg8GXnk2gR48eMm/ePE1hX7t2bb1Yrl+/vnz11Ve6vFGjRpqFcfTo0Zq4A+nt+/XrJ0jKAesZ3j///PNq8cqQIYOKrueee058fHxU0GE9YtCQrREZFWFtg1skkoQsXLhQypUr91h6fGc6G4m8k8v9+w+caUguPZbgO3fF2ze1S8+BgycBEiABEiABErANAQoy23BkL25AAFaw2bNnS6dOneTixYuyevVqyZIliyDRxvjx4zWBB5JxVK9eXYUVRBisXliH2DBkXcQD7opIaX/+/HkVcj/99JOMGzdOunXrJitXrpSNGzfK9u3bNeYMafYHDRqkbpCLFi3S5CDOiDJNhuxy7pK/SAIvZxyea43JlDhYunqXNGjQwLXGzdGSAAmQAAmQAAnYhQBdFu2ClZ26IoFp06apm+LXX38tJUuW1ClAjLVs2VKtWEhTD/GFjIvLli1T8XT27FlN2jF8+HDd/pNPPpHSpUvL0KFDtcYYrGuoUYZYMST32LNnjyb1QHr8ChUqaHKQypUraz2zHTt2aN0zZ2SHuLi50zdIutS3JZlvUmccomuMyYgx/5uBkiFvRUnqQzdQ1zhpHCUJkAAJkAAJ2JcABZl9+bJ3FyLQs2dPHS2KNIdvSOwBt8Lwy5HmHg1p8tGsdRBmsJKhwSXxs88+C3uPLIywqqFZ2yNDo/UaRait9bqRk/3XrHUnWTxrjDSulFUSJjZfHZgLE0JG7yzhI2U+Vzf8A2X55ivy0svNo7cftyIBEiABEiABEnB7AhRkbn+KOcHoErCEUWTbR7Uu4nJLjFl9RHwfcfunvbf6cYZn1Fyr07Sj/Pr7EvF+cFG8E4QaD0aKsuicm4deCSUwxEsSpcgmbV9rFZ1duA0JkAAJkAAJkICHEKAg85ATzWmSgC0IwF2x4QstNUkJEpLcvx+qhjJb9O2ufcA4lshYVBF/CFHLRgIkQAIkQAIkQALhCVCQhafB1yRAAtEiAJdNJDJhIwESIAESIAESIAESiBsBZlmMGz/uTQIkQAIkQAIkQAIkQAIkQAKxJkBBFmt03JEESIAESIAESIAESIAESIAE4kaAgixu/Lg3CZAACZAACZAACZAACZAACcSaAAVZrNFxRxIgARIgARIgARIgARIgARKIGwEKsrjx494kQAIkQAIeTODBgwdy586dsBqCISEhEhoaGikR1BmM+MCGWBYcHGyylt7X19gf/VgN6wMDA623fCYBEiABEnAzAsyy6GYnlNMhgacRwMVdhNrXT9vlyetNf9duXJd0adM9eTuutRmBhAkThAkAm3XKjmJF4MyZM/Lll1/KDz/8oPvPnj1bcuXKJZUrVxaItU2bNoX1u27dOjl//rwgS+m9e/ekWLFi0rBhQ1m1apUcOHBA6tWrJ6tXr5YSJUqoIGvWrJnuCzGGIvI//vijjBw5Mqw//C3nz59f17GkQhgWviABEiABlyNAQeZyp4wDJoG4EXgmYzqZPutXOXb8XNw6MnujsPWZ08dl44ZV0qZtV7kXei/GfaJO17Xr1yVNmjS6b8DNm5LavMbFpr+/v6bXj1hA+2kHCQq8JXv2bJGKlWrrRfHTto/pev8b1+T6jauSN28hu/T/tPHgQj+TOY9sjidw8OBBSZIkiVy6dEkSJUokt27dUmsXRobP8NKlS2XSpEnSpUsX2b59u3zwwQcyePBg6du3r0ycOFHat28vEGoBAQEyY8YMqVOnjuzYsUOKFCmizylSpJBr167J2bNnZc2aNXL16lV5/fXX1Zp29+5dFYKtW7dmjTvHfxQ4AhIgARKINQEKslij444k4JoEfH19pP/7HeSBuViEGIpLwwVo8+Yt5PChXVKvTknJnTu3uQh9EKMu0UfHjp2kdYvekj17dr1wnTVrphw9ekw+/PBDmTZtagwvNr3kyJEjsnbNPOnVo1WU7mMxGmSEjbdu3SobNmywW/8RDhfpW1pEIsUS7wv37t2r1qx+/fpJ0qRJpXTp0rJ7926pVauWfm4//fRTWbFihXz88cdStWpVGTZsmJw4cUK+/vprgdj6/fffVYxt3LhRChcubD73R2XLli2SI0cO+eSTT/Tv4eLFiyryTp48KZs3b5ab5qYF3Boh+CDK2EiABEiABFybAGPIXPv8cfQkECsCuJhPbIQQxFBcHhA+q1atlATGUjZixPfmAjRBjPvDBDp2fE2WLVsqPj7e5sLzjs5p5MgR8uKLL4i3t3cM+0xotk8oCRI8+nqLy/yetK8liJ60jT3XxdRqGKsPCnd6IgHEfP3yyy9q8Wrbtq0ULVpUP6uLFi2SXr16yXVj+YXQQnwYRFbatGll4MCBUqBAARkwYIC6LpYrV05y5swpyZMn188s3BnhBvnKK6+oKGvUqJG6JKIQe8WKFaV69ery7bffqvjr06ePvP3222qpfuJAuZIESIAESMCpCVCQOfXp4eBIwHkJ4O484mYswfTHH3/IhQsXYjXgMmXKqMUJ7l4QGriAPXXqlOAil40EnJXAr7/+qq6EsFrt2rVLatasKUFBQWrZhTjr3bu3JvyAi+nt27flypUr0r9/f4GbI6xfSAaCmDNsC7H17rvvStasWaVu3bq6LdajLVmyRP+24PoIgYd9YZkbMWKELFiwQC1mzsqI4yIBEiABEng6AbosPp0RtyABEoiEAO7+r1xprGP/WKIQ77V48WJ1sYpk8ycu8vHxkWrVqsl3332nAg+xMoiLoRXoidi40sEESpYsKRMmTJAxY8aoxapnz57qgoi/ic6dO+sNBV9fX8EDn2+4NSIJB+LI4LqIuDDEjk2ZMkWzKM6fP19q166t2yLGDG6LsMItW7ZM0qdPr0INFjJsA7HXvXt3TSCCdWwkQAIkQAKuS4AWMtc9dxw5CTiUABIQIJGB1WAx+/777623MX7GBSwsAchCN3nyZI3BiXEn3IEE4pFAlixZ1CqGjImpU6dWd8Xwh0+WLJneVICoQhzZ1KlTVZQhoyLiI/F5r1ChgsaUwdoFKxriKCtVqiSwvkF4wTUW8WZwZUQsGazQw4cPlypVqsjff/+t4g79s5EACZAACbguAQoy1z13HDkJOIwA0nAjUxwuRJFUAAkG8IykA1b675gODhevyB6HhAhw2+Jd/5gS5PaOIICU9WjIfvjFF1/oM6xex48fl/3790vXrl01gygEFlLWDxkyRGPIYCFD/Fe6dOk0rgzujjt37tQ4s6+++koQO4YbHJcvX1Y3SLjxIrYMKfVhOUNq/EKFHmX5xM0QNhIgARIgAdclQJdF1z13HDkJOIwAitbOnTtX7/7DdREXm0hCAGGWMmXKWI+rZcuWMn78eHnvvfdi3Qd3JIH4IoCkNqhBNm3aNP3cw2IFyzHiyRDv5efnJ0OHDtVsitOnT5du3brp3wz+TpCQA+ny4c4IqzD6gKsj3Bnz5csno0aNktGjR8v777+vMZWoa4ZU+BBwiB87ffq0CjVkdqRrb3ydcR6HBEiABOxDgILMPlzZKwm4NQFki0MKbzQkKoAlAK5XcW2wkuHuf8aMGePaFfcnAbsTyJMnjwopy5qL+C48ImudOnUSPCI2uP3iJgaEFVrevHnVSoYMnT169FDRBQEHl0g8wz0R8WhWls8WLVqEvY7YN9+TAAmQAAm4BgG6LLrGeeIoScBpCeAC0ZYuU7bsy2mhcWBuQQAWLUuMxXZCuPlgiTH0gfeIF0OD5Qvp8CHG0CDSkNXUEmNYZq3D6yc11Du7cePGkzbhOhIgARIgAQcRoIXMQeB5WBIggX8JIIscLAWISUPMzMyZMzUmDS5f9evXD8vk+O8efEUCJBATAnCDRBZIpNxv0qSJ1KhRQ1PtQ1TiJgjdHmNCk9uSAAmQgG0JUJDZlid7IwESiAUB1G5CUgS4ZEGU4TWShCAdPhsJ2JsA4hZv3rxp78M4vH+k6Uf8J+LT8EiRIoVmbIRAYyMBEiABEnAcAQoyx7HnkUmABP4hgGQeaBBkW7ZskbfeeuufNXwiAfsTaN++vaB4szs3WKCRBRIp95s2bSp16tSRsmXLSoYMGdx52pwbCZAACbgEAQoylzhNHCQJeAYB3L139wtjzziTrjVLT7DErlu3TpAABKIsTZo0rnWCOFoSIAEScHMCFGRufoI5PRIgAc8m4O/vL2vWrNG6WMeOHRNkBmTzPAIvv/yy503axjNGrB1KfKDUB+rMoQwBGwmQAAnYggAFmS0osg8SIAGPI2Blg3Rmix4Kdbdr105LCdy5c0fefPNN6du3r6AIsTOP2+M+TJyw0xNA8hMU8kbyE8S5ooh9hw4dtJQB1rGRgLMS4OfTWc/M4+OiIHucB9+RAAmQwFMJIP34jz/+KIsWLXJqYYPiwatXr5Z9+/bJjh07pHfv3pIrVy4pWLDgU+fIDUiABP4lgMRDRYsWlYkTJ0qtWrX0bx9/Tyjoje8DNhJwVgK4iZA7d25mU3XWE/TPuPgt4uQniMMjARJwPgLFixeX9evXO9/AIhlRqlSpZM+ePfpjjFipw4cPO7WIjGQKXEQCDicAi7hVLw6vYXUYMWKEwPLMRgLOTiBJkiQsbeHkJ4mCzMlPEIdHAiTgfARwMQah44oNqc7ZSIAE4k4AF7l4sJEACZBAXAnQ8TmuBLk/CZAACZAACZAACZAACZAACcSSAAVZLMFxNxIgARIgARIgARIgARIgARKIKwEKsrgS5P4kQAIkQAIkQAIkQAIkQAIkEEsCFGSxBMfdSIAESIAESIAESIAESIAESCCuBCjI4kqQ+5MACZAACZAACZAACZAACZBALAlQkMUSHHcjARIgARIgARIgARIgARIggbgSoCCLK0HuTwIkQAIkQAIkQAIkQAIkQAKxJEBBFktw3I0ESIAESIAESIAESFEPOvgAAEAASURBVIAESIAE4kqAgiyuBLk/CZAACZAACZAACZAACZAACcSSAAVZLMFxNxKIjMCDBw8kNDRU7t+/H+kj/D6BgYHy119/ycOHD8MWY/87d+7IkSNH5Pbt2/o6ICBADh48GLZNSEiIbNq0Sd8HBwfrNtgHD6xjIwESIAESIAESIAEScB0CiVxnqBwpCTg/gfnz58uUKVMkTZo0Ksy8vLwkYcKEKrpy5MghgwcPljVr1giE1OXLl2X27Nly69YtSZAggeTKlUv369Gjh5QqVUrKli0r27Ztk5w5cwr6KViwoAKA8Jo5c6ZkypRJPvvsM/Hz89P+0Sceo0aNcn5QHCEJkAAJkAAJkAAJkIASoCDjB4EEbEjgxo0b8uqrr0qLFi3khx9+kPLly0uZMmXCjnD27Fn58ssvpWLFinLt2jW5efOmWrsuXbokKVOmlH79+kmRIkXk1KlTcvfuXalWrZqMHz9erV/Lli3T/vbu3StbtmzRZVWrVpWXXnpJxd/Vq1elT58+YcfiCxIgARIgARIgARIgAecnQEHm/OeII3QxAufPn5dVq1apdevevXsSFBSkFrCSJUvqTGD9+uijjwQi7NNPP9UHXBJhWYOFK1GiRGo5g2h75plnZOfOnQIx1qtXL6lQoYKKOfTbunVrmTFjhkCI4blly5aSP39+F6P1+HBhCWQjARIgARIgARIgAU8iQEHmSWebc7U7AcSDnTlzRkUULFmI/9q/f78cOnRIvv76a3UzPHfunLotwloG8bZ8+XI5efKkIH7s+PHjKuY6d+6sQuvnn3+WFClSaDya5daIGDUcB4IObot58+bV2DFY1iDocExY21ylYS5gATFmxcHB0mgJ2YwZM6rbp6vMh+MkARIgARIgARIggZgQoCCLCS1uSwJPIQBBVLlyZXnhhRfkrbfekvfee0+s2LHEiRNLunTpVFxdvHhRhRNECIQYrGKIBcPzhx9+KBMnTpSePXtKqlSpZOPGjTJnzhx1YUT/r7/+ukCwQIBBkEGwYD+8hqBBzJorNTCAq+X27dvVkgghBusghFqJEiVk6tSpLjcnV+LPsZIACZAACZAACTiWALMsOpY/j+5mBCC0YNGCSyEsZdmyZdMZwmqVJEkS8fHx0YQdVpZExJc1bNhQYBF799131erVoUMHSZ48uXz88ceyYsUKqV+/vowZM0batGmjgg7LIVhKly6tIm369Ol6DCQI2b17tyRLlszlqL7xxhsqUMEJGSoRW4cYu8aNGys3l5sQB0wCJEACJEACJEAC0SRAQRZNUNyMBKJDYPXq1VKoUCGNB8udO7dafLAf4ry8vb21i969e0uWLFmkf//+UqBAgce6hfiqV6+e+Pr6qvvhK6+8ouIOCT5gSYKVrXDhwipSIL6OHTumSUMg3CDYkJXRFRsEZvj4N1jHwK9t27auOB2OmQRIgARIgARIgASiTYAui9FGxQ1J4MkENm/eLEmTJhXEfU2YMEGtW8OGDVNLD6xlmTNn1lgyJPxYvHixJvOAdWvcuHFq7cqaNauUK1dOGjVqJGPHjlVr2ty5c2XWrFn6Hinu0b8VP4Y+Ic7Q14EDB9SqhPgyV2wQq8gW+b///U9FJ+YAN0bEzbGRAAmQAAmQAAmQgDsToCBz57Pr5nODWyBc3BCXFVW7cOGCWpiyZ88e1SY2W46MiCNGjNCU9ag1BtdFuNxhjIglg+jYunWrpE+fXubNm6cxY926dVPB5u/vr2INCUBgPcN6WMR++eUXGT16tFrd4KJ40iT/QEp8xKdZSS9q164tOU2tMtQzQyIRV21w1fzuu+8EBbMzZMgg1atXd9WpcNwkQAIkQAIkQAIkEG0CFGTRRsUNnY0AYoy6dOkiECRIAY+LeKtBBMHaAgGDJBcQbXgffhtrW1s9I14Mj6JFi4Z1aRVztha0a9fOeqnPSMaBpBx4RHRfxAbht7f6r1KlymN9WG8g9FBc2lUb4ua6d++ulsOaNWuqcHXVuXDcJEACJEACJEACJBBdAvQHii4pbud0BJBVEBn4EG/VvHlzmTx5ctgYUecL2Q5nzpwp06ZN0xpdb7/9dth6vnBOAogZg+smLIpsJEACJEACJEACJOAJBGgh84Sz7KZzRCwVshYiDXydOnUEMVaIp0IsEgotw/0Nbn9osLhAmCHpRqVKlTQOy02xxPu0QkJCbMYzbdq0Mnz4cHXbjPeJ8IAkQAIkQAIkQAIk4AACFGQOgM5D2oYAklogzgixZJbwQlKLP//8U10YrWXW0SpUqKCWMljU2GxHAGnq4WpoiwYXzrp169qiK/ZBAiRAAiRAAiRAAi5BgILMJU4TBxkZAcRUHT16VDPxIa08iilDjFWrVk3Wr1//n11QeBgZC2EtY7MtgYji17a9s7e4EoA1mecorhS5PwmQAAmQAAnYhwAFmX24std4IIALzAcPHghSx3/77beC4sLz589XN0Yk+/jjjz804QeGguyGKNqMBCBsJOBpBFA+4OzZs4KbErAos7kfAYhu3KRCllY2EiABEiAB1yJAQeZa54ujDUfg+vXr0qtXL81QiHpdSP1utSFDhkjfvn01bTyyLCKtPEQbGwl4IoEiRYrIhg0bZM6cOZ44fY+Y85UrVwSJjhBLy0YCJEACJOBaBCjIXOt8cbThCCBN+ueffx7pHWGkgEdx5uPHjwviyvLly0eXrXDs+NKzCOTIkUMGDRrkWZP2sNmiOPzs2bM9bNacLgmQAAm4BwEKMvc4jx45iyRJkkQqxsLDyJ07d/i3fE0CJEACJEACJEACJEACTkWAdcic6nRwMCTgegQQuxK+RXwfft2TXoffL/xr7BPx/ZP64ToSIAESIAESIAEScCUCtJC50tniWEnACQn89ttvAhfRZ599Vkf35ZdfSs+ePSVp0qQSGBgot2/fVndRxPHt2rVLXyMZC0RWw4YNBa5WhQoV0ni/559/XlDXbMaMGdKpUydJkyaN9okELSVLlpRr167J6dOnwyggWUW5cuUkZcqUYcv4ggRIgARIgARIgARciQAFmSudLY6VBJyQADJbdu7cWe7cuaMZLnfs2CGoTYaGZCvjx4+XZMmSSapUqdTFFCUKkA1u3759Urp0adm0aZMsX75cY/1Wrlwp3bp1k99//13atm2r4g2uqceOHZOsWbPKuHHjJHXq1IJ6ZWhbtmzR5C2oMcdGAiRAAiRAAiRAAq5IgILMFc8ax0wCTkTg119/lcuXL6ugQiZLWL5gAUN77bXXVKTBAoYEK6gTh3WWhQzbwuq1c+dO7QOWtr///lsta7C0HT58WF566SVZsGCBCjdY22A1Q8kDWMfwzPpaTvRh4FBiTACff5QjqFq1qnh7e8d4f+5AAiRAAiTg+gQYQ+b655AzIAGHEVi2bJkUL15c3Q2LFi2qF5Tnzp2T5s2bqwALDg5WcRUQEKAWNKTl9vPzU2sXxBdEVbt27XTdjRs3pEmTJrJixQqB6+Jbb70lGTJkkA4dOkjHjh1l2LBhUqBAAYE1DMthaWvVqpW+dhgAHtiuBCDY3f0Biy9uSOTNm1etvaiZeOvWrbCbGnYFzM4jJQBrv2Xlj3QDLiQBEiABGxOghczGQNkdCXgKAVywTJ06VW7evKkXL3BVTJs2rbolwoURMWAQUkuXLpWNGzdKunTp5MSJEwJxBqsALGYoUjx8+HDp3bu3rFu3Ti5duiQ1a9bU7ZEhE/Wz0FDUGIW/fXx8ZP/+/XrBCgF36tQp2bt3rwwePNhTsHvUPA8ePCh//fWXoJagOzf8bbz++usaO4m/KcREVq9eXT/XuHHBFr8EVq1apTGxuIHERgIkQALxQYCCLD4o8xgk4KYEGjVqpK6GEFWwWiFWDK1ixYpahBhxY1hWuHBhuXv3rly4cEELFCNBB4QcrAMvvPCCxoaVKlVK8ufPL/Xr15fNmzfLTz/9pMW8UWsO9ZUGDBggEH0Qe7t371YXxrfffltQj47NPQng8+AJpSuOHj0qY8eO1b8VWIBhYcaNCV9fX/c8sU4+K8ul2smHyeGRAAm4EQEKMjc6mZwKCcQnAVgt4G4IK1W1atUEsWRWwwUNXBPR8BouWEjMsXjxYt1+27ZterGJgsXIsogkHegDCT0gyCD0pkyZIsWKFVNXLoi9KlWqqLWkffv2ugwCD1a4r7/+Wt9bx+az+xDAZ8zdrWOwCiOJDWImYRGGtYxxke7zGeZMSIAESCA6BCjIokOJ25AACURJAC5l2bNn1zv8iPuCuxXEUuLEiTWTIi42T548qZawIUOGqJsjUuTj4hPbYt/169fLO++8o0IMB1q9erVa0GARg+XM6gviDuLtu+++0/iz0aNHa5r8KAfHFSTwDwFYZ+H+h89SaGioWnYzZ86sa614ofDi7/z58wKXNcQ5omEfxETCImvFGCEJB5alSJFCt4nqv6CgoDDrccRtMmbMKL169Yq4mO9JgARIgAQ8iAAFmQedbE6VBGxJAMkW4Kq4YcMGtY5BRCEWDCIKqexxIfvqq6+qFQ3iCxkXZ86cqRfCP//8s9YpQ/p7uKTBfbFr166yZMkSqVevnsbT4H0Hk9Dj5ZdfVssaxj5w4EC1Jrz//vs6FcSToZYZGwk8iQAEUcuWLeXdd99VQXb9+nWNbezSpYsKKsQmokTDqFGjwgQYrL+LFi0KE1sXL17ULKFwscW26AMulSi98Oabb8qhQ4d0ewg3iD6INGwLwYX4R/TFRgIkQAIkQAKREaAgi4wKl5EACTyVANyqKleuLH369NFtIYwscQSLAwo8ozi01SK7IIWoQwD9Z599ppshCQiyzJUpU0bfo+g0rBHoF9Y0uC5Onz49rAg1rBhYzkYCTyLwySefqDhCPCLcYidOnCh169bVGwqtW7fWmnew9CJuETcSUPsOroSTJ09WixgSbECQIRnNwoULBYXKUYIBIgwJZxDjiM8u3GzxWUU/H330kYq+2rVrC4qi47NOV8QnnSX7rQN7JP758MMPtTg9rJyoazhp0iS9+cNyA/Zjz55JgASiR4CCLHqcuBUJkEAkBKIqyAzXr/BiLJJddREuUGvVqvXYakuMYSGsCxEb3B2tZrmcWe/5TAKREUABcogliPdffvlFyzMgcQzEPqxYyPCJZDEQ/Lt27dLPLi7SkYwG+5w+fVrFW2BgoJZdsMQVMn3iddOmTdXtFvX4kMIeAgx9IqOo5fIY2bi4LP4IIGMnLJmI0YPghis04l9x/thIgARIwNEEWIfM0WeAxycBEiABErArAVitkO2zRYsWAosVRBhcY3PmzKlJZ3ADARYu1NArUaKEoKYeLtqRVAZ19lC0GdvDvbZNmza6rkaNGmohRlwarGXIKHrkyBHJkyePCj68hxUGz7zot+vpfWLnYA+LJjJWlitXTiCiIZLhWspGAiRAAs5CgBYyZzkTHAcJkAAJkIBdCODiG4lm4OJqXYjDOovYMjQIrh9//FFjHxHvhXVwWYT4wsU70tAj/vGZZ56Rnj176vYo3QDXXBQox0U/+i1UqJDGTcLVFsXNkYQGcZHIMkp3Rbuc2qd2Cu4oKA9hjNcvvfSSLF++XGMHcX6shC5P7YgbkAAJkIAdCdBCZke47JoESIAESMDxBCyLCEQTHihIjgtxvLaEEuK+UIZh3rx5WtwcaehHjhypLo4oeJ43b15p0qSJ1syD6yJcIBcsWKDuiUjggWMMHTpU48wQl4Z1sMbAjfH77793PAQPHgHOQdmyZTXbK1xK4U6N84PXffv21aRCHoyHUycBEnACArSQOcFJ4BBIgARIgATsRwAxYC+++KLGh7Vq1UoTdSBhB7Ikwk0RLouILevRo4davJCQBpYUPJC0BslrsO3evXs1Ici+ffv0Ih7ZFOEKh+yfeCB9PUQexN6ZM2e0fAOsMBB9sMKxxT8B8J8/f766k/br10/jBIcNG6bJVw4fPqxujEjWAgsaGwmQAAk4igAFmaPI87gkQAIkQAJ2J4ALctS5w8U3CpIjRgy17FCoHG6HyK6IWK98+fKpiyGsW4gXGzNmjMaKITX+2rVrVWhBbCF74owZMzQuCZYWxJV1MOUZYDWDtQUN7pETJkyQ7t27qzsjBBmsZWnSpLH7fHmAxwnAcomyGxDd27dvl+PHj0tOEzsIKyka1qHeHBsJkAAJOJIABZkj6fPYJEACJEACdiWAC3Jk65w1a5aKJCTqQEOGvUaNGkn58uU1vT0sZxBqEGzIsJg6dWqtW7Z48WIVZFgOcde+fXu9oEfqfCT+gJsi0upD0OFiHw0xZehr7Nix+h5jQBbH8BlEdQX/ixcCqDMHkYyYQaS8x/mwXFUhzrCejQRIgAQcSYCCzJH0eWwSIAESIAG7E4DFC0k2cDFutXfeeUczL+J927Zt9SIdVhQk9wjfkHHRuniHCyNcH8Nbuvr376/WsfB9h9+frx1PAKUyILpQxLtx48bqZurn56dF5iHO2EiABEjA0QQoyBx9Bnh8EiABEiABuxJAyvuIDYk6rIZYsKha+HWwekXWF8VYVPScY3n27NkFDwhzWC8hsPEM91TE+1nLnGO0HAUJkIAnEqAg88SzzjmTAAmQAAmQgAcQQKwY4v4sd9LIpgy3U8QCspEACZCAowhQkDmKPI9LAiRAAiRAAiRgVwKwcEJwsZEACZCAMxOg87Qznx2OjQRIgARIgARIgARIgARIwK0J0ELm1qeXkyMBEiABEiABzyYwZ84cWblypQQHB0vLli0FdeROnjwp2bJlk+rVq0uFChXCErd4NinOngRIwFEEaCFzFHkelwRIgARIgARIwO4E9u/fL6+99pqWMkB5ggMHDmgRb5Q6GD9+vKAQOBsJkAAJOJIALWSOpM9jkwAJkAAJkAAJ2J1A+vTpNUOmr6+vHitDhgxavgB1yJBlkY0ESIAEHEmAFjJH0uexSYAESIAESIAE4oUA0t1v375dbt++HeaiiGVWnbl4GQQPQgIkQAKREKCFLBIoXEQCJODaBHCBdfr0aZkwYYKEhoa69mTcaPQ4L3Xq1JFcuXK50aw4FWcnkClTJkmSJIk0b95cZs+erbFkVn25Pn36iLe3t7NPgeMjARJwcwIUZG5+gjk9EvBEAgjWHzt2rDx48IB3v53oA/DXX3/J33//TUHmROfEE4aC+DG4JaI4dOnSpQW1yRImTCjnzp2TZ555hoWhPeFDwDmSgJMToCBz8hPE4ZEACcScAO54V6lSJeY7cg+7Erhx44YEBgba9RjsnAQiEti7d68gsQeSeOAmDcRZUFCQfPHFF/o9UaNGDfHz84u4G9+TAAmQQLwRoCCLN9Q8EAmQAAl4NgFcDLORQHwTgAA7e/asNG7cWC5evChJkyaVO3fuqBg7fPiwNG3aNL6HxOORAAmQwGMEKMgew8E3JEACJEACJEAC7kbg/v370rNnT1m7dq2ULVtWjh07JkePHlX3xUSJeCnkbueb8yEBVyPALIuudsY4XhIgARKIIwFYqo4cOcL6S3HkyN1dgwDcE2ERC2+hhdUMlrJevXoxztQ1TiNHSQJuTYCCzK1PLydHAiRAAv8lkCBBAjl06JC0aNFC3nnnHVm5cqXcvHnzvxtyCQm4OAEk8Fi1apVs3bpVsyta04EgQ2KPNGnSWIv47CEEIM5PnTpll9ni83b37t1IH9YBsc2lS5f0LeJq4UYbWcM2WM/mGQRop/eM88xZkgAJRJMA7qZDoEC0uHurWbOmzJw5U6ZNmyYZM2aUBg0aSJcuXSRv3rzuPnXOz0MIIL19kyZNNO29VRQaU8ffN0pjIA0+kn2wuTcBWEctCymya77++uuyevVqgSsrGtxW16xZI8ePH/+PxRTiPacpII7PCzLFomFZ6tSpdX8IJ1hbR44cKV9//bVs27ZNxT+WBQcHi4+Pjz7PmDFD0qZNK5s2bRIkmsF3Leri/fjjjzJ58mQ9LsoznDlzRjOAzp8/X48LF1uME1lCs2TJosfnf+5HgILM/c4pZ0QCJBAHAsjQWKJEif/8KMehS6fb1bIOLF68WJMdFC9eXOrVqyeVKlWSDBkyON14OSASiAsBfN7xwMU0LoRv3bqlVgmUxzhw4IBe7MJaxuaeBHDuJ02apDfaII4gbkJCQuTVV19VIYZC4d27d5d06dKpOMqfP7+UL18+DAZqWaZMmVKaNWsmpUqVkmXLlsmJEydkwIABYXUux4wZo69h0SpXrpx+1qpWrSpLly4VZPGE+LMEoXUDrF+/fnqMVKlSyccff6z7Y9mUKVN0LPgdwj74jF6+fFl/k957772wcfGFexGgIHOv88nZkAAJxJEA7pTmyJEjjr04/+74YYfFYP369XoX1vlHzBGSQOwI4IIcae1LliypF8voBRfkGzduVIsDBBqsHWzuSQAF6Tt27KiP6dOnqwcABBdEEoQ4hJPVsC1E0NWrV3URPjv58uWTMmXKyNy5c+V///uf7gNPCognCDG05MmTy7Vr1/S3I3fu3CroBg8eLG+88YakSJFCi49DWKHu3bp162TDhg0ya9YsFYTagfkvffr0KsQwJljHwiebgRsks4FapNzzmYLMPc8rZ0UCJEACTyQwaNAgdbN54kZcSQJuQABuXrjQxkV1xFatWjW9wI64nO/dj8CoUaNk0aJFMm7cOJ0cRPq7774ru3btkh49euhnBNk3X3zxRXUtxGcG8V1LliyR5557ThPDtGnTRuMOUeAe3gRDhgxRN0e4M8KCVqxYMc3kCSEHV0a4JyZLlkxy5cqlguubb75RcYb1EHFwqUXDe7g4Wg3uidY6jAP1G7ENm/sSoCBz33PLmZEACbgwAfz44ofYahHfW8tj+xz+xz+2fXA/EnAFApkzZ9YkNkhzD9czxBDhYhcCDVZiWDDY3JsArGE///yzvPDCCyrIYL2aOnWqugqOGDFCrU+wUMEqBYsZPieIM9y3b5+6dYMOPjOwbL3//vuCeDAIMiQIgdXs/Pnzav3CZwu17RD31a1bNy2rABdJuMq+9tprkilTJsmaNasKLBwfLpRWg2UNcb1oEIX4jrZ+AyAMrUQg1vZ8di8CFGTudT45GxIgAQcQ+P333wXxKAULFtSj//TTT/rjG3EocDuB2woafuzxQ53TBIvD/QXB3AsWLJC2bdvqDz+SbbRv316XY3vc2S1cuLDeZcXdUqvhBxt3ehH7xkYCJBA5Abgo4qYGEvbARREX3Ei4APcxuJ2Fdw+LvAcudWUCiOtCAhck1YDYGT9+vMaBwfIFYY7vX7gp4rsVCT/w/YzvVnxWmjdvrlPH5weiDEIJ2Wlh/cJ2yNSJ72Bsj/f4LsYD3+/oF8/YD66Iffr00f5wI6Bo0aK6Dp2jbyRTwv6w6CJmDPFo+/fvl/r162vWRsS4sbkvAQoy9z23nBkJkEA8Efj111+lc+fOGnuAH2XEZeFuKBrusCL4G4HjCNL+7bffpFChQurmgsyGtWrVkoCAAL04xB18ZPnq0KGDur20bNlSY13w4w63Gri49O3bVzMiItAcx9q8ebN88cUXmpQjnqbLw5CASxHAhS3SnMMCgQtjXJBbyWtw4YsLZgoylzqlMR4s3AbxQHwYYrEgqJDdEN+h1s0siKodO3Y81veKFSses0zhc4IbZ/g+x76wcOEZLowoJQLLGGLJ4PqIzxUajgmhhWZ9zmBZ27Jli3z//fe6HDcHkKURCUB27typ3+uwwuEGHb7zsS3GUrlyZcmTJ4/uw//ciwAFmXudT86GBEjAAQRwpxQP3AFFhixc9FkN4guuK8uXL5dXXnlFBRqyGqIhrgA/xLCcoVAzHvjhRtpjWNIQEA4XGBSvhbsNfvRxxxaxCqhlgx93XGxaP/bWMflMAiTwiAAuij///HO9GMcFOS6+rYtibAF3Rv79uP+nBd+ziAWDZQxiHN/HX331lSbqwPcphM63336rN8csGvhcQFjBerV79269kYbvXQgsPPB9j2dk78R3c5UqVVSMwZIFbwncNEPDZxBujPjuhnUN/UHEQdThdwMN/aI/uFJChO3Zs0cteN99953+HiDmd86cOfr48MMPdR/+514EKMjc63xyNiRAAvFMAC4lsHQhe9dHH32kP7i4G4+UyrBcYV34H3G4J16/fl1dY/z9/fXioEKFClqPButwYYBaNvhRRip6ZNvCHd2DBw9K9erV5YcfftC7sohZQLFbZI6DuyQbCZDAfwngIvfLL7/UC3AkbkDDBTTcw/B3B7dgNvcngO9neCcgiUedOnV0wshyCFdwuDLCfRCZGHFzLHyDKIOAwucI3+v4LsZ3LlwbUW8MHg5IEgLrGgTYwoULBWnscXPNatgfDQlAPv30U40hQ3+IJbNuBkCgwfWxZ8+e+n2OuMaJEyeGiT5Y8+BhgQebexKgIHPP88pZkQAJxAMB/NDi7jvufCJWAHdhERiOH9oWLVrISy+9pKIMrigXLlzQlMb44cWPPu6sQqjBwjVs2DDdFvVtYB3DxSJ+8GEds1yrcKxJppYOgrthLcN+6BP94bi4g8pGAiQQNYH+/ftrCnPc+MDfDpI5wEIGl+LwVrOoe+AaVyXQwbiBW3XHrDlADMF9FYXD8T2Kx5MarF7YxhJRSJ2Pzw2sWFZ7/vnnrZeRPmN/uCnCUguRGD6pB34XLPdJ3JirWLFimDXNOmaknXKhWxCgIHOL08hJkAAJOIIAXFFgAYPr4R9//KGuitYPZ926dfXHFe6JyML1yy+/yFtvvaVZuVDzCLErWIc7qxBgiBFAYWakTUYcAbZFFq6uXbsKCokinqBx48YCqxqKiCLWAQIOsRCsoeSIs89jugoBJPKAexhcyXABDQsG/maQBh2iDBfCFGSucjZjN05YpKJq1nd2VOut5RH7iOwz8zRRh74sEWY9W/1bYsx6H91xWdvz2bUJUJC59vnj6EmABBxIAD/IcIdCgVm4PkFAhW+ocYRmZXg7ceKEWr3gfghLFzJtIfsX1uOOfaNGjdRahsxfSI8MwQUXFQi3kydPaowCArs/+OADDTTHnX4INquuTvhj8zUJkMAjAnAFg1UZN0aQGAdxPLBQo8HyDAsJboqwkQAJkICjCFCQOYo8j0sCJOAWBHAX8+zZsyqgEKOQL18+fW1NDhm3Fi9erA+4H+KiELEHq1at0mQduGuP2ARYvBBwDjcVXDBiGTJxwW0R2eGw7ObNm3p3H3f0kckRd2PhhoUsjWwkQAKREyhdurTggbgeuIshNrNhw4aRb8ylLk0A9b7wXYrYLrijspGAqxCgIHOVM8VxkgAJOCUBBISjZhgEFmICkLEL1i6kwoflC4HiCBhHZiyIJwRtI+YMQg3xYqiLA1dFXCziQhEXEw0aNNB+kJURMQ5IDoJUy3BnRHp9HA+1aSAGkQUMroxsJEACTyaAmyXIpAfrGCxj0XEve3KPXOsMBPA9iu9buJ/CjRx1ICnGnOHMcAwxIUBBFhNa3JYESIAEIhBAKm1cCCAeoFOnTtKqVStNuIGkHLBkoZgzEn7gAhBFQbEMF4J44MIQom3Dhg2afhluileuXNF6M1b2N2RVRJzawIEDtWAoXKsg0KqbjIsQZKhZkyNHjgij4lsSIIHICCAOKGIsUGTbcZnzE4AHAb4fcYMKNcBwc6tdu3bqDo4U8e7eUPMM8cts7kGAgsw9ziNnQQIk4CACiPsK3xCjgkfEBgEWlXCCBc1qSPJhiTEsQ20btPz58+sz/oMlzWqIQWMjARIgAU8jADdupLFv3bq1JlVCtkPECsLDwPre9DQmnK/rEnhUOtx1x8+RkwAJkAAJkAAJkAAJeCAB3OhCmRGktYe7NyxjR48eFdRpZCMBVyJAC5krnS2OlQRIgARIgARIgARIIFICyEiLBxsJuBoBWshc7YxxvCRAAiRAAiRAAnYhgBhPNFherl69apdjsFMSIAESiEiAgiwiEb4nARIgARIgARLwOAJIvDNx4kQVY3B7Gz16tMcx4IRJgAQcQ4Aui47hzqOSAAmQAAmQAAk4EQFYxVDkPTg4WNasWaMlKpxoeB43FCtTLc4LGwlERQAZjnEzxdUbBZmrn0GOnwRIgARIgARIwCYE8uTJozX/bt++rcWkbdIpO4kVAdRh3L9/v5b3cIcL7lhB4E5PJYDPRu7cufVz8tSNnXgDmwsy3slw4rPNoZEACZAACZAACURJAOnSUduqZs2akiZNmii34wr7EwgICJDt27eLr6+v/Q/GI5CAgwnYXJDhD2jy5Mlq8nfw3Hh4EiABEogRAdxQqly5shZzjtGO3JgESMAtCJQqVUoFAL4H2EiABEggvgjYVJClTJlSxo4dK0FBQfE1fh6HBEiABGxCAGLsypUrsmTJEgoymxBlJyTgegRSp04tZcuWlfDF2l1vFhwxCZCAqxGwqSBLmDChFCtWzNUYcLwkQAIkoARQTHTfvn2kQQIk4MEEmjVrJoglYyMBEiCB+CJgU0EWX4PmcUiABEiABEiABEjAHgSaNm0qiRMntkfX7JMESIAEIiVAQRYpFi4kARIgARIgARLwRALe3t6eOG3OmQRIwIEEWBjagfB5aBIgARIgARIgARIgARIgAc8mQEHm2eefsycBEiABEiABEiABEiABEnAgAQoyB8LnoUmABEiABEiABEiABEiABDybAAWZZ59/zp4ESIAESIAESIAESIAESMCBBCjIHAifhyYBEiABEiABEiABEiABEvBsAhRknn3+OXsSIAESIAESIAESIAESIAEHEqAgcyB8HpoESIAESIAESIAESIAESMCzCVCQefb55+xJgARIgARIgARIgARIgAQcSICFoR0In4cmAU8i8PDhQ7l//77g2RlbggQJJDQ0VMeIZ2cdpzOyi+6YcP7xQLt37150d+N20SAArg8ePNAtyTYawGK5SeLEifW7AYwTJeIlVCwxPnU3Ly8v3QacXfH7GOPn5+Opp5kbhCPglSlTpqHmi/z9y5cvh1vMlyRAAiRgWwKnT5+WN97oIrduBYj1Y2vbI8S9N/zwBwTckrRp08S9M/bwHwKBtwLlgRHkqVKmlIfmH5vtCITcDZGAW7fEzy89bybYDut/esKNm1OnTkvWLJnFy7xmsx+Bs2fOSZYsz7geZ/PVlsgI99Wr19gPDnt2CwJGg+F6aPjFixf78PaOW5xSToIEnJ/A9evXJJ1fbpk6a5TcueN848UN2YsXA+Tn+ROkW/d3zEWt843R1Ue0Yvlyc+5vS8tWzY2FzNVn41zjP3r0tCxZNE369usnd4Oda2zuNJoUKUQa168tE6f8IT4+7jQz55oLvo/btXpefpy0QnyTikt9H2PsH3/0nnMB5WicngAFmdOfIg6QBNyDgJd4GXe1UAkMFAl2wgtG/Ijevh0oISEhEhTkWhcArvIJuWuUQkhIsPKlILPtWbtzO8iIXPPZNX9fd+/atm/29i8BfE/ANTQo6I75PjNKgc0uBB5xvm8435aHD3xdTpCF8gvOLp8Ld+6U9nZ3PrucGwmQAAmQAAmQAAmQAAmQgFMToCBz6tPDwZEACZAACZAACZAACZAACbgzAQoydz67nBsJkAAJkAAJkAAJkAAJkIBTE6Agc+rTw8GRAAmQAAmQAAmQAAmQAAm4MwEKMnc+u5wbCZAACZAACZAACZAACZCAUxOgIHPq08PBkQAJkAAJkAAJkAAJkAAJuDMBCjJ3PrucGwmQAAmQAAmQAAmQAAmQgFMToCBz6tPDwZEACZAACZAACZAACZAACbgzAQoydz67nBsJkAAJkAAJkAAJkAAJkIBTE0jk1KPj4EiABDyWgJdX/E7dOl7E5/gdxX+P9vDhf5fZaok1V1v1F5N+HHns8OO0B19HzM1LD+oleHLE8cMztV7bg63VN54dMU/rmJ7E2SGs9fvffJ7/OeEW93/eOuTJ3p9nh0yKB3UaAhRkTnMqOBASIAGLwLFjJ+SLwZ9JKl8feWj+xU/zkgcP7sndOzdk344e5pDxddzIZ5fAXIGcuREkP44ZISlSJI98o1gu9fYW+X7ERNm1eYMk9U4Sy15ivltIcICh+kBWr9ggDx18dQMB89A7uXz55WeSMGHCmE8mij327N0vw4cOF79UvvE6x9DQUAkODpIer/eI1+NGhgFsb4U8lC8M2zSpU0e2SZyXJU4s0vG17pLcPMdn8/JKKF4h3vLhO+8aQWjJhfgcQfhjecml6/7S7a23pErl8ub7K/w6271OYr4iXnuthyRPFJ/fiebvMzix9OsNzo535gq9/0Ceq15T2rdrKffv244teyIBiwAFmUWCzyRAAk5DIOhOsLxbv6S8WLW4yIP4vAhwGgQivt5SoP0Xcs9caNu64TrS//p1GdWpthTMkcnW3btGf4kTSruvFtlcvPjfvCX1imaW/3WqLxJi+3PnEnC9E0mvkUvk3j37zR+f4Wd8vWRWnxaOMZU5w4lI4CWfTf1Nrt3wt+towDp9kgcyv29LkQSOF0d2nWwUnV+7GSif/nnBIVbZKIbExW5GgILMzU4op0MC7kLgASwouOXrqYLM3JG1d7sPtva6rW7vwce1/wcJjBiLayeR76+fXZw/T2Vr5m7/T+8jG/ZDw9jxlqrIPwd2X/rQWPXt9SGOMHgc5r5hbTtbcoQDOPnb+/HwfezkCDg8OxPwzFsddobK7kmABEiABEiABEiABEiABEggOgQoyKJDiduQAAmQAAmQAAmQAAmQAAmQgB0IUJDZASq7JAESIAESIAESIAESIAESIIHoEKAgiw4lbkMCJEACJEACJEACJEACJEACdiDApB52gMouSYAEok/gypWrcivodli9Gex5/vxFSXgtQI6cvWryIvybeQEp8P1SJZN0KZOZiP5/l0f/aJ61JRKinTl7QUJC7j02cW+T6v5mQKCcuHRDEkVI+Z4upa+kNw+2JxNA5rnL5rMbGBhkNjRv/mkXL12WawG35cTZKxJy79/82PjsJvfxlqx+qfjZtWBF8zk4+K5cuHjpsa0TJU4kAbeD5aD5jkCJiPDNO0kiyZkxDTmHhxKN1/dNPvezZ8//J1FIEpP3/pbJfHvIsE4YlmXxoUm4mECy+6UWb5OxlI0ESCBuBCjI4saPe5MACcSBwAOTtWvQkGFSLkNiuRdJcZcJv217rPfz12+pIPuqW2OTUvxxkfHYhnyjBJImFWn38uvSrmpRI7wed4jIZ9at3X9a1pmH1S7cuCXJjFgb1aOJ52a3tGA85Rl1sPoPGCwFUz6UtClMzbFw26cw9fPGLt8SbonInbv3ZP2BU7L1h55iahk8to5voiYArbV9xy5ZOfsnyZY+jeH8L+ni2f1k8sodj+2MGzh/HzSf62/f5HfEY2Se/EZvMFy+It06d5FW1Ur9R5SVzpVRpqzaGdYJhNnafSdlWMd6Ur5A1rDlfGEfArNmzZKGDRuampQp5O7du3oQ1HJEDcXE+DIy7fLly/LXX39JixYt5LfffpMaNWqErcP6TZs2SZo0aSRfvnxh5T6sDKV4Rr87duww5Soe/2318fGR0qVL27ReI8bD9jgBCrLHefAdCZBAPBPAXdnBbzYVCX78RyCyYew6dEYm4QLs8RvikW3KZf8QQC2ooR3qSiKfpxSANjWNdu4/Jd8s2kB20SRwx1hu+r9eR3Jk9XvqHgE3g6T8u2Oeuh03+C8B3Kx5s0F5qVQq79NvFJj05C2HzOB3xH8xPnUJxGxuY1n8/I2GyHH/5O29E0vfkb+YUnv/WoGfvAPXRkbg6tWr8pYp7I2bk+EbBNJ1UysyVapUMnLkSLl48aKsWrVKihQpIi1btpT8+fPr5qdOnZJly5ZJ2rRpZeLEiRIQEKCCDK8rVKigIuvkyZNStGhRFWTFihWTqVOnys6dO9XCuXXrVilTpozMmzdPMJYBAwZI7ty5w8YDK+jx48fl559/luTJk4cfIl/bmAAFmY2BsjsSIIFYEEAB3WhYDZ7644/bvHBlxHP4Zkv3RusY4fuP+Do620Tcx47v7xq2ES1k/zmcGfNT+WKn8HML/9pah+e48I7YJ/qLrEV3u8j2teEyZRaNzy7OwRMbXEdxUWZ9fuEaFonVOKwPrI9wERe2LqoX0WEWnW2i6t+Oy9WCju+Jp3y2Qo2QgOUg2u1J840N42gf2Dk31Lpm+Kw+TZAZbqhLFq2bY09iHFcM0ek7OtvEdRyx3B8Wq9GjRwvcQi1rVWhoqFqjXn75ZRkzZoxMnz5dlixZokfo37+/dO/eXYKCgtRi9uGHH+rnPTg4WLeZP3++bgermbe3t/zvf/+T9OnTS86cOeXSpUsCa1efPn0Ex+jVq5e0adNG0KdlZcuQIYMULlzYfPU8EtqwwN24cSOWs+NuMSFAQRYTWtyWBEjAaQmEGDeL7ceOyXMFC8qh06flpolLy5I+nRw5f16qFy8uQeYH6/qtW/rj5eWVQONO0qVMoXcJN+zfL1XMHcQ7ISFRzg9xKrhY2XPipDxXpLBcveEvt0Pu6vUILv9SJ0smKc0DF4wb9u2XQjmy64/euWvXpESePI/6jcmFYpQjccwKsEtt7pBuO3RI5xNsWG04cMC4KxXQ5RBqp8xdXB9zYYHHrdu3w5zLcKGRwdzpDTUXcJFdLFvy2df4WP65a5eUM33iSu+qudtruaj5mAsMv1SpxctY8q76+8vR8xekfMECssvcvS0JvuYY2lyQMS5sv503X9rVqikpfX3llIlD23H0qLSoWkVCzYWRv4lTC7gdJAVz5FARhrvps1f/Kc0rV5IkJpbqnrm4CjGPqBr44/O7aucuaVC+nPibcxlw507YZze5uUhLa1yhcG5WbNkqVYoVNce7rY8CWbM+LsKjOoiLLL/4//auArCKY4teILhDghV3Kw4FCsXdSymuxd2Ku1McChR37S/uXiiuxd0dAgQCBAn8c26y4SWEEEpeSMJMG957K7MzZ2dn75lr0DqQ3CWKG1fu4vuZ69f12Wfziasr5gnixdG0ZOcuKZE9m0QCPhzM1qKGb8mYOfw49CKGCy/Hr1yWJE5OEhnj+TaEWet43oNvYjvqUL3v8lhuYm74NllS2X7suBTImsWDgFsVsUHBubAfnmX5zp1SNndubyZvLzB/vHlLrRCP4wz6roQN46DjXgnfu83evoXDfPAQ45gY8vm/g/n4xWsPK4vQqNMxejSdh8TBQdbs2iWFs2SBb+djCYvfcUCC9Cbgfn/pQsLzCPPZgAEDlCzRbDBXrlzSqFEjJUnUfFWrVk3ND0mcSK6oFaM2i6SJY5V10FSRpoZOGHcsfJYnT54sJ/Fu+/PPP2X58uWyE/fh2LFjkgTzyKhRoyQT3oskdy4uLhIJ885L3JNneO7PYI4/e/asxMUzQg0dyRsJn9GQ2Xe0GEJmX3xN7QYBg0BgIICXEl/eFGIpzE5YsQpC12sQpEhyFy/qwhB2qkK47TJ9hsTFy/jSrdvyQ6ZvJW6MGCr8d50+UwbVqyddZ8zQF5xtk0ODAPA/Eq5F3btKy/ETZO/Y0dJs3O8gc6H0pX8XQlcx2Ni3r1ZV3uClNvKvJTKxTSs5fOGiLP57u0zp/Kva90eNGEkiwkcrOJYleJlT4LwKP4U/t/8jBTJ/K+OWr5CFXbsIPP0h4ISWC7duSbyYsWTFnt1y8spVxYYCw60HD6Vb9arSZ/ZcFfJt+09xLDTOD4W6Z/7aUbaCkIWD0PQIhHrCylUSC6SZ4porfi/s1kXCQcgds3S5xI0VU3KmSS1jli2XGR07KMkgKVFhiw0NLgX4bEOfx6OvJEzhQWbvQ0DiAsIiCFkMutIdq9i/jBgpszv9Kt+mTCFAW/63Y4dUzJsbLCGCLMEYG/bn/xQ3226TAOB/iYJxt3bwQBm5ZIlkTp4M922lnLx6RWKChD3GSnuCWLHl91bNsYjxVDpNnSZHp0ySDQcPyRGM3751aslt5wcSJ0Z0XbywrT/YfQeW//tnJ5751JLom28kOp5p4pYPizGhIODfuHFTag79TaLS+RKFZG3Ops2KK0lc9lQp5cy160qybPvOMcz7xDlocrs2cgImYiv37JWf8ueT2kN+k/TJkqrwfAKC9J4xoyUcCN5fO/+RqBEiSqqE30ibiX/IkTmzxB2E4dq9ewhIEte2+mD3nQtbnHeJC4nTjI2bJHGcuAjGRNIvIKoRpPuMmYqlHmTzvPLJbVSqlBw8dw4LPqffC9gSBnPFa5hJ1sLiRbWCBWTIwsUyv2tnzMfjJDJwpYndPRCcDpUrSxHM+84g3d1nzJI9Y7PK1qNHEbAompQE4Tl56RLuS7JP1zLb4W7QzJAmiO3btxeaENI80CokVtRaDR06VCpVqqTEiftIkCytFr/369dPSZh13nWMXWrVaIrogPm0MvCg2SNNHs/jPcn91M7VqlVLSRfr7927tzzHQs2NGzeUpOkChaurbuvYsaPMnDnTqt582gEBQ8jsAKqp0iBgEPA/Am9gGrP7yHlxozmSZ6EQT0mSK8t8qVvl5LV7WDl9f1XzPF4g87dulSPnL0qpXDmleqECIA73JNU3CeTQ+QvSqcpP0K5EV/JVDiu1E/Gialm+nExbt15eYFWR1yuYNbPs+Ha4TRQxvKuxgrvt36Ooe5v80bqV9Jw9R7JiNXbs0mWqbVvcrasshmCcDy+5dXiRQhqQU9DOxYkZQxxB9qjdoVD8BAJ2mR69ZFr7tpIJ9vmBWdxBTLcfvyjUMNkWCjbulH48hSFicOKq90h2XsdjX3QI9X9jdfX6fWcVPElyr4L89p07T1eeC2XODCK2RyLBTCYCtATVCxWU2FGjKWklhs+x8rtu0ABvQgOFDbdXL6X5uAmKDe8HNZuzIQSXyJ5deteqocJv2fz5pfaAgUrMuJq8/uBBWTOgvzZPxwq+/TplKu73N9IJpNjqk1f77fSF7d+DABI3nF28LkkNHtvkDn8c27H76Kmbt757Nl5cIPBMXrNWRjdrIrMhuLapWElGLl0iv5QoAY3veRnTob28gsC2tE8vuYxIg/WHDlOSdfraNWk6Zhy0NzBLqlNbfoK2jMKoVXjtjXDQp1Db+ecqMgqCWYp48VTrg+bJcKzAbzh0EDjnkMELF6HO0HIAQnAVLFzAfkqr4Ri5jpX46oOG6GJEAqzOe3XUulAgfIbCnT98/oaSdkvbxMtSM+BTi0It7ENXN99bhXuz4/hxuYsxRCGdBDRZvLjyU78B+qz3hnC6vG9vmbF+g5Ky/+34R0rmzIEogg6SN30GyQLN+GvcL17XKhwDrhBis7dqI+dAqjbt3aeYU5il5isPzimfJ7d8mySpdMQY1QL8527eKkt6dleixjmC5qctfx8vMaNElYEN6nkbO9a1AuPT2cVVdvx74b151ifW1MxevefyfjvRlwuwShiLhRJ9DkBkU8SLL7+vWIE4TK+xOBBB8qRPJxNatZR+c+dL5fzfSyZquNF/FsCp8ybnD6CidegOz+89Zs6SRqVLKW4jYJ7HRbel0GSmAbHthoWLYyBanEOew3qBZQqerWqoKzw0QKyPwUiOYJzz2VmL+ShmEPGLoikhiRODdtgWYjht2jRZuXKl7IKmzxXjLzIWEs6hD9cwB3D80desfPnysgfz779Y3KG2jdsYxCOi5+IC62RdztAo0hSSmjISsNmzZ0tCaMFJCknehg8f7kX6rHZQa9euXTu9FuswxT4IGEJmH1xNrQYBg4A/EODkXqTwDzJh/7l3R2O+f/QIL/qHNyVJHEZVe1dovlUuV1qBtPBuI76lSJAAAhPt3t9IyRzZpcu06ZIeZhk0Z3kKYekONFjUmtEE6QBMMUgqWkD4iQXCUCCT5wsGL8Pthw5La6xWc6WVQtb4li0gjIXTl3hYCKl9a9eSSavXaL0Uou6BaG04cFBN5/hilDfuIAbTpCjICgUMatZo+lW5X3/pXPVnD8GDxwVSAdeUWjWryrwTWK22eZFSuPoXJClDnEgwN/TQBrBJJLs/5klPich7QZuzpU4lC//+W1f/+wCHv0BEy+b+TpqUKS0txo2X+qVKqvYxHlZdV+3bp9oyahjOXr+J+xNfBR+ab1bo1cdDoEWdpWA+17NGdeALsxvgX694MdVw9pw1y0Mrgfu8E+afBUH2iC8xX757j5I7x7hO4v7suYQBkRg4bz5MkcLKryAelmDnvQMB/wtDUSqVLy3rTp6S0Dfe+VjcuXdfnt25KtlTfAPC+w5IBkxoWiqX9/ZhP00UB9avJ71mzRYuFpy7cV3K5sylBIHjC8vT0guaxagQZClw5suYQU3uag4eKqObN1Xi4ACyPX/zZhn111IlZW4QoKZ2aCcOocPgLzTGcFhpVaGCkpG/jx7ThQ6O73X7DkjedOlVUMVNwXXmSPsff/TyXSMZq9C7rwyoV1cSxI79RcgYIUySKKHM3R5RDh154HUjqVU9vHu35M+Q2NvY5tgtkDHp+z5QwGHzvv1yHlqwKW3bYFxelzX43atBffiv4kHBhTjGSNj+OX5CSuTMLhWggeRzcwfz0V4Q2yx4Bp4C2yKduijOJIM0hx7euKFqLXEwxmomyQotJnH7ngQOA2UPxkjMyFEwHjgniExatkJcMS9Exb3nfo7/aUuWyjPUPRFtC6wx7AUmvhDn6DDz+zZ3fpl8yNl2lz6v+3ftlIIZk3jDOk70KBoExNvBqChj0qQyuX076YZ5OGncONIYZIFz60BECpzQuoeHBhJY3QJpqIUFhrCeBJemt9+lTStTOnWUVwizXwvayst3bqN6mCBCu7a0T2+PuRjHJ4ZpHgk0CZpjtOhKzKnJPXTuPFJLOKnGknPv3C1bZXwLRNxkwTUvwjqiG7Rzc+BHRQ2xdtxj7xf7l/PxlClTNNgGzQZ/5DNoU/JjQYoEi9ERY+M5pDkhTRFPwWQ8a9asuq158+aqXWPgD/qNUeNFk0YuDDAoCEkYg3PQX+2ff/6R3JhrFixYoP5iNFFMAVLMxS6Sunz58ul5bAIXebiNpow0azTFfggYQmY/bE3NBgGDwEcQoLBTvVpFyoLeypGjF8Th2HopWzAzhJN3Qq0eRDLmQ0sWCsL8om1/y74zZ9W0ysEhjGpqKGBxJdft5StpV7mSrD90SJbjpd54zFgZULeuCgQUVp+5YTUVbXkJH4Q2lSqolmDMkmVKpuhbo4UCBF74U6HF+Qsr2zRHpBkT/UtIvNiXdbv2wHfqqYfQgk7R7Ix+Vj1r1pCfYF6DN6S3ftr7B97t0qFdY3bNW0GTpUf3UdK1YCJJkTSet31w9Hq/nXgpc6X5B0Tooh/Zepiz0USLplnXYMKYMWkS2Gw5qLZxBUy1SIJpdkg/M5oP0U/mBEwY8+HcxBDQFsDMkb41f6xc7e3aXL0eunixEpPQqJ/tphkir8UuUGAlIdbugGxQ63YEQgYFY2qYfHTTW90B/YO3slrV8hi7SBFgU/7ecUgub1sqvRshUh00At4Kx7KPbRw39Gt5iJXvcyALljM9O/MUQilL12pVVBO5AZrBJ8CWAvxdkLU1e/dDGxkWPn3JgcVLCLstJW2iRNJnDkxDoSUggbWeHpK7njPnyNgWTWUhnhWOdeJKLRiB/gMaDRf4qmmeKdyHR9AebcT1hkGTVgrEO7DHri1uyZIllv79frXdpEq8jg1byfg2iNDKgWJbyC5sNO7c9Rqki2ahHL/sIzWY1Pi2HDkKwudbCOdRZACIMe+HM3yTzly9ruOKVdOHLx407FoPxloyaBqJNRd8qN3kOVYhOZ6ydp3ehzS4F/9gQYEmfFEjYeEDzXqA+0wiyHtOYfcV7ttzzE//nDihC0BfgoxZbY8aNbIM6N/J+un1yfmiVZ0LMr5VRQ/zZK89+EKcibdN4XPfHeZtXIypDOGe+2liHB/mzNUGDVZCTG2rOxawdowY5nEmIORiwcrde/U3rQv43+r+/aEFiyh1h41QksAr8S8Uxu5IKB/PAAAxD0lEQVQ+EOd/L16SftAQr9i7W16hPo5pNofz+mREH6RPoBbgfffBI52/x2CuSAsfX5/t9jgw8P+NAWsKEqiCBQuqv5blq8X3F/9ozsixwuNIzpYtWyb16tXTbW3atJFhw4ZJjx491AesQ4cO2gESMQb14HlTp06VJxjT/F2jRg0lcjRdpBkiw+PT/4z7qJ1j/SRu0WDaeQ/ms7w+fdoMGbP/uDCEzP4YmysYBAwCfiDAxWn+2RauEr4h8ULupvcIme2Bnt+vwGTxJEwF6VNAAd75saucvgpzDvxHEkVfr7UwKWxRrqxEgkDmhBfb4+dYoYY5xy+jRku2VClo/6SCXRRsiwHNmQfRsrkYhK4GEN74Eu84eaqucNPkiVqEG8739cCwIH8kertAwhZjZbYXzEHoTP4LtEhfSqAFZ/G1UPBXM1Fi/LGCPlf6/ntop3ar8F8UfaLGpDq0NPQPqQFBYiqcxsdg5b9S3jwqFBXOklkFWQqjpWFGStJKvz4StfB42cfETbcVZNkEaokolB04e04q5skLDVxOOXbxEgJ43FTBgtqECjD/Wrx9h1wEIW4Ix/TwqG9y29Z6zY91I6D3+z52X6mmUceuD/L1wetDgKTgFA4LCa89ZXtbbKLBjK1mocJK8OljRBOt+HD2J57PXV/ICwj0xJc+URSqGFTFKqyOZn5dp80ACX4gg+Yv1IAHGlQCq+785JhmFMheMBHlMzMd5lFDFiySusWKwaQMAnUgLyRYbbc+IVvCZ8b65fHJbSRVbzF+bbHyftS7X9S+1ChUEKbFh3Qj/fRqFykiNQsX1t9Nx47RTwqgcWFynCttatVese6bzg9xjdBelfE5J4HjgouaG1p7MIdshJnYOJDbNIkTyVQQM57P4DTU9JJKkPx1r1FNmsBk7gIC0zTF4hCDU8yAf+CXxhldfw9ndo3bibU7xpkSdqu/H/i8g0UYml7+3rK5dJg0Wf7s0V26TZ8pTcuVkZuwTrh2/54kcHTScUszRqsw6AZ9fPWC2MhrcUEsNMwSfV73IuZ8WjMwmFPrCX/o/bh2954GXaIfKTkyrRto+uz6wk0GTJuupqjDGjWUojBD/dJYW33m5zcwteYfC8ff6NGjNSIin2XbsU1zRUZIpAlhgwYNhOSLfmEM/MH5nOeSiHEuSQCrEZIvns/AHAwIwnL69GkNGFKnTh31H+vVq5ds2rRJydlMkOgl8DMtXry4XMZi2/eY80kOR44cqdqz/iDHptgPAUPI7IetqdkgYBAIJATOI5jEr1WqQOPlDMf71KpZeI4XNV/WyePHh0D1QIoj6MYC+IINW7BQksLBnD4EFUAeaOKYKVlyNRPiy2zy6rWy/ehxmLbcUid+ry5AK9egZHFZu/+gdK1aRf3Kzly7JjdAyGj+FRskowiICn17rkBrRJLWBk7Y/56/oL5lLo+fwBTquJQBofiSq+Be/fnEL3/BzGUXhEqS3uJdu8u+cWPgG/MdhM71UqRdZmhsHqsJVk6s5g5DxMDp6zZA/BQ1Fx2B360rVlDzuWOXrkir4SNUGEsUx8lbK4pDeGJkuhypUqoPIDUTZyF4Hb14SX33KHA0A6n+c8c/0DLsk04wUVyEgBbUSkAKkZGLFktj+JeQVAenEhZEjNoDar3SJkykwicj9WkAGAhUbyFs/YpgG5PbtNZAJiv37pGJrVpo31tUgIYOpJQalt4wOaRPDCNQlodJ0jMbFlOveFFdhGgFDTCDdRyDwEX/SWoQ0iRKCJPGcrJm/341GSXmbSpVBJF4AponSohZZ0mYmAYlQfZT7nFEaAB+gl/eKvh40UTsEAIb0EQ0LDSMXIzB0FKhluT2CUxhOWdwAYACLX3OSPxJSIgHFwlajB0P/8dXGhiI41ILPmOCFDcpWwZ+pelh6vgIZMtV1mMxiP6VNG/kPcmVM6fOTdTgtMJz0R8mt3D2gQr4mfwJ7WU5aCRtSfWn9DMoHJsEQSh6QGvFeY6m4z/CR48LCMXQby3Yzn1JELyEfmA6UQBYjsvy1MZ6lgcYf80RrINaL45VEg3iz8L7yedh7pYtUhgmzdQw/wkzapLcmoULycOnrtIKY5hmk/Rp40JQu8o/akARnn/w7DnVVhbLlpU/g0zheGOwDfqJNWvWzIuQfffddxrqPhG0rtxOf7PWrVsrISuChQViwwAdVqF/GP3EWBjG3ippYRJK00Rqx7Jjvl0B374KMGem9i1lypTqq8agH/swvzLfGdtRCkFW6LNmin0RMITMvvia2g0CBoFAQIBEiKvVdMa/DVLG8PNLsepHsy0GR3B+8lhNGBl8g+ZtDNbx97GjQk0P3njqnwNbEfisxZHfGv4iOdPBT40FAtbWI/96fIckQCF31Z59khGkow9WNH8eOBh+IhlgkpcMJO6Yai7SQrhlPV2rV9NIdYc8X2TX799DAIjTUub7vMGPkAGHnxHsgUI/g0SUh29NgvgJIAQ9VY3kI9dnWPF21CAejHJ5Dz431IytHtBP8V0EbSEd7elP0qpiOWlKHwkIWMSXoZo9xVkpkCO77Dp5QgW1IvCNqPPbMPUro8RWBgLJKPjZdIfPGc9rWe1n+JA9U1KCm6omafNwHfqhBZuCsccw7CRS1ADsOnlKmGya3xlgg0FKGg4fKfVKFNMgMilgZjUQx1b7oQC0XNHVD2oIAnJ0gcYlfeLE8iPGlpPl64W6t8C/kYVaHEYSZETKLMmTg/CmArbDpSH8/pgaIhI0ajRDxc1SzWeLnyrLMixe3Hn0EFC/RaCaa3IcBK4kozqCpATbgmefmkQu1OzGs9jux0r6LL7A3EF/ux0wgesHckT8adYZC1owLgpQ+Of9uAhtBKNOkkSR+HMRgGPRi/ii/hyYG45dvoI6wkh1aBpmY4GHPq63EWm0NYIL/dCmrWxHpEWSjCG/NNCUBQOxSKSLNMB22a7dUpbEN5iXt5hPGdqepoP74fPEsfnI5ZFEj4TUIBiPXPzqX6+OVy9JtBjxMhYWtjjGOGZ/zPe9klserwV4Q1GHOygSH+OcUWtZDxfWdmJuouY8M8Z3TqTNaDh6FHx5s2L/W/k2aTIpBC39PJibv2EkI9S3HYtj9DkOaoSM/axXrx4/vBX6dbGUwPvMKiRptoUEyirUbDExtG+F5Kuwp2aYvmVWKVCggH7NhsVL/lmFpCwL35Wm2BUBQ8jsCq+p3CBgEAgsBCg40uH+FUwdGTKZ5onJEd2LPkdxY2aTP1at1kATXIHksYwQOHPjRrybPX5Xxcso37cZPZqLl/wlCF+M+se66DtFKYDn0fxr15Ej0gnBO2jidfDceRn+51/w/7khk2A6h926ss4vqRHl8ejFy9JgyFBozJxVS6SCV2CBElDXAUZsfxKnOBCwHOA3dl9ajx6DLr6BtvBnKQuzl44//aTRDxnumiv8s2DKSHMlClZnrt+QHiBSsWPGgNlSOZiivlBBaiLuCc2X6HNiCV0kzJcQTXAotF0pQPq42t152nTZcewE8kVlUGwpUJPFMaAHBb6a8L94CiLDkO70EQo2BWMkDoSjagULyhD0t3qBH6R20aJY/Q6j2DWA8EWCz4WGqgXyy5FTZ9QcjoLmNiwA0P9rGcwXOXbzI42DDj7gR83tvE1bZPeZ01LLU/AiJvR53A3S9/uKlTBHLKoR76auWacLFr1r1hRqmjU3FOrIkSaVkpPr95wRWAH3AwsVAD/YQPuhhvL5bQjT4+9AnDCEpDHGMRcRGKAmLxZiaF5Lk9myiATYgcQU+C5GMJsYMMGrivsTHeOrMU2QUc+rl69Uw8MFCGp21ewZdZIk0N+xB6IqMifiyKZNpMqAQdJu3O+SMDYiVYIAcwxzPqEmLB20Hj9376HPSmSEwmeo+GBb8LxfxXgZjHD01EwVy5FN/p04XtbtP6ABPMKFcZAqGMv7Tp/RudS2n8TxFMbuxdu3MK9UlSaYw3W+BBFbBaLKnINbMfe2hz+wVailnAE/KKYXGdu8mYxGBNz+8xeASD9TrRjHPOcUkrzUCb9R093//bNDTRunIEWBKQaBoIKAIWRB5U6YdhgEDAKfhQCd5HNjZZSJoIc1bqSCLoWmnIiMRsd65q3REPcfuIoKQTjeKvTHSR4vnuROl07NGqmFofBfLncuBPt4LrMQCSwFNBjU5FBQYFj9RNCM3UOwCiaZZmE+oW3DPcgC/YMYVS24EjKmERgPn5BYIBBuMNFkSPBantqotPCXYUSzYsAioZOjagyjR4kMfzJoA1FoxkmTTl3e9sSYRDgpQo5HQ7AD28h+36VJK0gfDVyzweengBJmai0ZzCJTsqTq60STMGo0WcZBCHPBtWnMFB2+Jt58evSIoP0Pg5fQb4upGYpBQ6ikCgJoKZh3pcb4ok8NNQDRoFmgNuvCzBlK2BiZLjTG41EsGETXgBHvxq4TsKY5aG6QilL0l0Eh3hWg4aVpV/+6tSUrCIk7hNn4sWJLZGiAUoH48RmyhNeEjk6yY+RwDRYSHmZ9mpuLgm1wLhDKS4AgMP8gNYZ8nhuXLq0pITIgMA0JEsOyz+n8qzBJOZ/VSvm+V/yZuuERzOC0eI5hJopOCe1XQmhrujLdAjRtLAxyEyl8BEmDBRlGZqWJ5Kp+fXVBKEsKmEcDd5reUkvGv9mYS+iPSs0Ptfs+/aW00mD0jwNIV/Hs2aRU08YSAWOLY7pm0SKaCoOBlziWqntqY3zr1luMVX0OrPGG8xNCA38H2uSJrVt5hKrHNpr60sqBi2dz4INHrfHQX34B2bqI9BEVtOqSuN/J4sfTe0lz6iW9e4IMv5aIEcJh3CNaiZ0Lc3rRn4vPn2+Feb/oG2YldPbtmC+1jf5mTCJtGzr/S7Xla7iuIWRfw102fTQIfAUIULgqkDWLFKBPAF/knkJTZJCgElj15jYrkaavcHgeb+2j6UwDroSzQJBj4Wp2bZghad08HnVSeMqGF721zQkCdEH4S2gbcE5EhCjjnxYf1/DYGAz+RT9b/ehh3sV+UchSMobvLNp/frEEKfSzCrQ+Fm4ZYUZk4cPDWCiglLFMalgPsQHOxTwJhNbliXtKEBP9jeMihQ8jLdgWT0JGEkFBTEtwxBd9KgpfDi2eeBLjalhA0DGEPqVjFEvyLXyPbEu+gE8m+H14wxbHxAIejcpDu8BzPDHkOG1EjQMLccI1SBSypHp3PgNReO3HF2p9VPPDjTwnuBcQoRrQQFr9Z3dypE3j0SvgwTHZCn5GXHxR7LkH/SbJL2z5Gln3CLt4vEZP5XHc7onRd54+O0zirfhjuyMSaztCQ6zHQSPcGto3awyTlMUOzmOY/bcK+poACweVYOJs9V13EUeMwdzwrdNig6N1qvWp1AXYehUcy3HKtAO2945zflU+Jyye+EfB85GHC2K8F/grlgMLEp7feRgJr1fhdjuXwYMHaxLnrl27amh5n5djrrB169bJkCFDfO764r+Zk4y5ztq2bat+ZF+8QSG8AaFDeP9M9wwCBoGvCQG+lCmA2r5o+d16+VsvZt8+feLEY1iXp0DrtZu/PV/+Xttsf9tejwfYXsvrhGD4xSeuFqbsCr/zzxYbW9xs8bHtOo/xrV6rLutYn5h6kjFrtxfGXhuC2RcLP9tm2+JCxxliwGJ9evx6fyxax2h6COBrWyy8eT2r2N4ba6xa+6zfPq9p7Q+On8TAZ/9tfxM33/rLY2yPs/puYWp7jnUs91mF+23PD2lj2OonP9lX277b7rOwsd3mn+88z+e943k+8bdwtu4Hz7O+83h+t/74286FOcDo90VfrXEIUEJtmG15jXHg5qlZtd0eFL5TY8xE0/Xr1xdGZSQ580rLERQaGMLaYAhZCLuhpjsGAYPAJyCAFVu+dPgH+5d3f9C6eCs4jg789D9hBDZT/gMCxBQr2h4449N2BRwBELQAY/qTMUS5Kf5AwMJQsfUcvzZjV80PPccuxzgDVJjyiQgAY8WRWEOT9cExzH08BngzyAd9l0z5RAQ4D3ti6A1njmGrcD8LtvG+PIG5clAvDLaxa9cuNV2sXr26TJo0yavJDJgRDpYXQbHQooRaYGo2169fLwz6wVD7zE9mSsAj4EPqCPgLmBoNAgYBg0CQRAAC1P8QSe1fhFruC5+aATNna2Q0tpXBEprDvCsKTA2LdukqE1q1guP/HcmEoBFtkPNmUd/eSIiKQBSm+IkAfTvqDhuuUeXGIvQ9/cCsfGTMAZUcTvaX6fOH6GqDG9RH/rjHGukuZYL4ktcmVLOfF/kad4J0TUNAFEYBZJRPBp+xSjSY6DaBqa0D/L6ajBwt5ZCaIDq2pUzwDYIqDJU1AwdoxFHrePPpNwLXIXxWHThI/h4+TIMA3UG0ROYkY1COit/nkSwwGf33wgXpPmOWLOzWRSMxboW/Gf2V8jJIkCFmfgPsuZcpBpg0mgm3DyFQEgOrhAbODDJDv9JiuWB6iEWzIq3byYp+ffSYVJg/emLeDsrBOXLDb/M+UqOQ2DBUPRM070EKhN9++023UePEP+b/CkqF7aXmjp8sNG/m73nz5snu3btl9erV4gi/PlMCDgFDyAIOS1OTQcAgEIwQeIUoaAyj3r9uHRmDyFz3kAOqdcWKmm+o5fgJUgdO6AzbzKAKCWLFlHZ/TJLxLZqrI7kbzE64Oqv+NVzVNeV9BPACX4+w6yMaN5aBc+bKwq3bZBmILDU1DCnOPG3JkyXVMN9F4fu3+fARjZRIEx6GzGeQAzr/c3XWFO8IvICWduWevRrif9DChRIPY5SRGhm6vdvMmfJLyRLy9LGb7Dl1SkY0aSTlevWWMc2aIXpfOA2+8uaNuzCanyVsea/d/LJFYMb6jdKsbFmN0spQ6Ywm6hgtqszZtFlzuWUB8dp18iSCg5TUXGOM9om4rarpfYJ5IhL8LYN7kA5bPOzyHc/45Zs3NGXAil17hTkP2yKHWEoERWEEzIMIm18MCwsHjx1HWoZYOj8w1+GIxo0wP4TSuYL+ZEExd9sW5EnjHEZSNmDAALmM9BFM0pwVAZBIcrh/7dq1Qn+toGQOGAGLkb8gQAo1Y5wnGDmUofSpIauKCJjMlWZKwCJgCFnA4mlqMwgYBIIDAnjBrNl/QNJghXUL8owVASE4D03NK/fX+vLhoiCj2O1BaOZkceNpkmKSs64zZsrJK1c0VDZzRPWsX89oyj5wvxk9bPH27RpZkloFJmalKaKHiahHAIXXIF3/275DprVvJ33mztUIii6IZBcxXHhof6LKoAb1NLraBy7xdW7G4GS6gLgIEDF382Yk584tN+87a7qHN2HeaqQ+2H3JfkSzS+jkpImJqZkcDgH26t07urDwTWxHGYSxG45muqZ8EAFGDt135gyihibRBZuIMC17jTlCQ6ljYYEaHEjbSFJ+QCYj5cVg5IS7g7QPTFC/8eBhzV82HKQhMfLvYeB/8Dpf/Q5g0wOaLibOXrprJ5KkxxR3aMaYwsQdiwe6cIBjpq5dp1FvF2FB5yE0TT2w+MAk5i1/n6DPQRUGEglihXkWSWpmzJihJn/0I7MNLhWehB3vGhKgoFbYLpLEaAhwlT9/funbt68kRr5DU+yDgJmN7YOrqdUgYBAI4ggwSXE2JMg9fP685EPkLybYXQY7f2oZGBrcDTmGBiKfTRkkaZ2JnFpM4sqw412mTZfZnTshQBr8nEDSTPEdgZevXkrlfPkgpC6U7SOGS+nuPWUJ8KUBzNFLl6UQwlUvRY4n5rg6hHtw3+WxrB3YX+Zv3ar543Ih+h1JsSk+EIBgStPZJ8+fIU9bfJjGpZEBB+ZLKJjZMhogfRxJtCbCpIimt0t27lRzUJqA/jxwoIYNZ5h7Rqc0xW8EqNmikD/if0tkBbS7jaEJW7N/P0LjR9Q8Vgxvv273HiVtriC9l6HNWdy9q+Y+zA7NWZ50afWeGDLmN86cS5n4fQGe/a7Vqsmavftk86HDcjTmJXnw+AkSzkeVO3fvyjpo3Gl6OxdapY1DBqkWctCCRTIaed441oNiqYb+FEVkz1mzZkkcpEXxWUg2g6oVALViJGLU7KVNm9Zo1H3evAD+zRnZLNsEMKimOoOAQcD/CHhoTLxPQ3wRMIAG81a5M8KcV/EIQf3ZplaoO33iJNJ3zjxpVaG8CrE50qSWroiERWfyw+cvyLZjR2EeE1uFr7RI3Mq8WneRuJSJSO8i1xgJWyLk3Prstnj1zT5f3gJLQumpOtGLvHnjEczkjb3wxVWiR4uuIabbVKqkyZypHeuGSF2MNDcdGh426jjMd/LDzyYsCETj0qXkwRNXzfH2wPUJNA0PkVcsskeYau2AffD5nFp17HJ8erhZeGCLlX1uZz99jl0Vvqh+/cySD35j07Hq3g7h/6kpKIqQ7PUrIO8SCGwz+OFwG7FkjrccWHRIhMWHW84PVOPAxN2RIoRXU9zgQnh9myPc3T3GMDH2CSkRpinb55bI0FpQM14AieGZ6oFErBMCNESDBmcKzJwZgIb5+JhvjzkOaxUupJo0V7fneg9uQzNMk8WYMHEMLqSMc6/PovMFNnqMZ9v5GEMuAHB2wJz7PXLm7UPeK/qPUjPJpNzJkQPrOiwXluzYAWuF08KE6K9ev5LmzEOIZ+w+zMx5D+48eqg55ZhkPaiVhViQim6lNPClcSQ8ORiaPwiWzp07KxELgk0LaU3Sh4qEzCOTYUjrnumPQcAgEOQRICHoN2CIbNkOzYmNVPVaQ3YjV8/ktd76QL+ttuXzSNeaRZBc9fMi8e09fQqJWm/KjA0bpXWlCrIKjtZ7T53WdtxHcImB9etK9pQpZRNWag/DaX/9wYMqdJ29fkN6wyeKkdSmd2gvYWza7a2xQeAHU1ZVqNxQbty+5w1fNu0ZNClr14f25t/CBMUtyuSSHtUKf74ACXIwGj56SUAGeN9oslikTTttx91Hj9R5v1etmtJh0hRxhnZsH/xENh05Ildu34FvXgT1kfrx+7xSCk7xQTEwAmRI6dZjkGzdvltCQZNiFZoouUM7OGPTYW8yOLHNkzYREtOC9L/6jAh8GG/0sfn34iUZu2w5EpXnlsmr18j8Lds8eCF4CInEaCTl7Tt3niYjnrtlq5rj3nB2liGLF6vw2qtmDSSFRr68IF74eB05clzaduou4LreyO9TaLIT1x/+Xg9Sxo8p20c1gwb78+YIkiwSroggVcuh3aX2sVzP3jqWbyJJMcfvlLZtZPKatarhXQ3tGcfw+Rs3ofW9IMsQ/IBmeLVLIHchNepBuBDnezB9/bl6fXkNnH1Oa8Q6aYMRNj14C9PisLKiZy3JkOR9zY/NgR//irlh4IKFcvHmLfXrJZmu/dswiQQT0ee4B6WRm7A8NGiuz93k9NWrQuz3nzsnbi9eyqlrV6X/vPmSOmFC+Pcht1sQK36RMTaVERaDapRFasVMsS8CXGyC7KOhmx3ww5kbXLDS8LGBY99mmdoNAgaBrw+BtxAC7sudGe3k2YtXH+3+wfNYLd11Esvfn7/6nTNNGlnap7dcunVbBawSWKXsXasGhNVwUmPIUBVqSRKfIfjHQPiBUKByhoas45QpMrFjBwjVaK8vq8kf7UQgHkAXlytXrsuZP1pjpR4Mwo9CIWjfmesyfdMhD6HX+0K4H2f6vustcFvZr6/cwP11wYr3S+C3uX9fdQ5noASa14WBkzjfP3mxOt6ESYshmC3YsAGmeAkkF8y9lNHAhyEoFgqsFy5fl419amBVPzba6kcrcex9l2dSovdMHPSZYxd4VcibB6aKqRDR7w60CU+lNkyifilZXM1tm477XUkvffCoZa6P4Aj1S7nJM5jU/dR/ACKGtlRtT1Afu7ZouoAMzGxeWgpkSo5m+wU0HlM8k/VGIWKdT0ZhW6E/v3MRYeavHTCGnXVRgRqyEY0bihM0MSTBjAwYHd/dkUg6baKEMgumzByz45cv18iAOZgEmUQsiJMxC44XCEiSKnZE2TCoIfr2vqbMOo6fEcI5SPtp6+SBawCkAYGWa1gjLBwBZ0a1JAke17yZYnoBkVo3HjwkoRAp1AFmibHhz9Qf5uMsztCi08phbKsW+IVx8ZGxoSeZfwwCQQQB8i6+/8jD2CQSsrP4e3Py5MnQefLkCSLNNM0wCBgEvh4EEAg9QjiJ7A8BKiKEAH8c9nHoUMnmw4dVw5ApWXLJDULAHE0Xb95W8zmuxF6DYOBomZqQeOGP5jxv+dL3/P3xC335I0gqScYiA2M/C44jvgFSUNdj4Fl32DD1B8sB8uAGofQCzI/w/hHnJ4+hubkteaFJYlE5ysIYBzDUtWIcII2xXyWkVpGgJYgc/iPY4rhn4REw5nPJGLsCbKev3yCr9+6FOWJqcYwRTVyA9QWMXfo8PUKglOv37mNhwfNeEnDPsUvw1SSNWAezEgFjOCLH8EeEbhKJgDCjIzw0nWv5+3iYzkaRgpkzQUP2VKP+UVPGFA1cZLDIFmHWMYsvnCOoFVbNru4ILmBjkQSkJzxwDv8RQgZHRfh44gn4zPUFIsOFg1+nTFVz5TzwHWWE1etYyKGf47X79+QmzG1fYM7wuhgXafAcEGPCHhzmCjbTFIOALQKnYYaL+ZhD+Cy3O+BlfY7qMiSti2wImS1U5rtBwCAQYhGAAFAE/gilcubUEMpDYcaVOI6TLIavAk3LvsfK9oVbt9SHLCY0DcoiAAaFFUa3M+UjCABf+twt7d1LosAsbh60CbWKFELUxR16YliHMHIVwTzcnj4D6Y3mjTxEixhJIkBLGfKKio6f3y1g26B4cWlZvhz8xJ7I2KXLJTQE4wXbtunYzZQ0qZy4chkBJdJ7mCR6ki9GBEwQO+j7PPoJUABB6Oc1bHYyp9u8Lp0lAjS5M1au0iBAm454mKJaSXOZjywG9lN7YxX+jgDCYor/EODYHNmksUTHXHH4xAl5AnPwg+fPyX6YMVOTHgkE8eKtO/Dhi6BYW7UyCqCTtWhmbTSfBoFggsBOBFwi/yIPY5MdMKBv48etrVu3pmzTpo0mrgsmfTHNNAgYBAwC/xkB5q1hodN9Xwbz+EBpVKqklw8TzcAYbVHNFT9wvNn8DgGaeAlM5WoWLvRuo49vPWpU50vJYytWvsvm/i4gFt19XCVk/WRQDhaOxz51an2wcxNawpQLpqMsPIcJdL2w/uBZZoeFALHS3FYwqatPP7APlCZlSnngCrLMwvGuOAdDTeQHumjnzVjAQQAfjtWsKVPqn28XTJs4kdfiGBfJGH2xZ83qvh1qthkEgjQCjCwK3kXOdRNWirfZWIebN28+S5AgwYIzZ870vHbtmiRLlixId8I0ziBgEAhhCFCGiRxBI8R9rGdRIobzMFH52IEBuN+nAOvzdwBeyi5VUeMXORLw/ZjJInzIIhPfQNZC+MTTk5rZBYuArpRQRYkIcsTx6xdu6FQ0BPLAizegm+Bnfe9haxFfP88KgjsBW2SYLCrOHzFZdEDeqsAOIx5icMatd6B/LsczI3v4VXA/wkHT7ee49+v8/7BP5wYfY9gn9v+hWnOKQSDQESDfAu/iws3C27dvP2UD1MgcpKyPk5NT199++81h4sSJgd4wc0GDgEHg60UgAgRax5LdvNwDFAnKrRBefbx7EVjxjTRFFMBAZw3B9fYAx6gwn3KsNtAbvhRsaLpOfFXI8ewfw1o3KB40QzAHuVsAbB1jRpcMzcfCZPCduRoFVBIvn3FnyMUyJv3MaHRBDoTAaRB9x0p0m/NeKHumdKBJm88SLxbNjH1uNb8/hoBD2DCy+8xNcSzX871DfcOaxPen7zO+d6zZYBAwCPiNwPDhw+XRo0ev792718c60vLgfgPTxe7Lli0bWgU5NgoXLmztN58GAYOAQcBuCPCF3qdnF3FDdC+vAgHr1OlzEubsdimbK506fFv7KNRGjwSNxGeGvLfqC+mfiD0gi+ZPh4Wl95Db4WG+NmrEGGn6XXyEi3bygoH4RqPG5yNaCK8TvuIvSEMn/fv1gEWmmzdSu/fAYbm5d4P0qFpIXthG1wO2jExnxu6nDRqOyaxZMsnypQu9LcTQh2twt84ysWnp9xZuwpIgMwqqKf5GgDg7OTrK2tV/vafJDU+zbkSbnNS8zHsBU5yiwdTQFIOAQcDfCNBUccmSJfBJD9MDJyFCjUexCBlV/NOxqtesX79+SbNnz25C4FsImU+DgEHArghEhR8A/2zLrRh3xSFyRInLlW7fyAGEB1M+jgCFrBi+JEtFmiqJgH8cIUzFj+kd+4/Xao6wEKD2kX+2JTrCcrtAoxOLY9cHEbY9znz3PwIkX06OSC1gU5C+SQlu/JhRaPZjs8fzq5kj3sfkI1u4QOboA2eeAj6mgXeINSN5mmIQMAj8NwQY6r5v376csy7jb5ptLV5PFswW74OQVUX4+9eNGjXCirXJF20LlPluEDAIGAQMAgYBg4BBwCBgEDAIGAQ+FQHyKvIr8iyEu69G3mVbhxch40Y4lu3DCkntHTt2vKxVq5Y8RNI9UwwCBgGDgEHAIGAQMAgYBAwCBgGDgEHg0xEgnyKv2r59+yvwrDp37tzZ67MWb4SMO3HQQqjRGoKUuZctW1bWr1/v8xzz2yBgEDAIGAQMAgYBg4BBwCBgEDAIGAT8QIA8inyKvAr8qhF41gLfDvfyIbPdeevWrTnx48e/e+nSpcl169ZNXKZMGWncuLGkTp1aosBenvbcphgEDAIGgU9BIDSSeH56YRjAr9QZxBe3mE/Hz+8z1PUmEK7jdyu+3F67dp2V2/UCXw63j14ZAyuwug4B56vGOdA6rzB/vVjrOPvowDcHGAQYT+iVPH36VM4isfmkSZNk9erVjNNxFUE8moBfrfsQRr4SMh6Mk9Y7OjrmRtKydqtWrWq1cePGCHHjxpXEiROrk3g4etSaYhAwCBgE/InAgwfOIqGj+fNoEZenbnL/0RNvURb9fXIIODCK20uEpmcuIPsQUoZmd378TO4+cg0BaH16F5hD6RUSUQd8eSvPX7wSl4eu3qMsBvyFgmyN4cM6iBvDUNq5vETQlNsYvz5TDNj5skGmeob8f4oItYi5YddCcv0SefTuuLi+F2XRrhcOQpXfd3n2SdlWGJmyWbNmQagHpimBgcBLJJFHOHu5evUqLQ6R6/yFG8jYOJC0Uffv37/lVxs+SMh4kufJnUDEJiKrdKPr16+XRTIzJ7zIo2C1wM9z/bqo2WcQMAh8fQi8fv0qdOGiFf21khMjWhTpv/m0DNtwKtAWgIPaHSFhip8kmYQPF/DiFnlewiRJpPGMNRLqa42aBnzTpEjqe4S+zxgM8eI4ysQLD2VN78UYuxRlv8ICbJ1ixZAIDM9np8Ix/MQhmhQeuNROVwgG1WKtJrS8kW7l4tlr3UZBcAfWLyPGkCKDlgUDUOzTRD7JdapX9jcpgzJDlv611ETHs8/tCLK14r39GvzIFX/38Lcaf1MQn+Oifxr8SW8LhMMPC8YXFReI4O7u/l/sj/zTJnOMQcAgEAIRQLjXDGXKVVs9dPjU0P4J4kpCYgpl+k+apj8JMoOxffA1uHoMQ3uOXV7B4Bw4OBusPw1nTtljRnZD7rxZiT3ONP9+LQjALNEd85IbFFlPDh48+ElmAp+k5fKs/MHXAqzpp0HAIBBwCMD1lImE/M2y7C3MBVzPgm9NBmP73DuDq31w9VmrwdknIvb7bbD+VGxDCcKaX/vUs8zxIQMBWBR+ckfei7L4yTWYEwwCBgGDgEHAIGAQMAgYBAwCBgGDgEHgPyFgCNl/gs2cZBAwCBgEDAIGAd8RoMnSxyxNuf/unRsIoHX1g8c+fvwIEbteel3Eze05onc9Rs7Qa3L54mls97fC2asO68u5s8fk+LF9At9OOX3qsLxA3f4tltshg86cOnlYnj37OgPD+Bcvc5xBwCBgEPgYAoaQfQwhs98gYBAwCBgEDAKfgAAia8n165f9PIPxLkaN6CJ9ejTylZCR9DRtWEKmT/lNGNQYftsy4reO0rlDTRk7srt061IP5Oy/E6G5s8fI2FHd5fTJI7hOKTlwcAdCM/vZZK+dV69cQvQwN7ly+ay0aFJGdmxf62sfvE4wXwwCBgGDgEHATwT8Of36WYfZaRAwCBgEDAIGAYMAEHgNjVahfPFly8aliGAJTRnfsp4aM0trxs+XL0C4WvSSjp2HK27chsBs8vzZU/3NmDbJk6eT5ctmIf0Bc9u8kP17t0maNJmkeave0rHLcIkcOaowvR+1ZiRsrMO6Biuxvlufrk9cvEjX2zdvNa1CqtQZpf/g6ZI1a17Vt1l12H66uj7W83itq1fPS7lSaeSpq4skT5FW+vSfInnyFtXoc0xRSqLm/sZd+2K1gee5u7/WIBxWW7ST5h+DgEHAIGAQUAQMITMDwSBgEDAIGAQMAgGAAMnGkIFtJXz4CDJ18mDp27OpFMmfSC6cOykL502QkkVSyG2YKI4d1UN6dm8oixf+IRN/7yvXrl2WEoWTSbtW1aRCmXTSunlFkKW3kiNXQXFzeyYXzp+Ve3dvyb17t6RM+doyY9pw+X1MTzU3HNSvjZQvlU5+qpBZbty4LAXyxpODB7bLTXwvXiipbNm0TC5dPIfvSVB3Bmnf+mc1g1RihPZeA8Hq27OxnILZYv7vnKTIDwn1r0LpDDCpvCnlSqbFXxqE/P4B9ZyXVk3LIxdpbKlaOaesXD5H+vdpJseO7te29OvdGn1MJsUKJJZF86fodSqV/Vb69WouZYqnkkplMyI3z40AQNpUYRAwCBgEQhYChpCFrPtpemMQMAgYBAwCXxCBMuVq6NULFakgP1drIpEiRVZfrbPw2Xrx4rncgCnjieMHJF/+UtCSuamWiuHb+YeQyVKqTHU5cnin+olly55P3kI9dv7cCVm3dhE0UukkRcq0HtomELazZ47KyhVzpVadttK7/2Tk/YrkpYliI6g1Y71hkai5VdsB0qxlb9m7Z4scP7oPGi+orVDohcbjHMI4SM8+f0iVqk1AAp9LjVqtoGELLS3a9JeWbfpBM3ZB9u/bJrXqtlWi1aJ1X0mSLA3a767t3rljvRK0dh2HSuly1WXyH4MQZe6KXv/8hZN63uPHD2TH32v1uuYfg4BBwCBgEHiHgCFk77Aw3wwCBgGDgEHAIPCfEaCZYfqMOfT81DAtTJM2MwhUBtmza7Pch4YrTbrMsm/vFnn04J6kTvOtEiHrYjTpK1WmmtSs3VpZkovLA0mcNKUkTZoaJGqz7N65UfLnL+lhhojrgMJJvHiJJGGi5LJg/nhZu3qhEiirPhItqzD4xrIlM1Qjx+0MCuI9jLkHGcz3Q0nZi/ZlzpxbKlauL24gkH/9OVUWzp+g132O4B05vyuo7c7/Q2mJHTuOXoJJcA+DRMaN+41Uq1FHCaLrk0dy++ZVefP2jVSsWE/KVagtkaNElycIVGKKQcAgYBAwCHhHwBAy73iYXwYBg4BBwCBgEPjPCJDoUCv1FH5XNDvM+G1ONSF88dJN6tZtL2vXLBa4hEmcuAnx7zvaRDLnEDa8hGUED5gSohIJj6/FS/0sf29bDdPCC5ItZ35u9ij4DAMiNG7CcqkJbdbaVQugkboMAvRWrl45L3dv31DtFZnUqOGdJWZMR+k3cBq0aBFsL+tZmeC64WXBvPGI3nhGOnUbhUAi4eWvxZPl2dMnOG+6/va6Ntr98NF97ScrIOGLHSuuRlt8+NBNNXesL1r0mNDwvZVwuGZoRAwJrQ51Vge8Lm2+GAQMAgaBrx4BQ8i++iFgADAIGAQMAgaBgEIgUuTw4ugYT+bOGSuzZ46UbDnyq6li2nRZJVXaTAja8UTixksIP6xIqtEKFTqU8i8SFnAnLR7EBQFCXotqlqiZihgxkqROnVkJGc8JHSY0fNOOS8P6RWXb1pUSI5ajJE6SEhq5dPBR6ya9ujfwrCuUEiP6eXXtVEtevnyJ6+CaIEfWdWi+ePb0MUR0HIpgHGGlZdNyUu2nnNDAJYbP2zWtixo8lhjRY2F7QmnZpJz8e3i31sPQ+SVKVZFICDJSqWwGGdCnqWTOkluSQLvnoYnz6BiviQ1aj/nHIGAQMAgYBN4hYGbGd1iYbwYBg4AdEUAEtiyVKv9yYOjwqWHc3Ox4IVO1QeALIkC+cQsk5gjISvr0WSV+giRy+NBOSZIklcR2jIsAGPs0KEbKVGnl3NlT6o9Fs8Rjx/ZLylQZJEqUaHp8+gzZ8T2qErAjh3cpecqcLTc0ToIgHyc12Eey5Gm1vscwb0yVOpMkTZ4aBOo6fMT2qqnkA+e7kgyREMOFiyD74DuW4JukIGRu+slz6CuWFH5gJ08cBElMJLduXlFNluXPlj5DDphKbhBHp/jyBn5mTnETSAL059SJQwhEckGyIDIjfcvY7pgxY0NDdxVh9A+DPEaWLNnyIrhJROCwSxIlToE+O2q74sCske0wxSAQUhHgHDAGqSkmjh9kZOyQepPt0C8zWOwAqqnSIGAQeB8BQ8jex8RsCbkIUCh7Z+Jn3376vJbP37y6b9v806oPnfep2/1zLXOMQSAkIMBnwxCykHAnA7cPxmQxcPE2VzMIGAQMAgaBrwCBwCJjhNLntXz+9u0Y/94C3+ryq74PHe/f65njDAIGAYPA14gA0lCaYhAwCBgEAgWBUHT+f4GEuEwea4pBwCBgEDAIGARCGgL0m7R8LkNa30x/7IeAMVm0H7amZoOAQcAGgXjxYqWPGCnmEQQ8CEsfFVMMAgYBg4BBwCAQEhFweeQs586dMTJ2SLy5pk8GAYOAQcAgYBAwCBgEDAIGAYOAQcAgELIQ+D+tKQ7mrialQQAAAABJRU5ErkJggg==;" vertex="1" parent="1">
          <mxGeometry x="60" y="600" width="868" height="568" as="geometry" />
        </mxCell>
        <mxCell id="llEExxZRJE0HhfkoLZ6r-2" value="" style="html=1;verticalAlign=bottom;labelBackgroundColor=none;endArrow=block;endFill=1;rounded=0;" edge="1" parent="1">
          <mxGeometry width="160" relative="1" as="geometry">
            <mxPoint x="460" y="90" as="sourcePoint" />
            <mxPoint x="460" y="150" as="targetPoint" />
          </mxGeometry>
        </mxCell>
        <mxCell id="llEExxZRJE0HhfkoLZ6r-3" value="" style="html=1;verticalAlign=bottom;labelBackgroundColor=none;endArrow=cross;endFill=0;rounded=0;endSize=10;targetPerimeterSpacing=5;sourcePerimeterSpacing=6;" edge="1" parent="1">
          <mxGeometry width="160" relative="1" as="geometry">
            <mxPoint x="570" y="70" as="sourcePoint" />
            <mxPoint x="670" y="180" as="targetPoint" />
          </mxGeometry>
        </mxCell>
        <mxCell id="llEExxZRJE0HhfkoLZ6r-4" value="Instance1 value" style="fontStyle=0;html=1;whiteSpace=wrap;rounded=1;fillColor=#1ba1e2;fontColor=#ffffff;strokeColor=#006EAF;" vertex="1" parent="1">
          <mxGeometry x="410" y="170" width="120" height="40" as="geometry" />
        </mxCell>
        <mxCell id="llEExxZRJE0HhfkoLZ6r-5" value="Instance1 value" style="fontStyle=0;html=1;whiteSpace=wrap;rounded=1;fillColor=#1ba1e2;fontColor=#ffffff;strokeColor=#006EAF;" vertex="1" parent="1">
          <mxGeometry x="590" y="130" width="120" height="40" as="geometry" />
        </mxCell>
        <mxCell id="llEExxZRJE0HhfkoLZ6r-6" value="Instance1 value" style="fontStyle=0;html=1;whiteSpace=wrap;rounded=1;fillColor=#1ba1e2;fontColor=#ffffff;strokeColor=#006EAF;" vertex="1" parent="1">
          <mxGeometry x="590" y="250" width="120" height="40" as="geometry" />
        </mxCell>
        <mxCell id="llEExxZRJE0HhfkoLZ6r-7" value="Instance1 value" style="fontStyle=0;html=1;whiteSpace=wrap;rounded=1;fillColor=#1ba1e2;fontColor=#ffffff;strokeColor=#006EAF;" vertex="1" parent="1">
          <mxGeometry x="800" y="300" width="120" height="40" as="geometry" />
        </mxCell>
        <mxCell id="llEExxZRJE0HhfkoLZ6r-8" value="Instance1 value" style="fontStyle=0;html=1;whiteSpace=wrap;rounded=1;fillColor=#1ba1e2;fontColor=#ffffff;strokeColor=#006EAF;" vertex="1" parent="1">
          <mxGeometry x="150" y="280" width="120" height="40" as="geometry" />
        </mxCell>
        <mxCell id="llEExxZRJE0HhfkoLZ6r-9" value="Instance1 value" style="fontStyle=0;html=1;whiteSpace=wrap;rounded=1;fillColor=#1ba1e2;fontColor=#ffffff;strokeColor=#006EAF;" vertex="1" parent="1">
          <mxGeometry x="320" y="370" width="120" height="40" as="geometry" />
        </mxCell>
        <mxCell id="llEExxZRJE0HhfkoLZ6r-10" value="" style="html=1;outlineConnect=0;whiteSpace=wrap;fillColor=#99ffff;shape=mxgraph.archimate3.component;" vertex="1" parent="1">
          <mxGeometry x="340" y="450" width="70" height="75" as="geometry" />
        </mxCell>
        <mxCell id="llEExxZRJE0HhfkoLZ6r-11" value="A" style="html=1;strokeColor=#1C1C1C;fillColor=#ffffff;fontFamily=Tahoma;fontSize=14;fontColor=#525252;align=center;strokeWidth=2;" vertex="1" parent="1">
          <mxGeometry x="470" y="290" width="110" height="40" as="geometry" />
        </mxCell>
        <mxCell id="llEExxZRJE0HhfkoLZ6r-12" value="S" style="html=1;shape=mxgraph.sysml.cont;fontStyle=0;whiteSpace=wrap;align=center;strokeColor=#006EAF;strokeWidth=2;fillColor=#1ba1e2;fontFamily=Helvetica;fontSize=14;fontColor=#ffffff;" vertex="1" parent="1">
          <mxGeometry x="484" y="390" width="96" height="40" as="geometry" />
        </mxCell>
      </root>
    </mxGraphModel>
  </diagram>
</mxfile>
